%TF.GenerationSoftware,KiCad,Pcbnew,(5.99.0-9637-g1c773bc137)*%
%TF.CreationDate,2021-03-08T11:41:17+01:00*%
%TF.ProjectId,europa,6575726f-7061-42e6-9b69-6361645f7063,rev?*%
%TF.SameCoordinates,Original*%
%TF.FileFunction,Soldermask,Bot*%
%TF.FilePolarity,Negative*%
%FSLAX46Y46*%
G04 Gerber Fmt 4.6, Leading zero omitted, Abs format (unit mm)*
G04 Created by KiCad (PCBNEW (5.99.0-9637-g1c773bc137)) date 2021-03-08 11:41:17*
%MOMM*%
%LPD*%
G01*
G04 APERTURE LIST*
%ADD10C,3.200000*%
%ADD11C,4.000000*%
%ADD12C,1.800000*%
%ADD13R,1.930000X1.830000*%
%ADD14C,2.130000*%
%ADD15C,1.400000*%
%ADD16O,1.400000X1.400000*%
%ADD17R,1.700000X1.700000*%
%ADD18O,1.700000X1.700000*%
G04 APERTURE END LIST*
D10*
%TO.C,REF\u002A\u002A*%
X114334000Y-22582000D03*
X114334000Y-145082000D03*
X89034000Y-145082000D03*
%TD*%
D11*
%TO.C,TARGET1*%
X97454000Y-56610600D03*
X106254000Y-56610600D03*
D12*
X104354000Y-63610600D03*
X101854000Y-63610600D03*
X99354000Y-63610600D03*
%TD*%
D13*
%TO.C,J4*%
X111760000Y-109082800D03*
D14*
X111760000Y-120482800D03*
X111760000Y-112182800D03*
%TD*%
D11*
%TO.C,SWING1*%
X106508000Y-74517600D03*
X97708000Y-74517600D03*
D12*
X104608000Y-81517600D03*
X102108000Y-81517600D03*
X99608000Y-81517600D03*
%TD*%
D11*
%TO.C,BALL1*%
X106508000Y-38703600D03*
X97708000Y-38703600D03*
D12*
X104608000Y-45703600D03*
X102108000Y-45703600D03*
X99608000Y-45703600D03*
%TD*%
D13*
%TO.C,J6*%
X111760000Y-125780800D03*
D14*
X111760000Y-137180800D03*
X111760000Y-128880800D03*
%TD*%
D15*
%TO.C,R4*%
X113792000Y-94996000D03*
D16*
X118872000Y-94996000D03*
%TD*%
D15*
%TO.C,R1*%
X115824000Y-33557600D03*
D16*
X115824000Y-38637600D03*
%TD*%
D13*
%TO.C,J3*%
X91440000Y-109082800D03*
D14*
X91440000Y-120482800D03*
X91440000Y-112182800D03*
%TD*%
D15*
%TO.C,R3*%
X99568000Y-94996000D03*
D16*
X104648000Y-94996000D03*
%TD*%
D15*
%TO.C,R2*%
X84836000Y-94996000D03*
D16*
X89916000Y-94996000D03*
%TD*%
D17*
%TO.C,J1*%
X111000000Y-89255600D03*
D18*
X111000000Y-86715600D03*
X111000000Y-84175600D03*
X111000000Y-81635600D03*
X111000000Y-79095600D03*
X111000000Y-76555600D03*
X111000000Y-74015600D03*
X111000000Y-71475600D03*
X111000000Y-68935600D03*
X111000000Y-66395600D03*
X111000000Y-63855600D03*
X111000000Y-61315600D03*
X111000000Y-58775600D03*
X111000000Y-56235600D03*
X111000000Y-53695600D03*
X111000000Y-51155600D03*
X111000000Y-48615600D03*
X111000000Y-46075600D03*
X111000000Y-43535600D03*
X111000000Y-40995600D03*
X111000000Y-38455600D03*
X111000000Y-35915600D03*
X111000000Y-33375600D03*
X111000000Y-30835600D03*
%TD*%
D13*
%TO.C,J5*%
X91440000Y-125780800D03*
D14*
X91440000Y-137180800D03*
X91440000Y-128880800D03*
%TD*%
D17*
%TO.C,J2*%
X93220000Y-89255600D03*
D18*
X93220000Y-86715600D03*
X93220000Y-84175600D03*
X93220000Y-81635600D03*
X93220000Y-79095600D03*
X93220000Y-76555600D03*
X93220000Y-74015600D03*
X93220000Y-71475600D03*
X93220000Y-68935600D03*
X93220000Y-66395600D03*
X93220000Y-63855600D03*
X93220000Y-61315600D03*
X93220000Y-58775600D03*
X93220000Y-56235600D03*
X93220000Y-53695600D03*
X93220000Y-51155600D03*
X93220000Y-48615600D03*
X93220000Y-46075600D03*
X93220000Y-43535600D03*
X93220000Y-40995600D03*
X93220000Y-38455600D03*
X93220000Y-35915600D03*
X93220000Y-33375600D03*
X93220000Y-30835600D03*
%TD*%
M02*
