M48
; DRILL file {KiCad (5.99.0-9637-g1c773bc137)} date Monday, March 08, 2021 at 11:42:04 AM
; FORMAT={-:-/ absolute / inch / decimal}
; #@! TF.CreationDate,2021-03-08T11:42:04+01:00
; #@! TF.GenerationSoftware,Kicad,Pcbnew,(5.99.0-9637-g1c773bc137)
; #@! TF.FileFunction,Plated,1,2,PTH
FMAT,2
INCH
T1C0.0276
T2C0.0394
T3C0.0480
T4C0.0559
T5C0.0563
%
G90
G05
T1
X3.34Y-3.74
X3.54Y-3.74
X3.92Y-3.74
X4.12Y-3.74
X4.48Y-3.74
X4.56Y-1.3212
X4.56Y-1.5212
X4.68Y-3.74
T2
X3.6701Y-1.214
X3.6701Y-1.314
X3.6701Y-1.414
X3.6701Y-1.514
X3.6701Y-1.614
X3.6701Y-1.714
X3.6701Y-1.814
X3.6701Y-1.914
X3.6701Y-2.014
X3.6701Y-2.114
X3.6701Y-2.214
X3.6701Y-2.314
X3.6701Y-2.414
X3.6701Y-2.514
X3.6701Y-2.614
X3.6701Y-2.714
X3.6701Y-2.814
X3.6701Y-2.914
X3.6701Y-3.014
X3.6701Y-3.114
X3.6701Y-3.214
X3.6701Y-3.314
X3.6701Y-3.414
X3.6701Y-3.514
X3.9116Y-2.5044
X3.9216Y-1.7994
X3.9216Y-3.2094
X4.01Y-2.5044
X4.02Y-1.7994
X4.02Y-3.2094
X4.1084Y-2.5044
X4.1184Y-1.7994
X4.1184Y-3.2094
X4.3701Y-1.214
X4.3701Y-1.314
X4.3701Y-1.414
X4.3701Y-1.514
X4.3701Y-1.614
X4.3701Y-1.714
X4.3701Y-1.814
X4.3701Y-1.914
X4.3701Y-2.014
X4.3701Y-2.114
X4.3701Y-2.214
X4.3701Y-2.314
X4.3701Y-2.414
X4.3701Y-2.514
X4.3701Y-2.614
X4.3701Y-2.714
X4.3701Y-2.814
X4.3701Y-2.914
X4.3701Y-3.014
X4.3701Y-3.114
X4.3701Y-3.214
X4.3701Y-3.314
X4.3701Y-3.414
X4.3701Y-3.514
T3
X3.6Y-4.2946
X3.6Y-4.952
X4.4Y-4.2946
X4.4Y-4.952
T4
X3.6Y-4.4166
X3.6Y-5.074
X4.4Y-4.4166
X4.4Y-5.074
T5
X3.6Y-4.7434
X3.6Y-5.4008
X4.4Y-4.7434
X4.4Y-5.4008
T0
M30
