%TF.GenerationSoftware,KiCad,Pcbnew,(5.99.0-9637-g1c773bc137)*%
%TF.CreationDate,2021-03-08T11:41:16+01:00*%
%TF.ProjectId,europa,6575726f-7061-42e6-9b69-6361645f7063,rev?*%
%TF.SameCoordinates,Original*%
%TF.FileFunction,Copper,L2,Bot*%
%TF.FilePolarity,Positive*%
%FSLAX46Y46*%
G04 Gerber Fmt 4.6, Leading zero omitted, Abs format (unit mm)*
G04 Created by KiCad (PCBNEW (5.99.0-9637-g1c773bc137)) date 2021-03-08 11:41:16*
%MOMM*%
%LPD*%
G01*
G04 APERTURE LIST*
%TA.AperFunction,WasherPad*%
%ADD10C,4.000000*%
%TD*%
%TA.AperFunction,ComponentPad*%
%ADD11C,1.800000*%
%TD*%
%TA.AperFunction,ComponentPad*%
%ADD12R,1.930000X1.830000*%
%TD*%
%TA.AperFunction,ComponentPad*%
%ADD13C,2.130000*%
%TD*%
%TA.AperFunction,ComponentPad*%
%ADD14C,1.400000*%
%TD*%
%TA.AperFunction,ComponentPad*%
%ADD15O,1.400000X1.400000*%
%TD*%
%TA.AperFunction,ComponentPad*%
%ADD16R,1.700000X1.700000*%
%TD*%
%TA.AperFunction,ComponentPad*%
%ADD17O,1.700000X1.700000*%
%TD*%
%TA.AperFunction,Conductor*%
%ADD18C,0.250000*%
%TD*%
G04 APERTURE END LIST*
D10*
%TO.P,TARGET1,*%
%TO.N,*%
X97454000Y-56610600D03*
X106254000Y-56610600D03*
D11*
%TO.P,TARGET1,1,1*%
%TO.N,+3V3*%
X104354000Y-63610600D03*
%TO.P,TARGET1,2,2*%
%TO.N,A1*%
X101854000Y-63610600D03*
%TO.P,TARGET1,3,3*%
%TO.N,GND*%
X99354000Y-63610600D03*
%TD*%
D12*
%TO.P,J4,S*%
%TO.N,GND*%
X111760000Y-109082800D03*
D13*
%TO.P,J4,T*%
%TO.N,unconnected-(J4-PadT)*%
X111760000Y-120482800D03*
%TO.P,J4,TN*%
%TO.N,N/C*%
X111760000Y-112182800D03*
%TD*%
D10*
%TO.P,SWING1,*%
%TO.N,*%
X106508000Y-74517600D03*
X97708000Y-74517600D03*
D11*
%TO.P,SWING1,1,1*%
%TO.N,+3V3*%
X104608000Y-81517600D03*
%TO.P,SWING1,2,2*%
%TO.N,A2*%
X102108000Y-81517600D03*
%TO.P,SWING1,3,3*%
%TO.N,GND*%
X99608000Y-81517600D03*
%TD*%
D10*
%TO.P,BALL1,*%
%TO.N,*%
X106508000Y-38703600D03*
X97708000Y-38703600D03*
D11*
%TO.P,BALL1,1,1*%
%TO.N,+3V3*%
X104608000Y-45703600D03*
%TO.P,BALL1,2,2*%
%TO.N,A0*%
X102108000Y-45703600D03*
%TO.P,BALL1,3,3*%
%TO.N,GND*%
X99608000Y-45703600D03*
%TD*%
D12*
%TO.P,J6,S*%
%TO.N,GND*%
X111760000Y-125780800D03*
D13*
%TO.P,J6,T*%
%TO.N,unconnected-(J6-PadT)*%
X111760000Y-137180800D03*
%TO.P,J6,TN*%
%TO.N,N/C*%
X111760000Y-128880800D03*
%TD*%
D14*
%TO.P,R4,1*%
%TO.N,BUTTON3*%
X113792000Y-94996000D03*
D15*
%TO.P,R4,2*%
%TO.N,GND*%
X118872000Y-94996000D03*
%TD*%
D14*
%TO.P,R1,1*%
%TO.N,REF_CLK*%
X115824000Y-33557600D03*
D15*
%TO.P,R1,2*%
%TO.N,VREF*%
X115824000Y-38637600D03*
%TD*%
D12*
%TO.P,J3,S*%
%TO.N,GND*%
X91440000Y-109082800D03*
D13*
%TO.P,J3,T*%
%TO.N,AU_IN1*%
X91440000Y-120482800D03*
%TO.P,J3,TN*%
%TO.N,N/C*%
X91440000Y-112182800D03*
%TD*%
D14*
%TO.P,R3,1*%
%TO.N,BUTTON2*%
X99568000Y-94996000D03*
D15*
%TO.P,R3,2*%
%TO.N,GND*%
X104648000Y-94996000D03*
%TD*%
D14*
%TO.P,R2,1*%
%TO.N,BUTTON1*%
X84836000Y-94996000D03*
D15*
%TO.P,R2,2*%
%TO.N,GND*%
X89916000Y-94996000D03*
%TD*%
D16*
%TO.P,J1,1,Pin_1*%
%TO.N,/FT_SSn*%
X111000000Y-89255600D03*
D17*
%TO.P,J1,2,Pin_2*%
%TO.N,/FT_SCK*%
X111000000Y-86715600D03*
%TO.P,J1,3,Pin_3*%
%TO.N,/FLASH_MOSI*%
X111000000Y-84175600D03*
%TO.P,J1,4,Pin_4*%
%TO.N,/FLASH_MISO*%
X111000000Y-81635600D03*
%TO.P,J1,5,Pin_5*%
%TO.N,/IOB_25B_G3*%
X111000000Y-79095600D03*
%TO.P,J1,6,Pin_6*%
%TO.N,BUTTON3*%
X111000000Y-76555600D03*
%TO.P,J1,7,Pin_7*%
%TO.N,GND*%
X111000000Y-74015600D03*
%TO.P,J1,8,Pin_8*%
%TO.N,/CLK_12M_EXT*%
X111000000Y-71475600D03*
%TO.P,J1,9,Pin_9*%
%TO.N,AU_IN1*%
X111000000Y-68935600D03*
%TO.P,J1,10,Pin_10*%
%TO.N,VREF*%
X111000000Y-66395600D03*
%TO.P,J1,11,Pin_11*%
%TO.N,/IOB_24A*%
X111000000Y-63855600D03*
%TO.P,J1,12,Pin_12*%
%TO.N,AU_OUT1*%
X111000000Y-61315600D03*
%TO.P,J1,13,Pin_13*%
%TO.N,/IOB_31B*%
X111000000Y-58775600D03*
%TO.P,J1,14,Pin_14*%
%TO.N,BUTTON2*%
X111000000Y-56235600D03*
%TO.P,J1,15,Pin_15*%
%TO.N,BUTTON1*%
X111000000Y-53695600D03*
%TO.P,J1,16,Pin_16*%
%TO.N,/IOB_13B*%
X111000000Y-51155600D03*
%TO.P,J1,17,Pin_17*%
%TO.N,/IOB_3B_G6*%
X111000000Y-48615600D03*
%TO.P,J1,18,Pin_18*%
%TO.N,A1*%
X111000000Y-46075600D03*
%TO.P,J1,19,Pin_19*%
%TO.N,VREF*%
X111000000Y-43535600D03*
%TO.P,J1,20,Pin_20*%
%TO.N,A0*%
X111000000Y-40995600D03*
%TO.P,J1,21,Pin_21*%
%TO.N,VREF*%
X111000000Y-38455600D03*
%TO.P,J1,22,Pin_22*%
%TO.N,/IOB_2A*%
X111000000Y-35915600D03*
%TO.P,J1,23,Pin_23*%
%TO.N,REF_CLK*%
X111000000Y-33375600D03*
%TO.P,J1,24,Pin_24*%
%TO.N,/IOB_6A*%
X111000000Y-30835600D03*
%TD*%
D12*
%TO.P,J5,S*%
%TO.N,GND*%
X91440000Y-125780800D03*
D13*
%TO.P,J5,T*%
%TO.N,AU_OUT1*%
X91440000Y-137180800D03*
%TO.P,J5,TN*%
%TO.N,N/C*%
X91440000Y-128880800D03*
%TD*%
D16*
%TO.P,J2,1,Pin_1*%
%TO.N,GND*%
X93220000Y-89255600D03*
D17*
%TO.P,J2,2,Pin_2*%
%TO.N,/VIO_BANK_0_2*%
X93220000Y-86715600D03*
%TO.P,J2,3,Pin_3*%
%TO.N,/CRESET_N*%
X93220000Y-84175600D03*
%TO.P,J2,4,Pin_4*%
%TO.N,/CDONE*%
X93220000Y-81635600D03*
%TO.P,J2,5,Pin_5*%
%TO.N,/LED_R*%
X93220000Y-79095600D03*
%TO.P,J2,6,Pin_6*%
%TO.N,/LED_G*%
X93220000Y-76555600D03*
%TO.P,J2,7,Pin_7*%
%TO.N,/LED_B*%
X93220000Y-74015600D03*
%TO.P,J2,8,Pin_8*%
%TO.N,+5VD*%
X93220000Y-71475600D03*
%TO.P,J2,9,Pin_9*%
%TO.N,+3V3*%
X93220000Y-68935600D03*
%TO.P,J2,10,Pin_10*%
%TO.N,GND*%
X93220000Y-66395600D03*
%TO.P,J2,11,Pin_11*%
%TO.N,A2*%
X93220000Y-63855600D03*
%TO.P,J2,12,Pin_12*%
%TO.N,VREF*%
X93220000Y-61315600D03*
%TO.P,J2,13,Pin_13*%
%TO.N,/IOT_39A*%
X93220000Y-58775600D03*
%TO.P,J2,14,Pin_14*%
%TO.N,/IOT_38B*%
X93220000Y-56235600D03*
%TO.P,J2,15,Pin_15*%
%TO.N,/IOT_43A*%
X93220000Y-53695600D03*
%TO.P,J2,16,Pin_16*%
%TO.N,/IOT_46B_G0*%
X93220000Y-51155600D03*
%TO.P,J2,17,Pin_17*%
%TO.N,/IOT_42B*%
X93220000Y-48615600D03*
%TO.P,J2,18,Pin_18*%
%TO.N,/IOT_45A_G1*%
X93220000Y-46075600D03*
%TO.P,J2,19,Pin_19*%
%TO.N,/IOT_44B*%
X93220000Y-43535600D03*
%TO.P,J2,20,Pin_20*%
%TO.N,/IOT_49A*%
X93220000Y-40995600D03*
%TO.P,J2,21,Pin_21*%
%TO.N,/IOT_48B*%
X93220000Y-38455600D03*
%TO.P,J2,22,Pin_22*%
%TO.N,/IOT_51A*%
X93220000Y-35915600D03*
%TO.P,J2,23,Pin_23*%
%TO.N,/IOT_50B*%
X93220000Y-33375600D03*
%TO.P,J2,24,Pin_24*%
%TO.N,/IOT_41A*%
X93220000Y-30835600D03*
%TD*%
D18*
%TO.N,AU_IN1*%
X91440000Y-120482800D02*
X97028000Y-117192000D01*
X112175011Y-93436565D02*
X112175011Y-70110611D01*
X97028000Y-117192000D02*
X97028000Y-108583576D01*
X97028000Y-108583576D02*
X112175011Y-93436565D01*
%TO.N,AU_OUT1*%
X91440000Y-137180800D02*
X98552000Y-132366000D01*
X98552000Y-132366000D02*
X98552000Y-107696000D01*
X98552000Y-107696000D02*
X114817011Y-91430989D01*
X114817011Y-91430989D02*
X114817011Y-65132611D01*
X114817011Y-65132611D02*
X111318212Y-61633812D01*
%TO.N,AU_IN1*%
X112175011Y-70110611D02*
X111000000Y-68935600D01*
%TO.N,VREF*%
X109824989Y-65658589D02*
X110562000Y-66395600D01*
X111942000Y-43535600D02*
X111000000Y-43535600D01*
X97536000Y-65631600D02*
X93220000Y-61315600D01*
X111000000Y-43535600D02*
X109824989Y-44710611D01*
X113284000Y-42193600D02*
X111942000Y-43535600D01*
X97862000Y-66395600D02*
X97536000Y-66069600D01*
X114265000Y-40196600D02*
X112741000Y-40196600D01*
X97536000Y-66069600D02*
X97536000Y-65631600D01*
X112741000Y-40196600D02*
X113284000Y-40739600D01*
X109824989Y-44710611D02*
X109824989Y-65658589D01*
X110562000Y-66395600D02*
X111000000Y-66395600D01*
X111000000Y-66395600D02*
X97862000Y-66395600D01*
X111000000Y-38455600D02*
X112741000Y-40196600D01*
X113284000Y-40739600D02*
X113284000Y-42193600D01*
X115824000Y-38637600D02*
X114265000Y-40196600D01*
%TO.N,REF_CLK*%
X111000000Y-33375600D02*
X115642000Y-33375600D01*
X115642000Y-33375600D02*
X115824000Y-33557600D01*
%TD*%
%TA.AperFunction,Conductor*%
%TO.N,GND*%
G36*
X121268121Y-20110002D02*
G01*
X121314614Y-20163658D01*
X121326000Y-20216000D01*
X121326000Y-142114000D01*
X121305998Y-142182121D01*
X121252342Y-142228614D01*
X121200000Y-142240000D01*
X82168000Y-142240000D01*
X82099879Y-142219998D01*
X82053386Y-142166342D01*
X82042000Y-142114000D01*
X82042000Y-128990911D01*
X89865345Y-128990911D01*
X89903206Y-129241252D01*
X89980604Y-129482320D01*
X89982902Y-129486830D01*
X89982904Y-129486835D01*
X90045042Y-129608787D01*
X90095549Y-129707912D01*
X90245083Y-129912224D01*
X90425360Y-130090001D01*
X90429485Y-130092933D01*
X90429488Y-130092935D01*
X90502799Y-130145034D01*
X90631740Y-130236668D01*
X90858915Y-130348452D01*
X90863759Y-130349933D01*
X91096192Y-130420995D01*
X91096194Y-130420995D01*
X91101040Y-130422477D01*
X91351886Y-130456839D01*
X91422567Y-130455112D01*
X91599937Y-130450777D01*
X91599941Y-130450777D01*
X91604998Y-130450653D01*
X91853866Y-130404079D01*
X92092085Y-130318314D01*
X92313529Y-130195566D01*
X92317507Y-130192436D01*
X92317511Y-130192433D01*
X92508522Y-130042122D01*
X92508523Y-130042121D01*
X92512498Y-130038993D01*
X92683875Y-129852622D01*
X92823250Y-129641248D01*
X92825325Y-129636631D01*
X92924964Y-129414926D01*
X92924966Y-129414920D01*
X92927038Y-129410310D01*
X92992568Y-129165749D01*
X93018154Y-128913858D01*
X93018500Y-128880800D01*
X93006990Y-128737736D01*
X92998601Y-128633469D01*
X92998600Y-128633464D01*
X92998195Y-128628428D01*
X92937801Y-128382548D01*
X92838872Y-128149487D01*
X92703954Y-127935241D01*
X92536518Y-127745322D01*
X92340871Y-127584616D01*
X92122047Y-127457257D01*
X92109473Y-127452430D01*
X92053046Y-127409345D01*
X92028870Y-127342591D01*
X92044622Y-127273364D01*
X92095300Y-127223642D01*
X92154629Y-127208800D01*
X92402743Y-127208800D01*
X92407250Y-127208639D01*
X92471269Y-127204060D01*
X92484491Y-127201674D01*
X92609458Y-127164981D01*
X92625692Y-127157567D01*
X92733360Y-127088374D01*
X92746847Y-127076688D01*
X92830662Y-126979960D01*
X92840307Y-126964952D01*
X92893477Y-126848525D01*
X92898502Y-126831412D01*
X92917361Y-126700246D01*
X92918000Y-126691303D01*
X92918000Y-126052915D01*
X92913525Y-126037676D01*
X92912135Y-126036471D01*
X92904452Y-126034800D01*
X89980115Y-126034800D01*
X89964876Y-126039275D01*
X89963671Y-126040665D01*
X89962000Y-126048348D01*
X89962000Y-126693543D01*
X89962161Y-126698050D01*
X89966740Y-126762069D01*
X89969126Y-126775291D01*
X90005819Y-126900258D01*
X90013233Y-126916492D01*
X90082426Y-127024160D01*
X90094112Y-127037647D01*
X90190840Y-127121462D01*
X90205848Y-127131107D01*
X90322275Y-127184277D01*
X90339388Y-127189302D01*
X90470554Y-127208161D01*
X90479495Y-127208800D01*
X90734247Y-127208800D01*
X90802368Y-127228802D01*
X90848861Y-127282458D01*
X90858965Y-127352732D01*
X90829471Y-127417312D01*
X90787497Y-127448995D01*
X90660313Y-127508302D01*
X90656137Y-127511140D01*
X90656130Y-127511144D01*
X90551761Y-127582074D01*
X90450906Y-127650615D01*
X90266946Y-127824577D01*
X90113166Y-128025714D01*
X89993521Y-128248849D01*
X89911091Y-128488243D01*
X89867996Y-128737736D01*
X89865345Y-128990911D01*
X82042000Y-128990911D01*
X82042000Y-124870295D01*
X89962000Y-124870295D01*
X89962000Y-125508685D01*
X89966475Y-125523924D01*
X89967865Y-125525129D01*
X89975548Y-125526800D01*
X91167885Y-125526800D01*
X91183124Y-125522325D01*
X91184329Y-125520935D01*
X91186000Y-125513252D01*
X91186000Y-124370915D01*
X91184659Y-124366348D01*
X91694000Y-124366348D01*
X91694000Y-125508685D01*
X91698475Y-125523924D01*
X91699865Y-125525129D01*
X91707548Y-125526800D01*
X92899885Y-125526800D01*
X92915124Y-125522325D01*
X92916329Y-125520935D01*
X92918000Y-125513252D01*
X92918000Y-124868057D01*
X92917839Y-124863550D01*
X92913260Y-124799531D01*
X92910874Y-124786309D01*
X92874181Y-124661342D01*
X92866767Y-124645108D01*
X92797574Y-124537440D01*
X92785888Y-124523953D01*
X92689160Y-124440138D01*
X92674152Y-124430493D01*
X92557725Y-124377323D01*
X92540612Y-124372298D01*
X92409446Y-124353439D01*
X92400505Y-124352800D01*
X91712115Y-124352800D01*
X91696876Y-124357275D01*
X91695671Y-124358665D01*
X91694000Y-124366348D01*
X91184659Y-124366348D01*
X91181525Y-124355676D01*
X91180135Y-124354471D01*
X91172452Y-124352800D01*
X90477257Y-124352800D01*
X90472750Y-124352961D01*
X90408731Y-124357540D01*
X90395509Y-124359926D01*
X90270542Y-124396619D01*
X90254308Y-124404033D01*
X90146640Y-124473226D01*
X90133153Y-124484912D01*
X90049338Y-124581640D01*
X90039693Y-124596648D01*
X89986523Y-124713075D01*
X89981498Y-124730188D01*
X89962639Y-124861354D01*
X89962000Y-124870295D01*
X82042000Y-124870295D01*
X82042000Y-120592911D01*
X89865345Y-120592911D01*
X89903206Y-120843252D01*
X89980604Y-121084320D01*
X89982902Y-121088830D01*
X89982904Y-121088835D01*
X90045042Y-121210787D01*
X90095549Y-121309912D01*
X90245083Y-121514224D01*
X90425360Y-121692001D01*
X90429485Y-121694933D01*
X90429488Y-121694935D01*
X90502799Y-121747034D01*
X90631740Y-121838668D01*
X90858915Y-121950452D01*
X90863759Y-121951933D01*
X91096192Y-122022995D01*
X91096194Y-122022995D01*
X91101040Y-122024477D01*
X91351886Y-122058839D01*
X91422567Y-122057112D01*
X91599937Y-122052777D01*
X91599941Y-122052777D01*
X91604998Y-122052653D01*
X91853866Y-122006079D01*
X92092085Y-121920314D01*
X92313529Y-121797566D01*
X92317507Y-121794436D01*
X92317511Y-121794433D01*
X92508522Y-121644122D01*
X92508523Y-121644121D01*
X92512498Y-121640993D01*
X92683875Y-121454622D01*
X92823250Y-121243248D01*
X92825325Y-121238631D01*
X92924964Y-121016926D01*
X92924966Y-121016920D01*
X92927038Y-121012310D01*
X92992568Y-120767749D01*
X93018154Y-120515858D01*
X93018500Y-120482800D01*
X93009894Y-120375839D01*
X93024368Y-120306335D01*
X93071549Y-120257163D01*
X97281798Y-117777727D01*
X97292089Y-117772291D01*
X97292325Y-117772180D01*
X97299860Y-117769732D01*
X97355889Y-117734175D01*
X97359456Y-117731994D01*
X97380159Y-117719802D01*
X97380160Y-117719801D01*
X97383572Y-117717792D01*
X97386701Y-117715374D01*
X97386707Y-117715370D01*
X97387542Y-117714725D01*
X97397071Y-117708040D01*
X97428301Y-117688221D01*
X97434995Y-117683973D01*
X97448378Y-117669722D01*
X97463184Y-117656275D01*
X97472374Y-117649173D01*
X97472377Y-117649170D01*
X97478651Y-117644322D01*
X97484158Y-117637250D01*
X97506245Y-117608885D01*
X97513809Y-117600045D01*
X97539131Y-117573079D01*
X97544557Y-117567301D01*
X97553976Y-117550169D01*
X97564970Y-117533466D01*
X97572111Y-117524295D01*
X97572112Y-117524294D01*
X97576982Y-117518039D01*
X97594897Y-117476848D01*
X97600020Y-117466414D01*
X97621662Y-117427048D01*
X97626525Y-117408110D01*
X97633019Y-117389197D01*
X97637655Y-117378538D01*
X97637656Y-117378536D01*
X97640816Y-117371269D01*
X97647923Y-117326930D01*
X97650293Y-117315538D01*
X97659988Y-117277778D01*
X97659988Y-117277777D01*
X97661465Y-117272025D01*
X97661500Y-117271469D01*
X97661500Y-117252256D01*
X97663088Y-117232315D01*
X97664892Y-117221061D01*
X97664892Y-117221059D01*
X97666146Y-117213236D01*
X97662037Y-117168888D01*
X97661500Y-117157263D01*
X97661500Y-108898170D01*
X97681502Y-108830049D01*
X97698405Y-108809075D01*
X97703405Y-108804075D01*
X97765717Y-108770049D01*
X97836532Y-108775114D01*
X97893368Y-108817661D01*
X97918179Y-108884181D01*
X97918500Y-108893170D01*
X97918500Y-131962999D01*
X97898498Y-132031120D01*
X97863138Y-132067336D01*
X96640303Y-132895191D01*
X92343918Y-135803828D01*
X92276295Y-135825454D01*
X92209900Y-135808388D01*
X92126425Y-135759804D01*
X92126415Y-135759799D01*
X92122047Y-135757257D01*
X92117324Y-135755444D01*
X91890400Y-135668336D01*
X91890396Y-135668335D01*
X91885676Y-135666523D01*
X91880726Y-135665489D01*
X91880723Y-135665488D01*
X91642790Y-135615781D01*
X91642786Y-135615781D01*
X91637839Y-135614747D01*
X91384911Y-135603262D01*
X91379890Y-135603843D01*
X91379887Y-135603843D01*
X91276710Y-135615781D01*
X91133401Y-135632362D01*
X91128527Y-135633741D01*
X91128523Y-135633742D01*
X90894648Y-135699922D01*
X90894646Y-135699923D01*
X90889779Y-135701300D01*
X90885204Y-135703434D01*
X90885197Y-135703436D01*
X90764317Y-135759804D01*
X90660313Y-135808302D01*
X90656137Y-135811140D01*
X90656130Y-135811144D01*
X90551761Y-135882074D01*
X90450906Y-135950615D01*
X90266946Y-136124577D01*
X90113166Y-136325714D01*
X89993521Y-136548849D01*
X89911091Y-136788243D01*
X89867996Y-137037736D01*
X89865345Y-137290911D01*
X89903206Y-137541252D01*
X89980604Y-137782320D01*
X89982902Y-137786830D01*
X89982904Y-137786835D01*
X90045042Y-137908787D01*
X90095549Y-138007912D01*
X90245083Y-138212224D01*
X90425360Y-138390001D01*
X90429485Y-138392933D01*
X90429488Y-138392935D01*
X90502799Y-138445034D01*
X90631740Y-138536668D01*
X90858915Y-138648452D01*
X90863759Y-138649933D01*
X91096192Y-138720995D01*
X91096194Y-138720995D01*
X91101040Y-138722477D01*
X91351886Y-138756839D01*
X91422567Y-138755112D01*
X91599937Y-138750777D01*
X91599941Y-138750777D01*
X91604998Y-138750653D01*
X91853866Y-138704079D01*
X92092085Y-138618314D01*
X92313529Y-138495566D01*
X92317507Y-138492436D01*
X92317511Y-138492433D01*
X92508522Y-138342122D01*
X92508523Y-138342121D01*
X92512498Y-138338993D01*
X92683875Y-138152622D01*
X92823250Y-137941248D01*
X92825325Y-137936631D01*
X92924964Y-137714926D01*
X92924966Y-137714920D01*
X92927038Y-137710310D01*
X92992568Y-137465749D01*
X93010327Y-137290911D01*
X110185345Y-137290911D01*
X110223206Y-137541252D01*
X110300604Y-137782320D01*
X110302902Y-137786830D01*
X110302904Y-137786835D01*
X110365042Y-137908787D01*
X110415549Y-138007912D01*
X110565083Y-138212224D01*
X110745360Y-138390001D01*
X110749485Y-138392933D01*
X110749488Y-138392935D01*
X110822799Y-138445034D01*
X110951740Y-138536668D01*
X111178915Y-138648452D01*
X111183759Y-138649933D01*
X111416192Y-138720995D01*
X111416194Y-138720995D01*
X111421040Y-138722477D01*
X111671886Y-138756839D01*
X111742567Y-138755112D01*
X111919937Y-138750777D01*
X111919941Y-138750777D01*
X111924998Y-138750653D01*
X112173866Y-138704079D01*
X112412085Y-138618314D01*
X112633529Y-138495566D01*
X112637507Y-138492436D01*
X112637511Y-138492433D01*
X112828522Y-138342122D01*
X112828523Y-138342121D01*
X112832498Y-138338993D01*
X113003875Y-138152622D01*
X113143250Y-137941248D01*
X113145325Y-137936631D01*
X113244964Y-137714926D01*
X113244966Y-137714920D01*
X113247038Y-137710310D01*
X113312568Y-137465749D01*
X113338154Y-137213858D01*
X113338500Y-137180800D01*
X113326990Y-137037736D01*
X113318601Y-136933469D01*
X113318600Y-136933464D01*
X113318195Y-136928428D01*
X113310298Y-136896275D01*
X113259008Y-136687462D01*
X113257801Y-136682548D01*
X113158872Y-136449487D01*
X113023954Y-136235241D01*
X112856518Y-136045322D01*
X112660871Y-135884616D01*
X112522064Y-135803828D01*
X112446415Y-135759799D01*
X112446413Y-135759798D01*
X112442047Y-135757257D01*
X112437324Y-135755444D01*
X112210400Y-135668336D01*
X112210396Y-135668335D01*
X112205676Y-135666523D01*
X112200726Y-135665489D01*
X112200723Y-135665488D01*
X111962790Y-135615781D01*
X111962786Y-135615781D01*
X111957839Y-135614747D01*
X111704911Y-135603262D01*
X111699890Y-135603843D01*
X111699887Y-135603843D01*
X111596710Y-135615781D01*
X111453401Y-135632362D01*
X111448527Y-135633741D01*
X111448523Y-135633742D01*
X111214648Y-135699922D01*
X111214646Y-135699923D01*
X111209779Y-135701300D01*
X111205204Y-135703434D01*
X111205197Y-135703436D01*
X111084317Y-135759804D01*
X110980313Y-135808302D01*
X110976137Y-135811140D01*
X110976130Y-135811144D01*
X110871761Y-135882074D01*
X110770906Y-135950615D01*
X110586946Y-136124577D01*
X110433166Y-136325714D01*
X110313521Y-136548849D01*
X110231091Y-136788243D01*
X110187996Y-137037736D01*
X110185345Y-137290911D01*
X93010327Y-137290911D01*
X93018154Y-137213858D01*
X93018500Y-137180800D01*
X93001227Y-136966113D01*
X93015701Y-136896607D01*
X93056184Y-136851670D01*
X98898813Y-132896231D01*
X98901912Y-132894199D01*
X98958995Y-132857973D01*
X98988792Y-132826242D01*
X98997484Y-132817834D01*
X99024233Y-132794336D01*
X99024234Y-132794335D01*
X99030192Y-132789101D01*
X99041992Y-132771805D01*
X99054224Y-132756564D01*
X99063130Y-132747080D01*
X99068557Y-132741301D01*
X99089533Y-132703145D01*
X99095856Y-132692849D01*
X99115923Y-132663436D01*
X99115925Y-132663433D01*
X99120391Y-132656886D01*
X99123088Y-132649436D01*
X99123091Y-132649430D01*
X99127518Y-132637200D01*
X99135581Y-132619384D01*
X99141845Y-132607991D01*
X99145662Y-132601048D01*
X99156488Y-132558881D01*
X99160055Y-132547325D01*
X99172175Y-132513850D01*
X99172177Y-132513843D01*
X99174873Y-132506395D01*
X99175633Y-132498508D01*
X99175634Y-132498502D01*
X99176882Y-132485550D01*
X99180259Y-132466299D01*
X99183988Y-132451776D01*
X99185465Y-132446025D01*
X99185500Y-132445469D01*
X99185500Y-132402121D01*
X99186081Y-132390040D01*
X99189459Y-132354977D01*
X99189459Y-132354973D01*
X99190219Y-132347082D01*
X99187016Y-132326621D01*
X99185500Y-132307135D01*
X99185500Y-128990911D01*
X110185345Y-128990911D01*
X110223206Y-129241252D01*
X110300604Y-129482320D01*
X110302902Y-129486830D01*
X110302904Y-129486835D01*
X110365042Y-129608787D01*
X110415549Y-129707912D01*
X110565083Y-129912224D01*
X110745360Y-130090001D01*
X110749485Y-130092933D01*
X110749488Y-130092935D01*
X110822799Y-130145034D01*
X110951740Y-130236668D01*
X111178915Y-130348452D01*
X111183759Y-130349933D01*
X111416192Y-130420995D01*
X111416194Y-130420995D01*
X111421040Y-130422477D01*
X111671886Y-130456839D01*
X111742567Y-130455112D01*
X111919937Y-130450777D01*
X111919941Y-130450777D01*
X111924998Y-130450653D01*
X112173866Y-130404079D01*
X112412085Y-130318314D01*
X112633529Y-130195566D01*
X112637507Y-130192436D01*
X112637511Y-130192433D01*
X112828522Y-130042122D01*
X112828523Y-130042121D01*
X112832498Y-130038993D01*
X113003875Y-129852622D01*
X113143250Y-129641248D01*
X113145325Y-129636631D01*
X113244964Y-129414926D01*
X113244966Y-129414920D01*
X113247038Y-129410310D01*
X113312568Y-129165749D01*
X113338154Y-128913858D01*
X113338500Y-128880800D01*
X113326990Y-128737736D01*
X113318601Y-128633469D01*
X113318600Y-128633464D01*
X113318195Y-128628428D01*
X113257801Y-128382548D01*
X113158872Y-128149487D01*
X113023954Y-127935241D01*
X112856518Y-127745322D01*
X112660871Y-127584616D01*
X112442047Y-127457257D01*
X112429473Y-127452430D01*
X112373046Y-127409345D01*
X112348870Y-127342591D01*
X112364622Y-127273364D01*
X112415300Y-127223642D01*
X112474629Y-127208800D01*
X112722743Y-127208800D01*
X112727250Y-127208639D01*
X112791269Y-127204060D01*
X112804491Y-127201674D01*
X112929458Y-127164981D01*
X112945692Y-127157567D01*
X113053360Y-127088374D01*
X113066847Y-127076688D01*
X113150662Y-126979960D01*
X113160307Y-126964952D01*
X113213477Y-126848525D01*
X113218502Y-126831412D01*
X113237361Y-126700246D01*
X113238000Y-126691303D01*
X113238000Y-126052915D01*
X113233525Y-126037676D01*
X113232135Y-126036471D01*
X113224452Y-126034800D01*
X110300115Y-126034800D01*
X110284876Y-126039275D01*
X110283671Y-126040665D01*
X110282000Y-126048348D01*
X110282000Y-126693543D01*
X110282161Y-126698050D01*
X110286740Y-126762069D01*
X110289126Y-126775291D01*
X110325819Y-126900258D01*
X110333233Y-126916492D01*
X110402426Y-127024160D01*
X110414112Y-127037647D01*
X110510840Y-127121462D01*
X110525848Y-127131107D01*
X110642275Y-127184277D01*
X110659388Y-127189302D01*
X110790554Y-127208161D01*
X110799495Y-127208800D01*
X111054247Y-127208800D01*
X111122368Y-127228802D01*
X111168861Y-127282458D01*
X111178965Y-127352732D01*
X111149471Y-127417312D01*
X111107497Y-127448995D01*
X110980313Y-127508302D01*
X110976137Y-127511140D01*
X110976130Y-127511144D01*
X110871761Y-127582074D01*
X110770906Y-127650615D01*
X110586946Y-127824577D01*
X110433166Y-128025714D01*
X110313521Y-128248849D01*
X110231091Y-128488243D01*
X110187996Y-128737736D01*
X110185345Y-128990911D01*
X99185500Y-128990911D01*
X99185500Y-124870295D01*
X110282000Y-124870295D01*
X110282000Y-125508685D01*
X110286475Y-125523924D01*
X110287865Y-125525129D01*
X110295548Y-125526800D01*
X111487885Y-125526800D01*
X111503124Y-125522325D01*
X111504329Y-125520935D01*
X111506000Y-125513252D01*
X111506000Y-124370915D01*
X111504659Y-124366348D01*
X112014000Y-124366348D01*
X112014000Y-125508685D01*
X112018475Y-125523924D01*
X112019865Y-125525129D01*
X112027548Y-125526800D01*
X113219885Y-125526800D01*
X113235124Y-125522325D01*
X113236329Y-125520935D01*
X113238000Y-125513252D01*
X113238000Y-124868057D01*
X113237839Y-124863550D01*
X113233260Y-124799531D01*
X113230874Y-124786309D01*
X113194181Y-124661342D01*
X113186767Y-124645108D01*
X113117574Y-124537440D01*
X113105888Y-124523953D01*
X113009160Y-124440138D01*
X112994152Y-124430493D01*
X112877725Y-124377323D01*
X112860612Y-124372298D01*
X112729446Y-124353439D01*
X112720505Y-124352800D01*
X112032115Y-124352800D01*
X112016876Y-124357275D01*
X112015671Y-124358665D01*
X112014000Y-124366348D01*
X111504659Y-124366348D01*
X111501525Y-124355676D01*
X111500135Y-124354471D01*
X111492452Y-124352800D01*
X110797257Y-124352800D01*
X110792750Y-124352961D01*
X110728731Y-124357540D01*
X110715509Y-124359926D01*
X110590542Y-124396619D01*
X110574308Y-124404033D01*
X110466640Y-124473226D01*
X110453153Y-124484912D01*
X110369338Y-124581640D01*
X110359693Y-124596648D01*
X110306523Y-124713075D01*
X110301498Y-124730188D01*
X110282639Y-124861354D01*
X110282000Y-124870295D01*
X99185500Y-124870295D01*
X99185500Y-120592911D01*
X110185345Y-120592911D01*
X110223206Y-120843252D01*
X110300604Y-121084320D01*
X110302902Y-121088830D01*
X110302904Y-121088835D01*
X110365042Y-121210787D01*
X110415549Y-121309912D01*
X110565083Y-121514224D01*
X110745360Y-121692001D01*
X110749485Y-121694933D01*
X110749488Y-121694935D01*
X110822799Y-121747034D01*
X110951740Y-121838668D01*
X111178915Y-121950452D01*
X111183759Y-121951933D01*
X111416192Y-122022995D01*
X111416194Y-122022995D01*
X111421040Y-122024477D01*
X111671886Y-122058839D01*
X111742567Y-122057112D01*
X111919937Y-122052777D01*
X111919941Y-122052777D01*
X111924998Y-122052653D01*
X112173866Y-122006079D01*
X112412085Y-121920314D01*
X112633529Y-121797566D01*
X112637507Y-121794436D01*
X112637511Y-121794433D01*
X112828522Y-121644122D01*
X112828523Y-121644121D01*
X112832498Y-121640993D01*
X113003875Y-121454622D01*
X113143250Y-121243248D01*
X113145325Y-121238631D01*
X113244964Y-121016926D01*
X113244966Y-121016920D01*
X113247038Y-121012310D01*
X113312568Y-120767749D01*
X113338154Y-120515858D01*
X113338500Y-120482800D01*
X113338271Y-120479952D01*
X113318601Y-120235469D01*
X113318600Y-120235464D01*
X113318195Y-120230428D01*
X113257801Y-119984548D01*
X113158872Y-119751487D01*
X113023954Y-119537241D01*
X112856518Y-119347322D01*
X112660871Y-119186616D01*
X112442047Y-119059257D01*
X112437324Y-119057444D01*
X112210400Y-118970336D01*
X112210396Y-118970335D01*
X112205676Y-118968523D01*
X112200726Y-118967489D01*
X112200723Y-118967488D01*
X111962790Y-118917781D01*
X111962786Y-118917781D01*
X111957839Y-118916747D01*
X111704911Y-118905262D01*
X111699890Y-118905843D01*
X111699887Y-118905843D01*
X111596710Y-118917781D01*
X111453401Y-118934362D01*
X111448527Y-118935741D01*
X111448523Y-118935742D01*
X111214648Y-119001922D01*
X111214646Y-119001923D01*
X111209779Y-119003300D01*
X111205204Y-119005434D01*
X111205197Y-119005436D01*
X111084321Y-119061802D01*
X110980313Y-119110302D01*
X110976137Y-119113140D01*
X110976130Y-119113144D01*
X110817283Y-119221097D01*
X110770906Y-119252615D01*
X110586946Y-119426577D01*
X110433166Y-119627714D01*
X110313521Y-119850849D01*
X110231091Y-120090243D01*
X110187996Y-120339736D01*
X110185345Y-120592911D01*
X99185500Y-120592911D01*
X99185500Y-112292911D01*
X110185345Y-112292911D01*
X110223206Y-112543252D01*
X110300604Y-112784320D01*
X110302902Y-112788830D01*
X110302904Y-112788835D01*
X110365042Y-112910787D01*
X110415549Y-113009912D01*
X110565083Y-113214224D01*
X110745360Y-113392001D01*
X110749485Y-113394933D01*
X110749488Y-113394935D01*
X110822799Y-113447034D01*
X110951740Y-113538668D01*
X111178915Y-113650452D01*
X111183759Y-113651933D01*
X111416192Y-113722995D01*
X111416194Y-113722995D01*
X111421040Y-113724477D01*
X111671886Y-113758839D01*
X111742567Y-113757112D01*
X111919937Y-113752777D01*
X111919941Y-113752777D01*
X111924998Y-113752653D01*
X112173866Y-113706079D01*
X112412085Y-113620314D01*
X112633529Y-113497566D01*
X112637507Y-113494436D01*
X112637511Y-113494433D01*
X112828522Y-113344122D01*
X112828523Y-113344121D01*
X112832498Y-113340993D01*
X113003875Y-113154622D01*
X113143250Y-112943248D01*
X113145325Y-112938631D01*
X113244964Y-112716926D01*
X113244966Y-112716920D01*
X113247038Y-112712310D01*
X113312568Y-112467749D01*
X113338154Y-112215858D01*
X113338500Y-112182800D01*
X113326990Y-112039736D01*
X113318601Y-111935469D01*
X113318600Y-111935464D01*
X113318195Y-111930428D01*
X113257801Y-111684548D01*
X113158872Y-111451487D01*
X113023954Y-111237241D01*
X112856518Y-111047322D01*
X112660871Y-110886616D01*
X112442047Y-110759257D01*
X112429473Y-110754430D01*
X112373046Y-110711345D01*
X112348870Y-110644591D01*
X112364622Y-110575364D01*
X112415300Y-110525642D01*
X112474629Y-110510800D01*
X112722743Y-110510800D01*
X112727250Y-110510639D01*
X112791269Y-110506060D01*
X112804491Y-110503674D01*
X112929458Y-110466981D01*
X112945692Y-110459567D01*
X113053360Y-110390374D01*
X113066847Y-110378688D01*
X113150662Y-110281960D01*
X113160307Y-110266952D01*
X113213477Y-110150525D01*
X113218502Y-110133412D01*
X113237361Y-110002246D01*
X113238000Y-109993303D01*
X113238000Y-109354915D01*
X113233525Y-109339676D01*
X113232135Y-109338471D01*
X113224452Y-109336800D01*
X110300115Y-109336800D01*
X110284876Y-109341275D01*
X110283671Y-109342665D01*
X110282000Y-109350348D01*
X110282000Y-109995543D01*
X110282161Y-110000050D01*
X110286740Y-110064069D01*
X110289126Y-110077291D01*
X110325819Y-110202258D01*
X110333233Y-110218492D01*
X110402426Y-110326160D01*
X110414112Y-110339647D01*
X110510840Y-110423462D01*
X110525848Y-110433107D01*
X110642275Y-110486277D01*
X110659388Y-110491302D01*
X110790554Y-110510161D01*
X110799495Y-110510800D01*
X111054247Y-110510800D01*
X111122368Y-110530802D01*
X111168861Y-110584458D01*
X111178965Y-110654732D01*
X111149471Y-110719312D01*
X111107497Y-110750995D01*
X110980313Y-110810302D01*
X110976137Y-110813140D01*
X110976130Y-110813144D01*
X110871761Y-110884074D01*
X110770906Y-110952615D01*
X110586946Y-111126577D01*
X110433166Y-111327714D01*
X110313521Y-111550849D01*
X110231091Y-111790243D01*
X110187996Y-112039736D01*
X110185345Y-112292911D01*
X99185500Y-112292911D01*
X99185500Y-108172295D01*
X110282000Y-108172295D01*
X110282000Y-108810685D01*
X110286475Y-108825924D01*
X110287865Y-108827129D01*
X110295548Y-108828800D01*
X111487885Y-108828800D01*
X111503124Y-108824325D01*
X111504329Y-108822935D01*
X111506000Y-108815252D01*
X111506000Y-107672915D01*
X111504659Y-107668348D01*
X112014000Y-107668348D01*
X112014000Y-108810685D01*
X112018475Y-108825924D01*
X112019865Y-108827129D01*
X112027548Y-108828800D01*
X113219885Y-108828800D01*
X113235124Y-108824325D01*
X113236329Y-108822935D01*
X113238000Y-108815252D01*
X113238000Y-108170057D01*
X113237839Y-108165550D01*
X113233260Y-108101531D01*
X113230874Y-108088309D01*
X113194181Y-107963342D01*
X113186767Y-107947108D01*
X113117574Y-107839440D01*
X113105888Y-107825953D01*
X113009160Y-107742138D01*
X112994152Y-107732493D01*
X112877725Y-107679323D01*
X112860612Y-107674298D01*
X112729446Y-107655439D01*
X112720505Y-107654800D01*
X112032115Y-107654800D01*
X112016876Y-107659275D01*
X112015671Y-107660665D01*
X112014000Y-107668348D01*
X111504659Y-107668348D01*
X111501525Y-107657676D01*
X111500135Y-107656471D01*
X111492452Y-107654800D01*
X110797257Y-107654800D01*
X110792750Y-107654961D01*
X110728731Y-107659540D01*
X110715509Y-107661926D01*
X110590542Y-107698619D01*
X110574308Y-107706033D01*
X110466640Y-107775226D01*
X110453153Y-107786912D01*
X110369338Y-107883640D01*
X110359693Y-107898648D01*
X110306523Y-108015075D01*
X110301498Y-108032188D01*
X110282639Y-108163354D01*
X110282000Y-108172295D01*
X99185500Y-108172295D01*
X99185500Y-108010594D01*
X99205502Y-107942473D01*
X99222405Y-107921499D01*
X112371267Y-94772637D01*
X112433579Y-94738611D01*
X112504394Y-94743676D01*
X112561230Y-94786223D01*
X112586041Y-94852743D01*
X112586319Y-94865030D01*
X112580895Y-95072196D01*
X112581744Y-95077742D01*
X112612453Y-95278426D01*
X112613529Y-95285460D01*
X112615346Y-95290766D01*
X112681525Y-95484060D01*
X112683413Y-95489575D01*
X112788338Y-95678088D01*
X112791891Y-95682428D01*
X112791893Y-95682432D01*
X112880374Y-95790534D01*
X112924987Y-95845041D01*
X113089042Y-95985158D01*
X113093887Y-95987989D01*
X113270470Y-96091176D01*
X113270473Y-96091177D01*
X113275317Y-96094008D01*
X113280587Y-96095937D01*
X113280588Y-96095937D01*
X113472659Y-96166225D01*
X113472663Y-96166226D01*
X113477923Y-96168151D01*
X113483439Y-96169114D01*
X113483444Y-96169115D01*
X113684933Y-96204280D01*
X113684934Y-96204280D01*
X113690457Y-96205244D01*
X113696063Y-96205215D01*
X113696067Y-96205215D01*
X113794301Y-96204700D01*
X113906200Y-96204114D01*
X113911718Y-96203091D01*
X113911721Y-96203091D01*
X114112815Y-96165821D01*
X114112816Y-96165821D01*
X114118334Y-96164798D01*
X114123579Y-96162816D01*
X114123583Y-96162815D01*
X114305674Y-96094008D01*
X114320153Y-96088537D01*
X114505277Y-95977742D01*
X114509497Y-95974060D01*
X114509502Y-95974057D01*
X114663626Y-95839606D01*
X114667856Y-95835916D01*
X114680003Y-95820754D01*
X114799244Y-95671918D01*
X114799247Y-95671913D01*
X114802750Y-95667541D01*
X114905695Y-95477939D01*
X114973438Y-95273104D01*
X114974137Y-95268194D01*
X117691390Y-95268194D01*
X117693165Y-95279795D01*
X117695831Y-95290648D01*
X117762050Y-95484060D01*
X117766601Y-95494280D01*
X117866020Y-95672900D01*
X117872306Y-95682150D01*
X118001792Y-95840351D01*
X118009613Y-95848338D01*
X118165062Y-95981103D01*
X118174179Y-95987582D01*
X118350683Y-96090723D01*
X118360801Y-96095484D01*
X118552786Y-96165741D01*
X118563574Y-96168632D01*
X118600155Y-96175016D01*
X118613520Y-96173502D01*
X118618000Y-96159049D01*
X118618000Y-95268115D01*
X118616659Y-95263548D01*
X119126000Y-95263548D01*
X119126000Y-96159583D01*
X119129724Y-96172266D01*
X119145094Y-96174159D01*
X119192686Y-96165338D01*
X119203446Y-96162334D01*
X119394689Y-96090069D01*
X119404749Y-96085206D01*
X119580173Y-95980217D01*
X119589208Y-95973653D01*
X119743263Y-95839262D01*
X119751008Y-95831185D01*
X119878824Y-95671644D01*
X119885010Y-95662334D01*
X119982561Y-95482666D01*
X119986995Y-95472420D01*
X120051191Y-95278312D01*
X120053653Y-95267815D01*
X120051639Y-95253949D01*
X120038154Y-95250000D01*
X119144115Y-95250000D01*
X119128876Y-95254475D01*
X119127671Y-95255865D01*
X119126000Y-95263548D01*
X118616659Y-95263548D01*
X118613525Y-95252876D01*
X118612135Y-95251671D01*
X118604452Y-95250000D01*
X117706721Y-95250000D01*
X117693377Y-95253918D01*
X117691390Y-95268194D01*
X114974137Y-95268194D01*
X115003837Y-95059510D01*
X115005500Y-94996000D01*
X114986321Y-94781108D01*
X114970769Y-94724260D01*
X117694441Y-94724260D01*
X117695587Y-94738316D01*
X117705775Y-94742000D01*
X118599885Y-94742000D01*
X118615124Y-94737525D01*
X118616329Y-94736135D01*
X118618000Y-94728452D01*
X118618000Y-93828264D01*
X119126000Y-93828264D01*
X119126000Y-94723885D01*
X119130475Y-94739124D01*
X119131865Y-94740329D01*
X119139548Y-94742000D01*
X120036991Y-94742000D01*
X120050522Y-94738027D01*
X120051727Y-94729647D01*
X120010403Y-94578593D01*
X120006509Y-94568120D01*
X119918494Y-94383595D01*
X119912808Y-94373980D01*
X119793511Y-94207960D01*
X119786203Y-94199494D01*
X119639394Y-94057225D01*
X119630712Y-94050195D01*
X119461020Y-93936166D01*
X119451231Y-93930786D01*
X119264040Y-93848614D01*
X119253441Y-93845047D01*
X119143615Y-93818680D01*
X119129530Y-93819385D01*
X119126000Y-93828264D01*
X118618000Y-93828264D01*
X118618000Y-93828177D01*
X118614027Y-93814646D01*
X118606579Y-93813575D01*
X118419040Y-93871270D01*
X118408695Y-93875491D01*
X118227025Y-93969258D01*
X118217594Y-93975243D01*
X118055394Y-94099704D01*
X118047180Y-94107257D01*
X117909582Y-94258475D01*
X117902829Y-94267371D01*
X117794188Y-94440562D01*
X117789117Y-94450514D01*
X117712864Y-94640198D01*
X117709633Y-94650898D01*
X117694441Y-94724260D01*
X114970769Y-94724260D01*
X114947773Y-94640198D01*
X114930874Y-94578424D01*
X114930873Y-94578420D01*
X114929392Y-94573008D01*
X114836510Y-94378278D01*
X114753186Y-94262319D01*
X114713890Y-94207632D01*
X114713885Y-94207627D01*
X114710614Y-94203074D01*
X114555680Y-94052933D01*
X114434358Y-93971408D01*
X114381261Y-93935728D01*
X114381255Y-93935725D01*
X114376608Y-93932602D01*
X114231224Y-93868783D01*
X114184199Y-93848140D01*
X114184197Y-93848139D01*
X114179057Y-93845883D01*
X114032376Y-93810668D01*
X113974729Y-93796828D01*
X113974728Y-93796828D01*
X113969272Y-93795518D01*
X113886801Y-93790763D01*
X113759490Y-93783422D01*
X113759487Y-93783422D01*
X113753883Y-93783099D01*
X113748305Y-93783774D01*
X113668940Y-93793378D01*
X113598910Y-93781705D01*
X113546308Y-93734023D01*
X113527835Y-93665472D01*
X113549356Y-93597816D01*
X113564708Y-93579196D01*
X115209524Y-91934380D01*
X115217612Y-91927020D01*
X115224006Y-91922962D01*
X115269881Y-91874110D01*
X115272635Y-91871269D01*
X115292949Y-91850955D01*
X115295594Y-91847544D01*
X115303300Y-91838522D01*
X115328144Y-91812066D01*
X115333568Y-91806290D01*
X115337387Y-91799344D01*
X115343329Y-91788536D01*
X115354183Y-91772012D01*
X115361736Y-91762275D01*
X115361736Y-91762274D01*
X115366594Y-91756012D01*
X115384153Y-91715436D01*
X115389374Y-91704779D01*
X115410673Y-91666037D01*
X115412646Y-91658353D01*
X115415710Y-91646421D01*
X115422114Y-91627717D01*
X115427010Y-91616404D01*
X115427012Y-91616397D01*
X115430159Y-91609125D01*
X115437076Y-91565454D01*
X115439483Y-91553833D01*
X115448998Y-91516771D01*
X115448998Y-91516770D01*
X115450476Y-91511014D01*
X115450511Y-91510458D01*
X115450511Y-91490537D01*
X115452062Y-91470827D01*
X115453955Y-91458875D01*
X115453955Y-91458874D01*
X115455195Y-91451045D01*
X115451070Y-91407406D01*
X115450511Y-91395549D01*
X115450511Y-65210995D01*
X115451025Y-65200091D01*
X115452677Y-65192700D01*
X115451456Y-65153828D01*
X115450573Y-65125745D01*
X115450511Y-65121788D01*
X115450511Y-65093033D01*
X115449972Y-65088766D01*
X115449038Y-65076916D01*
X115448915Y-65072977D01*
X115447650Y-65032728D01*
X115441999Y-65013277D01*
X115437989Y-64993915D01*
X115436444Y-64981681D01*
X115436443Y-64981678D01*
X115435451Y-64973823D01*
X115432535Y-64966458D01*
X115432534Y-64966454D01*
X115419174Y-64932710D01*
X115415329Y-64921481D01*
X115408234Y-64897059D01*
X115402997Y-64879033D01*
X115395554Y-64866447D01*
X115392688Y-64861600D01*
X115383992Y-64843849D01*
X115379453Y-64832385D01*
X115379451Y-64832382D01*
X115376533Y-64825011D01*
X115350546Y-64789243D01*
X115344027Y-64779320D01*
X115338150Y-64769382D01*
X115321525Y-64741270D01*
X115321156Y-64740852D01*
X115307073Y-64726769D01*
X115294239Y-64711744D01*
X115282457Y-64695528D01*
X115248675Y-64667581D01*
X115239896Y-64659592D01*
X112350334Y-61770030D01*
X112316308Y-61707718D01*
X112318100Y-61646946D01*
X112337908Y-61576240D01*
X112337909Y-61576233D01*
X112339349Y-61571094D01*
X112363249Y-61341776D01*
X112363500Y-61315600D01*
X112363250Y-61312652D01*
X112344458Y-61091176D01*
X112344457Y-61091172D01*
X112344007Y-61085865D01*
X112286084Y-60862698D01*
X112234731Y-60748698D01*
X112193578Y-60657343D01*
X112193577Y-60657341D01*
X112191388Y-60652482D01*
X112062627Y-60461226D01*
X111903482Y-60294399D01*
X111718504Y-60156771D01*
X111713743Y-60154351D01*
X111710425Y-60152293D01*
X111663071Y-60099396D01*
X111651832Y-60029295D01*
X111680277Y-59964245D01*
X111703564Y-59942693D01*
X111712304Y-59936447D01*
X111883711Y-59813957D01*
X112046030Y-59650217D01*
X112133043Y-59526180D01*
X112175375Y-59465836D01*
X112175376Y-59465834D01*
X112178439Y-59461468D01*
X112277153Y-59253108D01*
X112339349Y-59031094D01*
X112342629Y-58999628D01*
X112362941Y-58804727D01*
X112363249Y-58801776D01*
X112363500Y-58775600D01*
X112359672Y-58730487D01*
X112344458Y-58551176D01*
X112344457Y-58551172D01*
X112344007Y-58545865D01*
X112286084Y-58322698D01*
X112234731Y-58208698D01*
X112193578Y-58117343D01*
X112193577Y-58117341D01*
X112191388Y-58112482D01*
X112062627Y-57921226D01*
X111903482Y-57754399D01*
X111718504Y-57616771D01*
X111713743Y-57614351D01*
X111710425Y-57612293D01*
X111663071Y-57559396D01*
X111651832Y-57489295D01*
X111680277Y-57424245D01*
X111703564Y-57402693D01*
X111712304Y-57396447D01*
X111883711Y-57273957D01*
X112046030Y-57110217D01*
X112133043Y-56986180D01*
X112175375Y-56925836D01*
X112175376Y-56925834D01*
X112178439Y-56921468D01*
X112277153Y-56713108D01*
X112339349Y-56491094D01*
X112363249Y-56261776D01*
X112363500Y-56235600D01*
X112363250Y-56232652D01*
X112344458Y-56011176D01*
X112344457Y-56011172D01*
X112344007Y-56005865D01*
X112339739Y-55989419D01*
X112287426Y-55787869D01*
X112286084Y-55782698D01*
X112243918Y-55689092D01*
X112193578Y-55577343D01*
X112193577Y-55577341D01*
X112191388Y-55572482D01*
X112062627Y-55381226D01*
X111903482Y-55214399D01*
X111718504Y-55076771D01*
X111713743Y-55074351D01*
X111710425Y-55072293D01*
X111663071Y-55019396D01*
X111651832Y-54949295D01*
X111680277Y-54884245D01*
X111703564Y-54862693D01*
X111712304Y-54856447D01*
X111883711Y-54733957D01*
X112046030Y-54570217D01*
X112133043Y-54446180D01*
X112175375Y-54385836D01*
X112175376Y-54385834D01*
X112178439Y-54381468D01*
X112277153Y-54173108D01*
X112339349Y-53951094D01*
X112363249Y-53721776D01*
X112363500Y-53695600D01*
X112363250Y-53692652D01*
X112344458Y-53471176D01*
X112344457Y-53471172D01*
X112344007Y-53465865D01*
X112286084Y-53242698D01*
X112234731Y-53128698D01*
X112193578Y-53037343D01*
X112193577Y-53037341D01*
X112191388Y-53032482D01*
X112062627Y-52841226D01*
X111903482Y-52674399D01*
X111718504Y-52536771D01*
X111713743Y-52534351D01*
X111710425Y-52532293D01*
X111663071Y-52479396D01*
X111651832Y-52409295D01*
X111680277Y-52344245D01*
X111703564Y-52322693D01*
X111712304Y-52316447D01*
X111883711Y-52193957D01*
X112046030Y-52030217D01*
X112133043Y-51906180D01*
X112175375Y-51845836D01*
X112175376Y-51845834D01*
X112178439Y-51841468D01*
X112277153Y-51633108D01*
X112339349Y-51411094D01*
X112363249Y-51181776D01*
X112363500Y-51155600D01*
X112363250Y-51152652D01*
X112344458Y-50931176D01*
X112344457Y-50931172D01*
X112344007Y-50925865D01*
X112286084Y-50702698D01*
X112234731Y-50588698D01*
X112193578Y-50497343D01*
X112193577Y-50497341D01*
X112191388Y-50492482D01*
X112062627Y-50301226D01*
X111903482Y-50134399D01*
X111718504Y-49996771D01*
X111713743Y-49994351D01*
X111710425Y-49992293D01*
X111663071Y-49939396D01*
X111651832Y-49869295D01*
X111680277Y-49804245D01*
X111703564Y-49782693D01*
X111712304Y-49776447D01*
X111883711Y-49653957D01*
X112046030Y-49490217D01*
X112133043Y-49366180D01*
X112175375Y-49305836D01*
X112175376Y-49305834D01*
X112178439Y-49301468D01*
X112277153Y-49093108D01*
X112339349Y-48871094D01*
X112363249Y-48641776D01*
X112363500Y-48615600D01*
X112363250Y-48612652D01*
X112344458Y-48391176D01*
X112344457Y-48391172D01*
X112344007Y-48385865D01*
X112286084Y-48162698D01*
X112234731Y-48048698D01*
X112193578Y-47957343D01*
X112193577Y-47957341D01*
X112191388Y-47952482D01*
X112062627Y-47761226D01*
X111903482Y-47594399D01*
X111718504Y-47456771D01*
X111713743Y-47454351D01*
X111710425Y-47452293D01*
X111663071Y-47399396D01*
X111651832Y-47329295D01*
X111680277Y-47264245D01*
X111703564Y-47242693D01*
X111712304Y-47236447D01*
X111883711Y-47113957D01*
X112038919Y-46957390D01*
X112042277Y-46954003D01*
X112042278Y-46954002D01*
X112046030Y-46950217D01*
X112130103Y-46830371D01*
X112175375Y-46765836D01*
X112175376Y-46765834D01*
X112178439Y-46761468D01*
X112277153Y-46553108D01*
X112339349Y-46331094D01*
X112363249Y-46101776D01*
X112363500Y-46075600D01*
X112354845Y-45973596D01*
X112344458Y-45851176D01*
X112344457Y-45851172D01*
X112344007Y-45845865D01*
X112286084Y-45622698D01*
X112234731Y-45508698D01*
X112193578Y-45417343D01*
X112193577Y-45417341D01*
X112191388Y-45412482D01*
X112062627Y-45221226D01*
X111903482Y-45054399D01*
X111718504Y-44916771D01*
X111713743Y-44914351D01*
X111710425Y-44912293D01*
X111663071Y-44859396D01*
X111651832Y-44789295D01*
X111680277Y-44724245D01*
X111703564Y-44702693D01*
X111761935Y-44660980D01*
X111883711Y-44573957D01*
X112046030Y-44410217D01*
X112086123Y-44353064D01*
X112175375Y-44225836D01*
X112175376Y-44225834D01*
X112178439Y-44221468D01*
X112218590Y-44136720D01*
X112258393Y-44088734D01*
X112285377Y-44069128D01*
X112295291Y-44062616D01*
X112333341Y-44040114D01*
X112333759Y-44039745D01*
X112347842Y-44025662D01*
X112362867Y-44012828D01*
X112379083Y-44001046D01*
X112407030Y-43967264D01*
X112415019Y-43958485D01*
X113676513Y-42696991D01*
X113684601Y-42689631D01*
X113690995Y-42685573D01*
X113736870Y-42636721D01*
X113739624Y-42633880D01*
X113759938Y-42613566D01*
X113762583Y-42610155D01*
X113770289Y-42601133D01*
X113795133Y-42574677D01*
X113800557Y-42568901D01*
X113804376Y-42561955D01*
X113810318Y-42551147D01*
X113821172Y-42534623D01*
X113828723Y-42524889D01*
X113828724Y-42524887D01*
X113833583Y-42518623D01*
X113851146Y-42478039D01*
X113856353Y-42467410D01*
X113877662Y-42428648D01*
X113882701Y-42409022D01*
X113889102Y-42390328D01*
X113893999Y-42379012D01*
X113897148Y-42371735D01*
X113904064Y-42328069D01*
X113906471Y-42316444D01*
X113915988Y-42279377D01*
X113917465Y-42273625D01*
X113917500Y-42273069D01*
X113917500Y-42253153D01*
X113919051Y-42233442D01*
X113920945Y-42221484D01*
X113922185Y-42213655D01*
X113918059Y-42170006D01*
X113917500Y-42158149D01*
X113917500Y-40956100D01*
X113937502Y-40887979D01*
X113991158Y-40841486D01*
X114043500Y-40830100D01*
X114186616Y-40830100D01*
X114197520Y-40830614D01*
X114204911Y-40832266D01*
X114212837Y-40832017D01*
X114212838Y-40832017D01*
X114271866Y-40830162D01*
X114275823Y-40830100D01*
X114304578Y-40830100D01*
X114308845Y-40829561D01*
X114320687Y-40828628D01*
X114352335Y-40827633D01*
X114356960Y-40827488D01*
X114364883Y-40827239D01*
X114384334Y-40821588D01*
X114403695Y-40817578D01*
X114406420Y-40817234D01*
X114415930Y-40816033D01*
X114415933Y-40816032D01*
X114423788Y-40815040D01*
X114431153Y-40812124D01*
X114431157Y-40812123D01*
X114464901Y-40798763D01*
X114476130Y-40794918D01*
X114518578Y-40782586D01*
X114525406Y-40778548D01*
X114536011Y-40772277D01*
X114553762Y-40763581D01*
X114565226Y-40759042D01*
X114565229Y-40759040D01*
X114572600Y-40756122D01*
X114608368Y-40730135D01*
X114618291Y-40723616D01*
X114656341Y-40701114D01*
X114656759Y-40700745D01*
X114670842Y-40686662D01*
X114685867Y-40673828D01*
X114702083Y-40662046D01*
X114730030Y-40628264D01*
X114738019Y-40619485D01*
X115495850Y-39861654D01*
X115558162Y-39827628D01*
X115606608Y-39826625D01*
X115722457Y-39846844D01*
X115728063Y-39846815D01*
X115728067Y-39846815D01*
X115826301Y-39846300D01*
X115938200Y-39845714D01*
X115943718Y-39844691D01*
X115943721Y-39844691D01*
X116144815Y-39807421D01*
X116144816Y-39807421D01*
X116150334Y-39806398D01*
X116155579Y-39804416D01*
X116155583Y-39804415D01*
X116318416Y-39742885D01*
X116352153Y-39730137D01*
X116537277Y-39619342D01*
X116541497Y-39615660D01*
X116541502Y-39615657D01*
X116695626Y-39481206D01*
X116699856Y-39477516D01*
X116772178Y-39387244D01*
X116831244Y-39313518D01*
X116831247Y-39313513D01*
X116834750Y-39309141D01*
X116937695Y-39119539D01*
X116999351Y-38933108D01*
X117003678Y-38920026D01*
X117003678Y-38920025D01*
X117005438Y-38914704D01*
X117035837Y-38701110D01*
X117037500Y-38637600D01*
X117018321Y-38422708D01*
X116981158Y-38286860D01*
X116962874Y-38220024D01*
X116962873Y-38220020D01*
X116961392Y-38214608D01*
X116868510Y-38019878D01*
X116856165Y-38002698D01*
X116745890Y-37849232D01*
X116745885Y-37849227D01*
X116742614Y-37844674D01*
X116587680Y-37694533D01*
X116466358Y-37613008D01*
X116413261Y-37577328D01*
X116413255Y-37577325D01*
X116408608Y-37574202D01*
X116211057Y-37487483D01*
X116064376Y-37452268D01*
X116006729Y-37438428D01*
X116006728Y-37438428D01*
X116001272Y-37437118D01*
X115898911Y-37431216D01*
X115791490Y-37425022D01*
X115791487Y-37425022D01*
X115785883Y-37424699D01*
X115571699Y-37450618D01*
X115365490Y-37514056D01*
X115360510Y-37516626D01*
X115360506Y-37516628D01*
X115204078Y-37597367D01*
X115173774Y-37613008D01*
X115002611Y-37744346D01*
X114857411Y-37903919D01*
X114742764Y-38086683D01*
X114662293Y-38286860D01*
X114661156Y-38292351D01*
X114661155Y-38292354D01*
X114621928Y-38481776D01*
X114618542Y-38498124D01*
X114612895Y-38713796D01*
X114624634Y-38790513D01*
X114634966Y-38858031D01*
X114625498Y-38928394D01*
X114599511Y-38966185D01*
X114039501Y-39526195D01*
X113977189Y-39560221D01*
X113950406Y-39563100D01*
X113055594Y-39563100D01*
X112987473Y-39543098D01*
X112966499Y-39526195D01*
X112350334Y-38910030D01*
X112316308Y-38847718D01*
X112318100Y-38786946D01*
X112337908Y-38716240D01*
X112337909Y-38716233D01*
X112339349Y-38711094D01*
X112363249Y-38481776D01*
X112363500Y-38455600D01*
X112357482Y-38384675D01*
X112344458Y-38231176D01*
X112344457Y-38231172D01*
X112344007Y-38225865D01*
X112341086Y-38214608D01*
X112287426Y-38007869D01*
X112286084Y-38002698D01*
X112234731Y-37888698D01*
X112193578Y-37797343D01*
X112193577Y-37797341D01*
X112191388Y-37792482D01*
X112062627Y-37601226D01*
X112039830Y-37577328D01*
X111993097Y-37528339D01*
X111903482Y-37434399D01*
X111718504Y-37296771D01*
X111713743Y-37294351D01*
X111710425Y-37292293D01*
X111663071Y-37239396D01*
X111651832Y-37169295D01*
X111680277Y-37104245D01*
X111703564Y-37082693D01*
X111712304Y-37076447D01*
X111883711Y-36953957D01*
X112046030Y-36790217D01*
X112133043Y-36666180D01*
X112175375Y-36605836D01*
X112175376Y-36605834D01*
X112178439Y-36601468D01*
X112188860Y-36579473D01*
X112274868Y-36397931D01*
X112277153Y-36393108D01*
X112339349Y-36171094D01*
X112363249Y-35941776D01*
X112363500Y-35915600D01*
X112363250Y-35912652D01*
X112344458Y-35691176D01*
X112344457Y-35691172D01*
X112344007Y-35685865D01*
X112286084Y-35462698D01*
X112234731Y-35348698D01*
X112193578Y-35257343D01*
X112193577Y-35257341D01*
X112191388Y-35252482D01*
X112062627Y-35061226D01*
X111903482Y-34894399D01*
X111718504Y-34756771D01*
X111713743Y-34754351D01*
X111710425Y-34752293D01*
X111663071Y-34699396D01*
X111651832Y-34629295D01*
X111680277Y-34564245D01*
X111703564Y-34542693D01*
X111713410Y-34535657D01*
X111883711Y-34413957D01*
X112046030Y-34250217D01*
X112049090Y-34245855D01*
X112049095Y-34245849D01*
X112177547Y-34062740D01*
X112233043Y-34018459D01*
X112280697Y-34009100D01*
X114617923Y-34009100D01*
X114686044Y-34029102D01*
X114728018Y-34073822D01*
X114820338Y-34239688D01*
X114823891Y-34244028D01*
X114823893Y-34244032D01*
X114912374Y-34352134D01*
X114956987Y-34406641D01*
X115121042Y-34546758D01*
X115125887Y-34549589D01*
X115302470Y-34652776D01*
X115302473Y-34652777D01*
X115307317Y-34655608D01*
X115312587Y-34657537D01*
X115312588Y-34657537D01*
X115504659Y-34727825D01*
X115504663Y-34727826D01*
X115509923Y-34729751D01*
X115515439Y-34730714D01*
X115515444Y-34730715D01*
X115716933Y-34765880D01*
X115716934Y-34765880D01*
X115722457Y-34766844D01*
X115728063Y-34766815D01*
X115728067Y-34766815D01*
X115826301Y-34766300D01*
X115938200Y-34765714D01*
X115943718Y-34764691D01*
X115943721Y-34764691D01*
X116144815Y-34727421D01*
X116144816Y-34727421D01*
X116150334Y-34726398D01*
X116155579Y-34724416D01*
X116155583Y-34724415D01*
X116337674Y-34655608D01*
X116352153Y-34650137D01*
X116537277Y-34539342D01*
X116541497Y-34535660D01*
X116541502Y-34535657D01*
X116695626Y-34401206D01*
X116699856Y-34397516D01*
X116772178Y-34307244D01*
X116831244Y-34233518D01*
X116831247Y-34233513D01*
X116834750Y-34229141D01*
X116937695Y-34039539D01*
X117005438Y-33834704D01*
X117035837Y-33621110D01*
X117037500Y-33557600D01*
X117018321Y-33342708D01*
X116984579Y-33219366D01*
X116962874Y-33140024D01*
X116962873Y-33140020D01*
X116961392Y-33134608D01*
X116868510Y-32939878D01*
X116856165Y-32922698D01*
X116745890Y-32769232D01*
X116745885Y-32769227D01*
X116742614Y-32764674D01*
X116587680Y-32614533D01*
X116466358Y-32533008D01*
X116413261Y-32497328D01*
X116413255Y-32497325D01*
X116408608Y-32494202D01*
X116211057Y-32407483D01*
X116064376Y-32372268D01*
X116006729Y-32358428D01*
X116006728Y-32358428D01*
X116001272Y-32357118D01*
X115898911Y-32351216D01*
X115791490Y-32345022D01*
X115791487Y-32345022D01*
X115785883Y-32344699D01*
X115571699Y-32370618D01*
X115365490Y-32434056D01*
X115360510Y-32436626D01*
X115360506Y-32436628D01*
X115204078Y-32517367D01*
X115173774Y-32533008D01*
X115002611Y-32664346D01*
X114998833Y-32668498D01*
X114969349Y-32700900D01*
X114908709Y-32737822D01*
X114876156Y-32742100D01*
X112278394Y-32742100D01*
X112210273Y-32722098D01*
X112173874Y-32686467D01*
X112115107Y-32599177D01*
X112062627Y-32521226D01*
X112039830Y-32497328D01*
X111993097Y-32448339D01*
X111903482Y-32354399D01*
X111718504Y-32216771D01*
X111713743Y-32214351D01*
X111710425Y-32212293D01*
X111663071Y-32159396D01*
X111651832Y-32089295D01*
X111680277Y-32024245D01*
X111703564Y-32002693D01*
X111712304Y-31996447D01*
X111883711Y-31873957D01*
X112046030Y-31710217D01*
X112133043Y-31586180D01*
X112175375Y-31525836D01*
X112175376Y-31525834D01*
X112178439Y-31521468D01*
X112277153Y-31313108D01*
X112339349Y-31091094D01*
X112363249Y-30861776D01*
X112363500Y-30835600D01*
X112363250Y-30832652D01*
X112344458Y-30611176D01*
X112344457Y-30611172D01*
X112344007Y-30605865D01*
X112286084Y-30382698D01*
X112234731Y-30268698D01*
X112193578Y-30177343D01*
X112193577Y-30177341D01*
X112191388Y-30172482D01*
X112062627Y-29981226D01*
X111903482Y-29814399D01*
X111718504Y-29676771D01*
X111713753Y-29674355D01*
X111713749Y-29674353D01*
X111517740Y-29574697D01*
X111517739Y-29574697D01*
X111512982Y-29572278D01*
X111372033Y-29528512D01*
X111297895Y-29505491D01*
X111297889Y-29505490D01*
X111292792Y-29503907D01*
X111187798Y-29489991D01*
X111069515Y-29474314D01*
X111069510Y-29474314D01*
X111064230Y-29473614D01*
X111058900Y-29473814D01*
X111058899Y-29473814D01*
X110949031Y-29477938D01*
X110833831Y-29482263D01*
X110751368Y-29499566D01*
X110613411Y-29528512D01*
X110613408Y-29528513D01*
X110608184Y-29529609D01*
X110393740Y-29614297D01*
X110196631Y-29733906D01*
X110192601Y-29737403D01*
X110099426Y-29818256D01*
X110022492Y-29885015D01*
X110019109Y-29889141D01*
X110019105Y-29889145D01*
X109946768Y-29977367D01*
X109876304Y-30063305D01*
X109762245Y-30263677D01*
X109683578Y-30480402D01*
X109682629Y-30485651D01*
X109682628Y-30485654D01*
X109660890Y-30605865D01*
X109642551Y-30707283D01*
X109642500Y-30712623D01*
X109641097Y-30858810D01*
X109640338Y-30937833D01*
X109677002Y-31165461D01*
X109751494Y-31383656D01*
X109861685Y-31586180D01*
X110004424Y-31767244D01*
X110008389Y-31770820D01*
X110171659Y-31918089D01*
X110171665Y-31918094D01*
X110175629Y-31921669D01*
X110180142Y-31924528D01*
X110180144Y-31924529D01*
X110298242Y-31999331D01*
X110345087Y-32052679D01*
X110355654Y-32122885D01*
X110326587Y-32187658D01*
X110296186Y-32213494D01*
X110201196Y-32271135D01*
X110201189Y-32271140D01*
X110196631Y-32273906D01*
X110192601Y-32277403D01*
X110044206Y-32406173D01*
X110022492Y-32425015D01*
X110019109Y-32429141D01*
X110019105Y-32429145D01*
X109933944Y-32533008D01*
X109876304Y-32603305D01*
X109873665Y-32607941D01*
X109873663Y-32607944D01*
X109867690Y-32618437D01*
X109762245Y-32803677D01*
X109683578Y-33020402D01*
X109682629Y-33025651D01*
X109682628Y-33025654D01*
X109660890Y-33145865D01*
X109642551Y-33247283D01*
X109642500Y-33252623D01*
X109641097Y-33398810D01*
X109640338Y-33477833D01*
X109677002Y-33705461D01*
X109751494Y-33923656D01*
X109861685Y-34126180D01*
X110004424Y-34307244D01*
X110008389Y-34310820D01*
X110171659Y-34458089D01*
X110171665Y-34458094D01*
X110175629Y-34461669D01*
X110180142Y-34464528D01*
X110180144Y-34464529D01*
X110298242Y-34539331D01*
X110345087Y-34592679D01*
X110355654Y-34662885D01*
X110326587Y-34727658D01*
X110296186Y-34753494D01*
X110201196Y-34811135D01*
X110201189Y-34811140D01*
X110196631Y-34813906D01*
X110192601Y-34817403D01*
X110099426Y-34898256D01*
X110022492Y-34965015D01*
X110019109Y-34969141D01*
X110019105Y-34969145D01*
X109946768Y-35057367D01*
X109876304Y-35143305D01*
X109762245Y-35343677D01*
X109683578Y-35560402D01*
X109682629Y-35565651D01*
X109682628Y-35565654D01*
X109660890Y-35685865D01*
X109642551Y-35787283D01*
X109642500Y-35792623D01*
X109641097Y-35938810D01*
X109640338Y-36017833D01*
X109677002Y-36245461D01*
X109751494Y-36463656D01*
X109861685Y-36666180D01*
X110004424Y-36847244D01*
X110008389Y-36850820D01*
X110171659Y-36998089D01*
X110171665Y-36998094D01*
X110175629Y-37001669D01*
X110180142Y-37004528D01*
X110180144Y-37004529D01*
X110298242Y-37079331D01*
X110345087Y-37132679D01*
X110355654Y-37202885D01*
X110326587Y-37267658D01*
X110296186Y-37293494D01*
X110201196Y-37351135D01*
X110201189Y-37351140D01*
X110196631Y-37353906D01*
X110192601Y-37357403D01*
X110032538Y-37496298D01*
X110022492Y-37505015D01*
X110019109Y-37509141D01*
X110019105Y-37509145D01*
X109933944Y-37613008D01*
X109876304Y-37683305D01*
X109873665Y-37687941D01*
X109873663Y-37687944D01*
X109820071Y-37782092D01*
X109762245Y-37883677D01*
X109683578Y-38100402D01*
X109682629Y-38105651D01*
X109682628Y-38105654D01*
X109660890Y-38225865D01*
X109642551Y-38327283D01*
X109642500Y-38332623D01*
X109641097Y-38478810D01*
X109640338Y-38557833D01*
X109677002Y-38785461D01*
X109751494Y-39003656D01*
X109861685Y-39206180D01*
X110004424Y-39387244D01*
X110008389Y-39390820D01*
X110171659Y-39538089D01*
X110171665Y-39538094D01*
X110175629Y-39541669D01*
X110180142Y-39544528D01*
X110180144Y-39544529D01*
X110298242Y-39619331D01*
X110345087Y-39672679D01*
X110355654Y-39742885D01*
X110326587Y-39807658D01*
X110296186Y-39833494D01*
X110201196Y-39891135D01*
X110201189Y-39891140D01*
X110196631Y-39893906D01*
X110192601Y-39897403D01*
X110099426Y-39978256D01*
X110022492Y-40045015D01*
X110019109Y-40049141D01*
X110019105Y-40049145D01*
X109946768Y-40137367D01*
X109876304Y-40223305D01*
X109762245Y-40423677D01*
X109683578Y-40640402D01*
X109682629Y-40645651D01*
X109682628Y-40645654D01*
X109649174Y-40830659D01*
X109642551Y-40867283D01*
X109641612Y-40965099D01*
X109641097Y-41018810D01*
X109640338Y-41097833D01*
X109677002Y-41325461D01*
X109751494Y-41543656D01*
X109861685Y-41746180D01*
X110004424Y-41927244D01*
X110026468Y-41947127D01*
X110171659Y-42078089D01*
X110171665Y-42078094D01*
X110175629Y-42081669D01*
X110180142Y-42084528D01*
X110180144Y-42084529D01*
X110298242Y-42159331D01*
X110345087Y-42212679D01*
X110355654Y-42282885D01*
X110326587Y-42347658D01*
X110296186Y-42373494D01*
X110201196Y-42431135D01*
X110201189Y-42431140D01*
X110196631Y-42433906D01*
X110192601Y-42437403D01*
X110034406Y-42574677D01*
X110022492Y-42585015D01*
X110019109Y-42589141D01*
X110019105Y-42589145D01*
X109982425Y-42633880D01*
X109876304Y-42763305D01*
X109762245Y-42963677D01*
X109683578Y-43180402D01*
X109682629Y-43185651D01*
X109682628Y-43185654D01*
X109660890Y-43305865D01*
X109642551Y-43407283D01*
X109642500Y-43412623D01*
X109641097Y-43558810D01*
X109640338Y-43637833D01*
X109641187Y-43643104D01*
X109665024Y-43791094D01*
X109677002Y-43865461D01*
X109678725Y-43870507D01*
X109679532Y-43873744D01*
X109676606Y-43944681D01*
X109646371Y-43993325D01*
X109432476Y-44207220D01*
X109424388Y-44214580D01*
X109417994Y-44218638D01*
X109412569Y-44224415D01*
X109372120Y-44267489D01*
X109369365Y-44270331D01*
X109349051Y-44290645D01*
X109346406Y-44294056D01*
X109338702Y-44303076D01*
X109308432Y-44335310D01*
X109304615Y-44342254D01*
X109304613Y-44342256D01*
X109298671Y-44353064D01*
X109287817Y-44369588D01*
X109275406Y-44385588D01*
X109272259Y-44392859D01*
X109272259Y-44392860D01*
X109257848Y-44426162D01*
X109252627Y-44436818D01*
X109231327Y-44475563D01*
X109229355Y-44483246D01*
X109229354Y-44483247D01*
X109226290Y-44495179D01*
X109219886Y-44513883D01*
X109214990Y-44525196D01*
X109214988Y-44525203D01*
X109211841Y-44532475D01*
X109210602Y-44540299D01*
X109210601Y-44540302D01*
X109204924Y-44576146D01*
X109202517Y-44587767D01*
X109193813Y-44621669D01*
X109191524Y-44630586D01*
X109191489Y-44631142D01*
X109191489Y-44651063D01*
X109189938Y-44670773D01*
X109186805Y-44690555D01*
X109187551Y-44698447D01*
X109190930Y-44734193D01*
X109191489Y-44746051D01*
X109191489Y-65580205D01*
X109190975Y-65591109D01*
X109189323Y-65598500D01*
X109189572Y-65606427D01*
X109189572Y-65606428D01*
X109190380Y-65632143D01*
X109172527Y-65700859D01*
X109120358Y-65749013D01*
X109064442Y-65762100D01*
X98295982Y-65762100D01*
X98227861Y-65742098D01*
X98181368Y-65688442D01*
X98170044Y-65640057D01*
X98169562Y-65624715D01*
X98169500Y-65620758D01*
X98169500Y-65592022D01*
X98168961Y-65587751D01*
X98168028Y-65575913D01*
X98166888Y-65539642D01*
X98166639Y-65531717D01*
X98160987Y-65512261D01*
X98156978Y-65492902D01*
X98155434Y-65480679D01*
X98155434Y-65480678D01*
X98154440Y-65472812D01*
X98149230Y-65459654D01*
X98138168Y-65431711D01*
X98134323Y-65420482D01*
X98124199Y-65385635D01*
X98124198Y-65385634D01*
X98121987Y-65378022D01*
X98111674Y-65360583D01*
X98102978Y-65342831D01*
X98098442Y-65331375D01*
X98095522Y-65324000D01*
X98069533Y-65288229D01*
X98063016Y-65278308D01*
X98043548Y-65245390D01*
X98040514Y-65240259D01*
X98040145Y-65239841D01*
X98026062Y-65225758D01*
X98013228Y-65210733D01*
X98001446Y-65194517D01*
X97967664Y-65166570D01*
X97958885Y-65158581D01*
X97570097Y-64769793D01*
X98559636Y-64769793D01*
X98565708Y-64777905D01*
X98697034Y-64861086D01*
X98706480Y-64866003D01*
X98917128Y-64953904D01*
X98927256Y-64957155D01*
X99149701Y-65008306D01*
X99160240Y-65009806D01*
X99388119Y-65022746D01*
X99398762Y-65022449D01*
X99625563Y-64996809D01*
X99635998Y-64994725D01*
X99855256Y-64931231D01*
X99865173Y-64927424D01*
X100070598Y-64827896D01*
X100079736Y-64822470D01*
X100139022Y-64780105D01*
X100147425Y-64769382D01*
X100140446Y-64756257D01*
X99366811Y-63982621D01*
X99352868Y-63975008D01*
X99351034Y-63975139D01*
X99344420Y-63979390D01*
X98566393Y-64757418D01*
X98559636Y-64769793D01*
X97570097Y-64769793D01*
X96511507Y-63711203D01*
X97945028Y-63711203D01*
X97945826Y-63721816D01*
X97982124Y-63947174D01*
X97984695Y-63957483D01*
X98058445Y-64173503D01*
X98062719Y-64183239D01*
X98171809Y-64383740D01*
X98177664Y-64392620D01*
X98181923Y-64398022D01*
X98193849Y-64406493D01*
X98205382Y-64400007D01*
X98981979Y-63623411D01*
X98988356Y-63611732D01*
X99718408Y-63611732D01*
X99718539Y-63613566D01*
X99722790Y-63620180D01*
X100500057Y-64397446D01*
X100511845Y-64403883D01*
X100521260Y-64396605D01*
X100587389Y-64370771D01*
X100656988Y-64384790D01*
X100697266Y-64418290D01*
X100821916Y-64576407D01*
X100999399Y-64736495D01*
X101003912Y-64739354D01*
X101003914Y-64739355D01*
X101068250Y-64780105D01*
X101201318Y-64864390D01*
X101279608Y-64897059D01*
X101415835Y-64953904D01*
X101421900Y-64956435D01*
X101550246Y-64985948D01*
X101649629Y-65008801D01*
X101649633Y-65008802D01*
X101654836Y-65009998D01*
X101660169Y-65010301D01*
X101660170Y-65010301D01*
X101774151Y-65016773D01*
X101893467Y-65023549D01*
X101898774Y-65022949D01*
X101898776Y-65022949D01*
X102028300Y-65008306D01*
X102130970Y-64996699D01*
X102136085Y-64995218D01*
X102136089Y-64995217D01*
X102355430Y-64931700D01*
X102355435Y-64931698D01*
X102360553Y-64930216D01*
X102575652Y-64826001D01*
X102700903Y-64736495D01*
X102765771Y-64690140D01*
X102765773Y-64690138D01*
X102770117Y-64687034D01*
X102938388Y-64517289D01*
X102999775Y-64429782D01*
X103055271Y-64385502D01*
X103125897Y-64378255D01*
X103189229Y-64410341D01*
X103201875Y-64424137D01*
X103271871Y-64512926D01*
X103321916Y-64576407D01*
X103499399Y-64736495D01*
X103503912Y-64739354D01*
X103503914Y-64739355D01*
X103568250Y-64780105D01*
X103701318Y-64864390D01*
X103779608Y-64897059D01*
X103915835Y-64953904D01*
X103921900Y-64956435D01*
X104050246Y-64985948D01*
X104149629Y-65008801D01*
X104149633Y-65008802D01*
X104154836Y-65009998D01*
X104160169Y-65010301D01*
X104160170Y-65010301D01*
X104274151Y-65016773D01*
X104393467Y-65023549D01*
X104398774Y-65022949D01*
X104398776Y-65022949D01*
X104528300Y-65008306D01*
X104630970Y-64996699D01*
X104636085Y-64995218D01*
X104636089Y-64995217D01*
X104855430Y-64931700D01*
X104855435Y-64931698D01*
X104860553Y-64930216D01*
X105075652Y-64826001D01*
X105200903Y-64736495D01*
X105265771Y-64690140D01*
X105265773Y-64690138D01*
X105270117Y-64687034D01*
X105438388Y-64517289D01*
X105517943Y-64403883D01*
X105572588Y-64325987D01*
X105572589Y-64325985D01*
X105575652Y-64321619D01*
X105677986Y-64105618D01*
X105742463Y-63875463D01*
X105744534Y-63855600D01*
X105766933Y-63640683D01*
X105766933Y-63640680D01*
X105767240Y-63637736D01*
X105767500Y-63610600D01*
X105747292Y-63372440D01*
X105724254Y-63283677D01*
X105688586Y-63146255D01*
X105688584Y-63146250D01*
X105687245Y-63141090D01*
X105676525Y-63117292D01*
X105591267Y-62928026D01*
X105591266Y-62928023D01*
X105589077Y-62923165D01*
X105455594Y-62724896D01*
X105290613Y-62551951D01*
X105264711Y-62532679D01*
X105103134Y-62412463D01*
X105098852Y-62409277D01*
X105094101Y-62406861D01*
X105094097Y-62406859D01*
X104890549Y-62303370D01*
X104890548Y-62303370D01*
X104885793Y-62300952D01*
X104657528Y-62230074D01*
X104636210Y-62227248D01*
X104425868Y-62199369D01*
X104425865Y-62199369D01*
X104420585Y-62198669D01*
X104415256Y-62198869D01*
X104415255Y-62198869D01*
X104318684Y-62202495D01*
X104181738Y-62207636D01*
X104095316Y-62225769D01*
X103953043Y-62255621D01*
X103953040Y-62255622D01*
X103947816Y-62256718D01*
X103725508Y-62344511D01*
X103720944Y-62347280D01*
X103720945Y-62347280D01*
X103525732Y-62465738D01*
X103525729Y-62465740D01*
X103521171Y-62468506D01*
X103340647Y-62625157D01*
X103337264Y-62629283D01*
X103337259Y-62629288D01*
X103199709Y-62797044D01*
X103141050Y-62837038D01*
X103070079Y-62838970D01*
X103009331Y-62802226D01*
X102997755Y-62787520D01*
X102977479Y-62757403D01*
X102955594Y-62724896D01*
X102790613Y-62551951D01*
X102764711Y-62532679D01*
X102603134Y-62412463D01*
X102598852Y-62409277D01*
X102594101Y-62406861D01*
X102594097Y-62406859D01*
X102390549Y-62303370D01*
X102390548Y-62303370D01*
X102385793Y-62300952D01*
X102157528Y-62230074D01*
X102136210Y-62227248D01*
X101925868Y-62199369D01*
X101925865Y-62199369D01*
X101920585Y-62198669D01*
X101915256Y-62198869D01*
X101915255Y-62198869D01*
X101818684Y-62202495D01*
X101681738Y-62207636D01*
X101595316Y-62225769D01*
X101453043Y-62255621D01*
X101453040Y-62255622D01*
X101447816Y-62256718D01*
X101225508Y-62344511D01*
X101220944Y-62347280D01*
X101220945Y-62347280D01*
X101025732Y-62465738D01*
X101025729Y-62465740D01*
X101021171Y-62468506D01*
X100840647Y-62625157D01*
X100837264Y-62629283D01*
X100837259Y-62629288D01*
X100694430Y-62803482D01*
X100635771Y-62843476D01*
X100564800Y-62845408D01*
X100516536Y-62820556D01*
X100513012Y-62817632D01*
X100498954Y-62824857D01*
X99726021Y-63597789D01*
X99718408Y-63611732D01*
X98988356Y-63611732D01*
X98989592Y-63609468D01*
X98989461Y-63607634D01*
X98985210Y-63601020D01*
X98204547Y-62820358D01*
X98191366Y-62813160D01*
X98185462Y-62817379D01*
X98073951Y-63013274D01*
X98069488Y-63022934D01*
X97991608Y-63237491D01*
X97988837Y-63247759D01*
X97948221Y-63472371D01*
X97947220Y-63482964D01*
X97945028Y-63711203D01*
X96511507Y-63711203D01*
X95251330Y-62451026D01*
X98558599Y-62451026D01*
X98562279Y-62459668D01*
X99341189Y-63238579D01*
X99355132Y-63246192D01*
X99356966Y-63246061D01*
X99363580Y-63241810D01*
X100141456Y-62463933D01*
X100148183Y-62451614D01*
X100139653Y-62440254D01*
X100102867Y-62412885D01*
X100093837Y-62407286D01*
X99890361Y-62303833D01*
X99880510Y-62299833D01*
X99662514Y-62232144D01*
X99652133Y-62229861D01*
X99425846Y-62199869D01*
X99415230Y-62199369D01*
X99187130Y-62207932D01*
X99176581Y-62209227D01*
X98953187Y-62256100D01*
X98942990Y-62259160D01*
X98730699Y-62342997D01*
X98721167Y-62347728D01*
X98568106Y-62440608D01*
X98558599Y-62451026D01*
X95251330Y-62451026D01*
X94570334Y-61770030D01*
X94536308Y-61707718D01*
X94538100Y-61646946D01*
X94557908Y-61576240D01*
X94557909Y-61576233D01*
X94559349Y-61571094D01*
X94583249Y-61341776D01*
X94583500Y-61315600D01*
X94583250Y-61312652D01*
X94564458Y-61091176D01*
X94564457Y-61091172D01*
X94564007Y-61085865D01*
X94506084Y-60862698D01*
X94454731Y-60748698D01*
X94413578Y-60657343D01*
X94413577Y-60657341D01*
X94411388Y-60652482D01*
X94282627Y-60461226D01*
X94123482Y-60294399D01*
X93938504Y-60156771D01*
X93933743Y-60154351D01*
X93930425Y-60152293D01*
X93883071Y-60099396D01*
X93871832Y-60029295D01*
X93900277Y-59964245D01*
X93923564Y-59942693D01*
X93932304Y-59936447D01*
X94103711Y-59813957D01*
X94266030Y-59650217D01*
X94353043Y-59526180D01*
X94395375Y-59465836D01*
X94395376Y-59465834D01*
X94398439Y-59461468D01*
X94497153Y-59253108D01*
X94559349Y-59031094D01*
X94562629Y-58999628D01*
X94582941Y-58804727D01*
X94583249Y-58801776D01*
X94583500Y-58775600D01*
X94579672Y-58730487D01*
X94564458Y-58551176D01*
X94564457Y-58551172D01*
X94564007Y-58545865D01*
X94506084Y-58322698D01*
X94454731Y-58208698D01*
X94413578Y-58117343D01*
X94413577Y-58117341D01*
X94411388Y-58112482D01*
X94282627Y-57921226D01*
X94123482Y-57754399D01*
X93938504Y-57616771D01*
X93933743Y-57614351D01*
X93930425Y-57612293D01*
X93883071Y-57559396D01*
X93871832Y-57489295D01*
X93900277Y-57424245D01*
X93923564Y-57402693D01*
X93932304Y-57396447D01*
X94103711Y-57273957D01*
X94266030Y-57110217D01*
X94353043Y-56986180D01*
X94395375Y-56925836D01*
X94395376Y-56925834D01*
X94398439Y-56921468D01*
X94497153Y-56713108D01*
X94525870Y-56610600D01*
X94940500Y-56610600D01*
X94960320Y-56925625D01*
X95019466Y-57235682D01*
X95020693Y-57239458D01*
X95087491Y-57445039D01*
X95117007Y-57535881D01*
X95118694Y-57539467D01*
X95118696Y-57539471D01*
X95249715Y-57817902D01*
X95249719Y-57817909D01*
X95251403Y-57821488D01*
X95420536Y-58087998D01*
X95621737Y-58331209D01*
X95851835Y-58547285D01*
X96107199Y-58732818D01*
X96110668Y-58734725D01*
X96110671Y-58734727D01*
X96361265Y-58872492D01*
X96383804Y-58884883D01*
X96677286Y-59001081D01*
X96983017Y-59079579D01*
X97296176Y-59119140D01*
X97611824Y-59119140D01*
X97924983Y-59079579D01*
X98230714Y-59001081D01*
X98524196Y-58884883D01*
X98546736Y-58872492D01*
X98797329Y-58734727D01*
X98797332Y-58734725D01*
X98800801Y-58732818D01*
X99056165Y-58547285D01*
X99286263Y-58331209D01*
X99487464Y-58087998D01*
X99656597Y-57821488D01*
X99658281Y-57817909D01*
X99658285Y-57817902D01*
X99789304Y-57539471D01*
X99789306Y-57539467D01*
X99790993Y-57535881D01*
X99820510Y-57445039D01*
X99887307Y-57239458D01*
X99888534Y-57235682D01*
X99947680Y-56925625D01*
X99967500Y-56610600D01*
X103740500Y-56610600D01*
X103760320Y-56925625D01*
X103819466Y-57235682D01*
X103820693Y-57239458D01*
X103887491Y-57445039D01*
X103917007Y-57535881D01*
X103918694Y-57539467D01*
X103918696Y-57539471D01*
X104049715Y-57817902D01*
X104049719Y-57817909D01*
X104051403Y-57821488D01*
X104220536Y-58087998D01*
X104421737Y-58331209D01*
X104651835Y-58547285D01*
X104907199Y-58732818D01*
X104910668Y-58734725D01*
X104910671Y-58734727D01*
X105161265Y-58872492D01*
X105183804Y-58884883D01*
X105477286Y-59001081D01*
X105783017Y-59079579D01*
X106096176Y-59119140D01*
X106411824Y-59119140D01*
X106724983Y-59079579D01*
X107030714Y-59001081D01*
X107324196Y-58884883D01*
X107346736Y-58872492D01*
X107597329Y-58734727D01*
X107597332Y-58734725D01*
X107600801Y-58732818D01*
X107856165Y-58547285D01*
X108086263Y-58331209D01*
X108287464Y-58087998D01*
X108456597Y-57821488D01*
X108458281Y-57817909D01*
X108458285Y-57817902D01*
X108589304Y-57539471D01*
X108589306Y-57539467D01*
X108590993Y-57535881D01*
X108620510Y-57445039D01*
X108687307Y-57239458D01*
X108688534Y-57235682D01*
X108747680Y-56925625D01*
X108767500Y-56610600D01*
X108747680Y-56295575D01*
X108688534Y-55985518D01*
X108624314Y-55787869D01*
X108592219Y-55689092D01*
X108592219Y-55689091D01*
X108590993Y-55685319D01*
X108580809Y-55663677D01*
X108458285Y-55403298D01*
X108458281Y-55403291D01*
X108456597Y-55399712D01*
X108287464Y-55133202D01*
X108086263Y-54889991D01*
X107856165Y-54673915D01*
X107600801Y-54488382D01*
X107597329Y-54486473D01*
X107327658Y-54338220D01*
X107327655Y-54338219D01*
X107324196Y-54336317D01*
X107030714Y-54220119D01*
X106724983Y-54141621D01*
X106411824Y-54102060D01*
X106096176Y-54102060D01*
X105783017Y-54141621D01*
X105477286Y-54220119D01*
X105183804Y-54336317D01*
X105180345Y-54338219D01*
X105180342Y-54338220D01*
X104910671Y-54486473D01*
X104907199Y-54488382D01*
X104651835Y-54673915D01*
X104421737Y-54889991D01*
X104220536Y-55133202D01*
X104051403Y-55399712D01*
X104049719Y-55403291D01*
X104049715Y-55403298D01*
X103927191Y-55663677D01*
X103917007Y-55685319D01*
X103915781Y-55689091D01*
X103915781Y-55689092D01*
X103883686Y-55787869D01*
X103819466Y-55985518D01*
X103760320Y-56295575D01*
X103740500Y-56610600D01*
X99967500Y-56610600D01*
X99947680Y-56295575D01*
X99888534Y-55985518D01*
X99824314Y-55787869D01*
X99792219Y-55689092D01*
X99792219Y-55689091D01*
X99790993Y-55685319D01*
X99780809Y-55663677D01*
X99658285Y-55403298D01*
X99658281Y-55403291D01*
X99656597Y-55399712D01*
X99487464Y-55133202D01*
X99286263Y-54889991D01*
X99056165Y-54673915D01*
X98800801Y-54488382D01*
X98797329Y-54486473D01*
X98527658Y-54338220D01*
X98527655Y-54338219D01*
X98524196Y-54336317D01*
X98230714Y-54220119D01*
X97924983Y-54141621D01*
X97611824Y-54102060D01*
X97296176Y-54102060D01*
X96983017Y-54141621D01*
X96677286Y-54220119D01*
X96383804Y-54336317D01*
X96380345Y-54338219D01*
X96380342Y-54338220D01*
X96110671Y-54486473D01*
X96107199Y-54488382D01*
X95851835Y-54673915D01*
X95621737Y-54889991D01*
X95420536Y-55133202D01*
X95251403Y-55399712D01*
X95249719Y-55403291D01*
X95249715Y-55403298D01*
X95127191Y-55663677D01*
X95117007Y-55685319D01*
X95115781Y-55689091D01*
X95115781Y-55689092D01*
X95083686Y-55787869D01*
X95019466Y-55985518D01*
X94960320Y-56295575D01*
X94940500Y-56610600D01*
X94525870Y-56610600D01*
X94559349Y-56491094D01*
X94583249Y-56261776D01*
X94583500Y-56235600D01*
X94583250Y-56232652D01*
X94564458Y-56011176D01*
X94564457Y-56011172D01*
X94564007Y-56005865D01*
X94559739Y-55989419D01*
X94507426Y-55787869D01*
X94506084Y-55782698D01*
X94463918Y-55689092D01*
X94413578Y-55577343D01*
X94413577Y-55577341D01*
X94411388Y-55572482D01*
X94282627Y-55381226D01*
X94123482Y-55214399D01*
X93938504Y-55076771D01*
X93933743Y-55074351D01*
X93930425Y-55072293D01*
X93883071Y-55019396D01*
X93871832Y-54949295D01*
X93900277Y-54884245D01*
X93923564Y-54862693D01*
X93932304Y-54856447D01*
X94103711Y-54733957D01*
X94266030Y-54570217D01*
X94353043Y-54446180D01*
X94395375Y-54385836D01*
X94395376Y-54385834D01*
X94398439Y-54381468D01*
X94497153Y-54173108D01*
X94559349Y-53951094D01*
X94583249Y-53721776D01*
X94583500Y-53695600D01*
X94583250Y-53692652D01*
X94564458Y-53471176D01*
X94564457Y-53471172D01*
X94564007Y-53465865D01*
X94506084Y-53242698D01*
X94454731Y-53128698D01*
X94413578Y-53037343D01*
X94413577Y-53037341D01*
X94411388Y-53032482D01*
X94282627Y-52841226D01*
X94123482Y-52674399D01*
X93938504Y-52536771D01*
X93933743Y-52534351D01*
X93930425Y-52532293D01*
X93883071Y-52479396D01*
X93871832Y-52409295D01*
X93900277Y-52344245D01*
X93923564Y-52322693D01*
X93932304Y-52316447D01*
X94103711Y-52193957D01*
X94266030Y-52030217D01*
X94353043Y-51906180D01*
X94395375Y-51845836D01*
X94395376Y-51845834D01*
X94398439Y-51841468D01*
X94497153Y-51633108D01*
X94559349Y-51411094D01*
X94583249Y-51181776D01*
X94583500Y-51155600D01*
X94583250Y-51152652D01*
X94564458Y-50931176D01*
X94564457Y-50931172D01*
X94564007Y-50925865D01*
X94506084Y-50702698D01*
X94454731Y-50588698D01*
X94413578Y-50497343D01*
X94413577Y-50497341D01*
X94411388Y-50492482D01*
X94282627Y-50301226D01*
X94123482Y-50134399D01*
X93938504Y-49996771D01*
X93933743Y-49994351D01*
X93930425Y-49992293D01*
X93883071Y-49939396D01*
X93871832Y-49869295D01*
X93900277Y-49804245D01*
X93923564Y-49782693D01*
X93932304Y-49776447D01*
X94103711Y-49653957D01*
X94266030Y-49490217D01*
X94353043Y-49366180D01*
X94395375Y-49305836D01*
X94395376Y-49305834D01*
X94398439Y-49301468D01*
X94497153Y-49093108D01*
X94559349Y-48871094D01*
X94583249Y-48641776D01*
X94583500Y-48615600D01*
X94583250Y-48612652D01*
X94564458Y-48391176D01*
X94564457Y-48391172D01*
X94564007Y-48385865D01*
X94506084Y-48162698D01*
X94454731Y-48048698D01*
X94413578Y-47957343D01*
X94413577Y-47957341D01*
X94411388Y-47952482D01*
X94282627Y-47761226D01*
X94123482Y-47594399D01*
X93938504Y-47456771D01*
X93933743Y-47454351D01*
X93930425Y-47452293D01*
X93883071Y-47399396D01*
X93871832Y-47329295D01*
X93900277Y-47264245D01*
X93923564Y-47242693D01*
X93932304Y-47236447D01*
X94103711Y-47113957D01*
X94258919Y-46957390D01*
X94262277Y-46954003D01*
X94262278Y-46954002D01*
X94266030Y-46950217D01*
X94327359Y-46862793D01*
X98813636Y-46862793D01*
X98819708Y-46870905D01*
X98951034Y-46954086D01*
X98960480Y-46959003D01*
X99171128Y-47046904D01*
X99181256Y-47050155D01*
X99403701Y-47101306D01*
X99414240Y-47102806D01*
X99642119Y-47115746D01*
X99652762Y-47115449D01*
X99879563Y-47089809D01*
X99889998Y-47087725D01*
X100109256Y-47024231D01*
X100119173Y-47020424D01*
X100324598Y-46920896D01*
X100333736Y-46915470D01*
X100393022Y-46873105D01*
X100401425Y-46862382D01*
X100394446Y-46849257D01*
X99620811Y-46075621D01*
X99606868Y-46068008D01*
X99605034Y-46068139D01*
X99598420Y-46072390D01*
X98820393Y-46850418D01*
X98813636Y-46862793D01*
X94327359Y-46862793D01*
X94350103Y-46830371D01*
X94395375Y-46765836D01*
X94395376Y-46765834D01*
X94398439Y-46761468D01*
X94497153Y-46553108D01*
X94559349Y-46331094D01*
X94583249Y-46101776D01*
X94583500Y-46075600D01*
X94574845Y-45973596D01*
X94564458Y-45851176D01*
X94564457Y-45851172D01*
X94564007Y-45845865D01*
X94553194Y-45804203D01*
X98199028Y-45804203D01*
X98199826Y-45814816D01*
X98236124Y-46040174D01*
X98238695Y-46050483D01*
X98312445Y-46266503D01*
X98316719Y-46276239D01*
X98425809Y-46476740D01*
X98431664Y-46485620D01*
X98435923Y-46491022D01*
X98447849Y-46499493D01*
X98459382Y-46493007D01*
X99235979Y-45716411D01*
X99242356Y-45704732D01*
X99972408Y-45704732D01*
X99972539Y-45706566D01*
X99976790Y-45713180D01*
X100754057Y-46490446D01*
X100765845Y-46496883D01*
X100775260Y-46489605D01*
X100841389Y-46463771D01*
X100910988Y-46477790D01*
X100951266Y-46511290D01*
X101075916Y-46669407D01*
X101253399Y-46829495D01*
X101257912Y-46832354D01*
X101257914Y-46832355D01*
X101322250Y-46873105D01*
X101455318Y-46957390D01*
X101460248Y-46959447D01*
X101669835Y-47046904D01*
X101675900Y-47049435D01*
X101804246Y-47078948D01*
X101903629Y-47101801D01*
X101903633Y-47101802D01*
X101908836Y-47102998D01*
X101914169Y-47103301D01*
X101914170Y-47103301D01*
X102028152Y-47109774D01*
X102147467Y-47116549D01*
X102152774Y-47115949D01*
X102152776Y-47115949D01*
X102282300Y-47101306D01*
X102384970Y-47089699D01*
X102390085Y-47088218D01*
X102390089Y-47088217D01*
X102609430Y-47024700D01*
X102609435Y-47024698D01*
X102614553Y-47023216D01*
X102829652Y-46919001D01*
X102950901Y-46832355D01*
X103019771Y-46783140D01*
X103019773Y-46783138D01*
X103024117Y-46780034D01*
X103192388Y-46610289D01*
X103253775Y-46522782D01*
X103309271Y-46478502D01*
X103379897Y-46471255D01*
X103443229Y-46503341D01*
X103455875Y-46517137D01*
X103480183Y-46547971D01*
X103575916Y-46669407D01*
X103753399Y-46829495D01*
X103757912Y-46832354D01*
X103757914Y-46832355D01*
X103822250Y-46873105D01*
X103955318Y-46957390D01*
X103960248Y-46959447D01*
X104169835Y-47046904D01*
X104175900Y-47049435D01*
X104304246Y-47078948D01*
X104403629Y-47101801D01*
X104403633Y-47101802D01*
X104408836Y-47102998D01*
X104414169Y-47103301D01*
X104414170Y-47103301D01*
X104528152Y-47109774D01*
X104647467Y-47116549D01*
X104652774Y-47115949D01*
X104652776Y-47115949D01*
X104782300Y-47101306D01*
X104884970Y-47089699D01*
X104890085Y-47088218D01*
X104890089Y-47088217D01*
X105109430Y-47024700D01*
X105109435Y-47024698D01*
X105114553Y-47023216D01*
X105329652Y-46919001D01*
X105450901Y-46832355D01*
X105519771Y-46783140D01*
X105519773Y-46783138D01*
X105524117Y-46780034D01*
X105692388Y-46610289D01*
X105786074Y-46476740D01*
X105826588Y-46418987D01*
X105826589Y-46418985D01*
X105829652Y-46414619D01*
X105931986Y-46198618D01*
X105996463Y-45968463D01*
X105998671Y-45947283D01*
X106020933Y-45733683D01*
X106020933Y-45733680D01*
X106021240Y-45730736D01*
X106021500Y-45703600D01*
X106001292Y-45465440D01*
X105999951Y-45460272D01*
X105942586Y-45239255D01*
X105942584Y-45239250D01*
X105941245Y-45234090D01*
X105860300Y-45054399D01*
X105845267Y-45021026D01*
X105845266Y-45021023D01*
X105843077Y-45016165D01*
X105709594Y-44817896D01*
X105544613Y-44644951D01*
X105352852Y-44502277D01*
X105348101Y-44499861D01*
X105348097Y-44499859D01*
X105144549Y-44396370D01*
X105144548Y-44396370D01*
X105139793Y-44393952D01*
X104973304Y-44342256D01*
X104916623Y-44324656D01*
X104911528Y-44323074D01*
X104890210Y-44320248D01*
X104679868Y-44292369D01*
X104679865Y-44292369D01*
X104674585Y-44291669D01*
X104669256Y-44291869D01*
X104669255Y-44291869D01*
X104572684Y-44295495D01*
X104435738Y-44300636D01*
X104424100Y-44303078D01*
X104207043Y-44348621D01*
X104207040Y-44348622D01*
X104201816Y-44349718D01*
X103979508Y-44437511D01*
X103974944Y-44440280D01*
X103974945Y-44440280D01*
X103779732Y-44558738D01*
X103779729Y-44558740D01*
X103775171Y-44561506D01*
X103594647Y-44718157D01*
X103591264Y-44722283D01*
X103591259Y-44722288D01*
X103453709Y-44890044D01*
X103395050Y-44930038D01*
X103324079Y-44931970D01*
X103263331Y-44895226D01*
X103251755Y-44880520D01*
X103209594Y-44817896D01*
X103044613Y-44644951D01*
X102852852Y-44502277D01*
X102848101Y-44499861D01*
X102848097Y-44499859D01*
X102644549Y-44396370D01*
X102644548Y-44396370D01*
X102639793Y-44393952D01*
X102473304Y-44342256D01*
X102416623Y-44324656D01*
X102411528Y-44323074D01*
X102390210Y-44320248D01*
X102179868Y-44292369D01*
X102179865Y-44292369D01*
X102174585Y-44291669D01*
X102169256Y-44291869D01*
X102169255Y-44291869D01*
X102072684Y-44295495D01*
X101935738Y-44300636D01*
X101924100Y-44303078D01*
X101707043Y-44348621D01*
X101707040Y-44348622D01*
X101701816Y-44349718D01*
X101479508Y-44437511D01*
X101474944Y-44440280D01*
X101474945Y-44440280D01*
X101279732Y-44558738D01*
X101279729Y-44558740D01*
X101275171Y-44561506D01*
X101094647Y-44718157D01*
X101091264Y-44722283D01*
X101091259Y-44722288D01*
X100948430Y-44896482D01*
X100889771Y-44936476D01*
X100818800Y-44938408D01*
X100770536Y-44913556D01*
X100767012Y-44910632D01*
X100752954Y-44917857D01*
X99980021Y-45690789D01*
X99972408Y-45704732D01*
X99242356Y-45704732D01*
X99243592Y-45702468D01*
X99243461Y-45700634D01*
X99239210Y-45694020D01*
X98458547Y-44913358D01*
X98445366Y-44906160D01*
X98439462Y-44910379D01*
X98327951Y-45106274D01*
X98323488Y-45115934D01*
X98245608Y-45330491D01*
X98242837Y-45340759D01*
X98202221Y-45565371D01*
X98201220Y-45575964D01*
X98199028Y-45804203D01*
X94553194Y-45804203D01*
X94506084Y-45622698D01*
X94454731Y-45508698D01*
X94413578Y-45417343D01*
X94413577Y-45417341D01*
X94411388Y-45412482D01*
X94282627Y-45221226D01*
X94123482Y-45054399D01*
X93938504Y-44916771D01*
X93933743Y-44914351D01*
X93930425Y-44912293D01*
X93883071Y-44859396D01*
X93871832Y-44789295D01*
X93900277Y-44724245D01*
X93923564Y-44702693D01*
X93981935Y-44660980D01*
X94103711Y-44573957D01*
X94133382Y-44544026D01*
X98812599Y-44544026D01*
X98816279Y-44552668D01*
X99595189Y-45331579D01*
X99609132Y-45339192D01*
X99610966Y-45339061D01*
X99617580Y-45334810D01*
X100395456Y-44556933D01*
X100402183Y-44544614D01*
X100393653Y-44533254D01*
X100356867Y-44505885D01*
X100347837Y-44500286D01*
X100144361Y-44396833D01*
X100134510Y-44392833D01*
X99916514Y-44325144D01*
X99906133Y-44322861D01*
X99679846Y-44292869D01*
X99669230Y-44292369D01*
X99441130Y-44300932D01*
X99430581Y-44302227D01*
X99207187Y-44349100D01*
X99196990Y-44352160D01*
X98984699Y-44435997D01*
X98975167Y-44440728D01*
X98822106Y-44533608D01*
X98812599Y-44544026D01*
X94133382Y-44544026D01*
X94266030Y-44410217D01*
X94306123Y-44353064D01*
X94395375Y-44225836D01*
X94395376Y-44225834D01*
X94398439Y-44221468D01*
X94497153Y-44013108D01*
X94559349Y-43791094D01*
X94583249Y-43561776D01*
X94583500Y-43535600D01*
X94583250Y-43532652D01*
X94564458Y-43311176D01*
X94564457Y-43311172D01*
X94564007Y-43305865D01*
X94506084Y-43082698D01*
X94454731Y-42968698D01*
X94413578Y-42877343D01*
X94413577Y-42877341D01*
X94411388Y-42872482D01*
X94282627Y-42681226D01*
X94220758Y-42616370D01*
X94144818Y-42536765D01*
X94123482Y-42514399D01*
X93938504Y-42376771D01*
X93933743Y-42374351D01*
X93930425Y-42372293D01*
X93883071Y-42319396D01*
X93871832Y-42249295D01*
X93900277Y-42184245D01*
X93923564Y-42162693D01*
X93932304Y-42156447D01*
X94103711Y-42033957D01*
X94266030Y-41870217D01*
X94353043Y-41746180D01*
X94395375Y-41685836D01*
X94395376Y-41685834D01*
X94398439Y-41681468D01*
X94497153Y-41473108D01*
X94559349Y-41251094D01*
X94583249Y-41021776D01*
X94583500Y-40995600D01*
X94580912Y-40965099D01*
X94564458Y-40771176D01*
X94564457Y-40771172D01*
X94564007Y-40765865D01*
X94560269Y-40751461D01*
X94507426Y-40547869D01*
X94506084Y-40542698D01*
X94454731Y-40428698D01*
X94413578Y-40337343D01*
X94413577Y-40337341D01*
X94411388Y-40332482D01*
X94282627Y-40141226D01*
X94123482Y-39974399D01*
X93938504Y-39836771D01*
X93933743Y-39834351D01*
X93930425Y-39832293D01*
X93883071Y-39779396D01*
X93871832Y-39709295D01*
X93900277Y-39644245D01*
X93923564Y-39622693D01*
X93933410Y-39615657D01*
X94103711Y-39493957D01*
X94266030Y-39330217D01*
X94269843Y-39324781D01*
X94395375Y-39145836D01*
X94395376Y-39145834D01*
X94398439Y-39141468D01*
X94497153Y-38933108D01*
X94559349Y-38711094D01*
X94560130Y-38703600D01*
X95194500Y-38703600D01*
X95214320Y-39018625D01*
X95273466Y-39328682D01*
X95371007Y-39628881D01*
X95372694Y-39632467D01*
X95372696Y-39632471D01*
X95503715Y-39910902D01*
X95503719Y-39910909D01*
X95505403Y-39914488D01*
X95674536Y-40180998D01*
X95875737Y-40424209D01*
X96105835Y-40640285D01*
X96109037Y-40642612D01*
X96109039Y-40642613D01*
X96189051Y-40700745D01*
X96361199Y-40825818D01*
X96364668Y-40827725D01*
X96364671Y-40827727D01*
X96598181Y-40956100D01*
X96637804Y-40977883D01*
X96931286Y-41094081D01*
X97237017Y-41172579D01*
X97550176Y-41212140D01*
X97865824Y-41212140D01*
X98178983Y-41172579D01*
X98484714Y-41094081D01*
X98778196Y-40977883D01*
X98817820Y-40956100D01*
X99051329Y-40827727D01*
X99051332Y-40827725D01*
X99054801Y-40825818D01*
X99226949Y-40700745D01*
X99306961Y-40642613D01*
X99306963Y-40642612D01*
X99310165Y-40640285D01*
X99540263Y-40424209D01*
X99741464Y-40180998D01*
X99910597Y-39914488D01*
X99912281Y-39910909D01*
X99912285Y-39910902D01*
X100043304Y-39632471D01*
X100043306Y-39632467D01*
X100044993Y-39628881D01*
X100142534Y-39328682D01*
X100201680Y-39018625D01*
X100221500Y-38703600D01*
X103994500Y-38703600D01*
X104014320Y-39018625D01*
X104073466Y-39328682D01*
X104171007Y-39628881D01*
X104172694Y-39632467D01*
X104172696Y-39632471D01*
X104303715Y-39910902D01*
X104303719Y-39910909D01*
X104305403Y-39914488D01*
X104474536Y-40180998D01*
X104675737Y-40424209D01*
X104905835Y-40640285D01*
X104909037Y-40642612D01*
X104909039Y-40642613D01*
X104989051Y-40700745D01*
X105161199Y-40825818D01*
X105164668Y-40827725D01*
X105164671Y-40827727D01*
X105398181Y-40956100D01*
X105437804Y-40977883D01*
X105731286Y-41094081D01*
X106037017Y-41172579D01*
X106350176Y-41212140D01*
X106665824Y-41212140D01*
X106978983Y-41172579D01*
X107284714Y-41094081D01*
X107578196Y-40977883D01*
X107617820Y-40956100D01*
X107851329Y-40827727D01*
X107851332Y-40827725D01*
X107854801Y-40825818D01*
X108026949Y-40700745D01*
X108106961Y-40642613D01*
X108106963Y-40642612D01*
X108110165Y-40640285D01*
X108340263Y-40424209D01*
X108541464Y-40180998D01*
X108710597Y-39914488D01*
X108712281Y-39910909D01*
X108712285Y-39910902D01*
X108843304Y-39632471D01*
X108843306Y-39632467D01*
X108844993Y-39628881D01*
X108942534Y-39328682D01*
X109001680Y-39018625D01*
X109021500Y-38703600D01*
X109001680Y-38388575D01*
X108942534Y-38078518D01*
X108844993Y-37778319D01*
X108807404Y-37698437D01*
X108712285Y-37496298D01*
X108712281Y-37496291D01*
X108710597Y-37492712D01*
X108541464Y-37226202D01*
X108340263Y-36982991D01*
X108110165Y-36766915D01*
X107854801Y-36581382D01*
X107649188Y-36468345D01*
X107581658Y-36431220D01*
X107581655Y-36431219D01*
X107578196Y-36429317D01*
X107284714Y-36313119D01*
X106978983Y-36234621D01*
X106665824Y-36195060D01*
X106350176Y-36195060D01*
X106037017Y-36234621D01*
X105731286Y-36313119D01*
X105437804Y-36429317D01*
X105434345Y-36431219D01*
X105434342Y-36431220D01*
X105366812Y-36468345D01*
X105161199Y-36581382D01*
X104905835Y-36766915D01*
X104675737Y-36982991D01*
X104474536Y-37226202D01*
X104305403Y-37492712D01*
X104303719Y-37496291D01*
X104303715Y-37496298D01*
X104208596Y-37698437D01*
X104171007Y-37778319D01*
X104073466Y-38078518D01*
X104014320Y-38388575D01*
X103994500Y-38703600D01*
X100221500Y-38703600D01*
X100201680Y-38388575D01*
X100142534Y-38078518D01*
X100044993Y-37778319D01*
X100007404Y-37698437D01*
X99912285Y-37496298D01*
X99912281Y-37496291D01*
X99910597Y-37492712D01*
X99741464Y-37226202D01*
X99540263Y-36982991D01*
X99310165Y-36766915D01*
X99054801Y-36581382D01*
X98849188Y-36468345D01*
X98781658Y-36431220D01*
X98781655Y-36431219D01*
X98778196Y-36429317D01*
X98484714Y-36313119D01*
X98178983Y-36234621D01*
X97865824Y-36195060D01*
X97550176Y-36195060D01*
X97237017Y-36234621D01*
X96931286Y-36313119D01*
X96637804Y-36429317D01*
X96634345Y-36431219D01*
X96634342Y-36431220D01*
X96566812Y-36468345D01*
X96361199Y-36581382D01*
X96105835Y-36766915D01*
X95875737Y-36982991D01*
X95674536Y-37226202D01*
X95505403Y-37492712D01*
X95503719Y-37496291D01*
X95503715Y-37496298D01*
X95408596Y-37698437D01*
X95371007Y-37778319D01*
X95273466Y-38078518D01*
X95214320Y-38388575D01*
X95194500Y-38703600D01*
X94560130Y-38703600D01*
X94583249Y-38481776D01*
X94583500Y-38455600D01*
X94577482Y-38384675D01*
X94564458Y-38231176D01*
X94564457Y-38231172D01*
X94564007Y-38225865D01*
X94561086Y-38214608D01*
X94507426Y-38007869D01*
X94506084Y-38002698D01*
X94454731Y-37888698D01*
X94413578Y-37797343D01*
X94413577Y-37797341D01*
X94411388Y-37792482D01*
X94282627Y-37601226D01*
X94259830Y-37577328D01*
X94213097Y-37528339D01*
X94123482Y-37434399D01*
X93938504Y-37296771D01*
X93933743Y-37294351D01*
X93930425Y-37292293D01*
X93883071Y-37239396D01*
X93871832Y-37169295D01*
X93900277Y-37104245D01*
X93923564Y-37082693D01*
X93932304Y-37076447D01*
X94103711Y-36953957D01*
X94266030Y-36790217D01*
X94353043Y-36666180D01*
X94395375Y-36605836D01*
X94395376Y-36605834D01*
X94398439Y-36601468D01*
X94408860Y-36579473D01*
X94494868Y-36397931D01*
X94497153Y-36393108D01*
X94559349Y-36171094D01*
X94583249Y-35941776D01*
X94583500Y-35915600D01*
X94583250Y-35912652D01*
X94564458Y-35691176D01*
X94564457Y-35691172D01*
X94564007Y-35685865D01*
X94506084Y-35462698D01*
X94454731Y-35348698D01*
X94413578Y-35257343D01*
X94413577Y-35257341D01*
X94411388Y-35252482D01*
X94282627Y-35061226D01*
X94123482Y-34894399D01*
X93938504Y-34756771D01*
X93933743Y-34754351D01*
X93930425Y-34752293D01*
X93883071Y-34699396D01*
X93871832Y-34629295D01*
X93900277Y-34564245D01*
X93923564Y-34542693D01*
X93933410Y-34535657D01*
X94103711Y-34413957D01*
X94266030Y-34250217D01*
X94273416Y-34239688D01*
X94395375Y-34065836D01*
X94395376Y-34065834D01*
X94398439Y-34061468D01*
X94403316Y-34051175D01*
X94494868Y-33857931D01*
X94497153Y-33853108D01*
X94559349Y-33631094D01*
X94583249Y-33401776D01*
X94583500Y-33375600D01*
X94580249Y-33337289D01*
X94564458Y-33151176D01*
X94564457Y-33151172D01*
X94564007Y-33145865D01*
X94561086Y-33134608D01*
X94507426Y-32927869D01*
X94506084Y-32922698D01*
X94454731Y-32808698D01*
X94413578Y-32717343D01*
X94413577Y-32717341D01*
X94411388Y-32712482D01*
X94282627Y-32521226D01*
X94259830Y-32497328D01*
X94213097Y-32448339D01*
X94123482Y-32354399D01*
X93938504Y-32216771D01*
X93933743Y-32214351D01*
X93930425Y-32212293D01*
X93883071Y-32159396D01*
X93871832Y-32089295D01*
X93900277Y-32024245D01*
X93923564Y-32002693D01*
X93932304Y-31996447D01*
X94103711Y-31873957D01*
X94266030Y-31710217D01*
X94353043Y-31586180D01*
X94395375Y-31525836D01*
X94395376Y-31525834D01*
X94398439Y-31521468D01*
X94497153Y-31313108D01*
X94559349Y-31091094D01*
X94583249Y-30861776D01*
X94583500Y-30835600D01*
X94583250Y-30832652D01*
X94564458Y-30611176D01*
X94564457Y-30611172D01*
X94564007Y-30605865D01*
X94506084Y-30382698D01*
X94454731Y-30268698D01*
X94413578Y-30177343D01*
X94413577Y-30177341D01*
X94411388Y-30172482D01*
X94282627Y-29981226D01*
X94123482Y-29814399D01*
X93938504Y-29676771D01*
X93933753Y-29674355D01*
X93933749Y-29674353D01*
X93737740Y-29574697D01*
X93737739Y-29574697D01*
X93732982Y-29572278D01*
X93592033Y-29528512D01*
X93517895Y-29505491D01*
X93517889Y-29505490D01*
X93512792Y-29503907D01*
X93407798Y-29489991D01*
X93289515Y-29474314D01*
X93289510Y-29474314D01*
X93284230Y-29473614D01*
X93278900Y-29473814D01*
X93278899Y-29473814D01*
X93169031Y-29477938D01*
X93053831Y-29482263D01*
X92971368Y-29499566D01*
X92833411Y-29528512D01*
X92833408Y-29528513D01*
X92828184Y-29529609D01*
X92613740Y-29614297D01*
X92416631Y-29733906D01*
X92412601Y-29737403D01*
X92319426Y-29818256D01*
X92242492Y-29885015D01*
X92239109Y-29889141D01*
X92239105Y-29889145D01*
X92166768Y-29977367D01*
X92096304Y-30063305D01*
X91982245Y-30263677D01*
X91903578Y-30480402D01*
X91902629Y-30485651D01*
X91902628Y-30485654D01*
X91880890Y-30605865D01*
X91862551Y-30707283D01*
X91862500Y-30712623D01*
X91861097Y-30858810D01*
X91860338Y-30937833D01*
X91897002Y-31165461D01*
X91971494Y-31383656D01*
X92081685Y-31586180D01*
X92224424Y-31767244D01*
X92228389Y-31770820D01*
X92391659Y-31918089D01*
X92391665Y-31918094D01*
X92395629Y-31921669D01*
X92400142Y-31924528D01*
X92400144Y-31924529D01*
X92518242Y-31999331D01*
X92565087Y-32052679D01*
X92575654Y-32122885D01*
X92546587Y-32187658D01*
X92516186Y-32213494D01*
X92421196Y-32271135D01*
X92421189Y-32271140D01*
X92416631Y-32273906D01*
X92412601Y-32277403D01*
X92264206Y-32406173D01*
X92242492Y-32425015D01*
X92239109Y-32429141D01*
X92239105Y-32429145D01*
X92153944Y-32533008D01*
X92096304Y-32603305D01*
X92093665Y-32607941D01*
X92093663Y-32607944D01*
X92087690Y-32618437D01*
X91982245Y-32803677D01*
X91903578Y-33020402D01*
X91902629Y-33025651D01*
X91902628Y-33025654D01*
X91880890Y-33145865D01*
X91862551Y-33247283D01*
X91862500Y-33252623D01*
X91861097Y-33398810D01*
X91860338Y-33477833D01*
X91897002Y-33705461D01*
X91971494Y-33923656D01*
X92081685Y-34126180D01*
X92224424Y-34307244D01*
X92228389Y-34310820D01*
X92391659Y-34458089D01*
X92391665Y-34458094D01*
X92395629Y-34461669D01*
X92400142Y-34464528D01*
X92400144Y-34464529D01*
X92518242Y-34539331D01*
X92565087Y-34592679D01*
X92575654Y-34662885D01*
X92546587Y-34727658D01*
X92516186Y-34753494D01*
X92421196Y-34811135D01*
X92421189Y-34811140D01*
X92416631Y-34813906D01*
X92412601Y-34817403D01*
X92319426Y-34898256D01*
X92242492Y-34965015D01*
X92239109Y-34969141D01*
X92239105Y-34969145D01*
X92166768Y-35057367D01*
X92096304Y-35143305D01*
X91982245Y-35343677D01*
X91903578Y-35560402D01*
X91902629Y-35565651D01*
X91902628Y-35565654D01*
X91880890Y-35685865D01*
X91862551Y-35787283D01*
X91862500Y-35792623D01*
X91861097Y-35938810D01*
X91860338Y-36017833D01*
X91897002Y-36245461D01*
X91971494Y-36463656D01*
X92081685Y-36666180D01*
X92224424Y-36847244D01*
X92228389Y-36850820D01*
X92391659Y-36998089D01*
X92391665Y-36998094D01*
X92395629Y-37001669D01*
X92400142Y-37004528D01*
X92400144Y-37004529D01*
X92518242Y-37079331D01*
X92565087Y-37132679D01*
X92575654Y-37202885D01*
X92546587Y-37267658D01*
X92516186Y-37293494D01*
X92421196Y-37351135D01*
X92421189Y-37351140D01*
X92416631Y-37353906D01*
X92412601Y-37357403D01*
X92252538Y-37496298D01*
X92242492Y-37505015D01*
X92239109Y-37509141D01*
X92239105Y-37509145D01*
X92153944Y-37613008D01*
X92096304Y-37683305D01*
X92093665Y-37687941D01*
X92093663Y-37687944D01*
X92040071Y-37782092D01*
X91982245Y-37883677D01*
X91903578Y-38100402D01*
X91902629Y-38105651D01*
X91902628Y-38105654D01*
X91880890Y-38225865D01*
X91862551Y-38327283D01*
X91862500Y-38332623D01*
X91861097Y-38478810D01*
X91860338Y-38557833D01*
X91897002Y-38785461D01*
X91971494Y-39003656D01*
X92081685Y-39206180D01*
X92224424Y-39387244D01*
X92228389Y-39390820D01*
X92391659Y-39538089D01*
X92391665Y-39538094D01*
X92395629Y-39541669D01*
X92400142Y-39544528D01*
X92400144Y-39544529D01*
X92518242Y-39619331D01*
X92565087Y-39672679D01*
X92575654Y-39742885D01*
X92546587Y-39807658D01*
X92516186Y-39833494D01*
X92421196Y-39891135D01*
X92421189Y-39891140D01*
X92416631Y-39893906D01*
X92412601Y-39897403D01*
X92319426Y-39978256D01*
X92242492Y-40045015D01*
X92239109Y-40049141D01*
X92239105Y-40049145D01*
X92166768Y-40137367D01*
X92096304Y-40223305D01*
X91982245Y-40423677D01*
X91903578Y-40640402D01*
X91902629Y-40645651D01*
X91902628Y-40645654D01*
X91869174Y-40830659D01*
X91862551Y-40867283D01*
X91861612Y-40965099D01*
X91861097Y-41018810D01*
X91860338Y-41097833D01*
X91897002Y-41325461D01*
X91971494Y-41543656D01*
X92081685Y-41746180D01*
X92224424Y-41927244D01*
X92246468Y-41947127D01*
X92391659Y-42078089D01*
X92391665Y-42078094D01*
X92395629Y-42081669D01*
X92400142Y-42084528D01*
X92400144Y-42084529D01*
X92518242Y-42159331D01*
X92565087Y-42212679D01*
X92575654Y-42282885D01*
X92546587Y-42347658D01*
X92516186Y-42373494D01*
X92421196Y-42431135D01*
X92421189Y-42431140D01*
X92416631Y-42433906D01*
X92412601Y-42437403D01*
X92254406Y-42574677D01*
X92242492Y-42585015D01*
X92239109Y-42589141D01*
X92239105Y-42589145D01*
X92202425Y-42633880D01*
X92096304Y-42763305D01*
X91982245Y-42963677D01*
X91903578Y-43180402D01*
X91902629Y-43185651D01*
X91902628Y-43185654D01*
X91880890Y-43305865D01*
X91862551Y-43407283D01*
X91862500Y-43412623D01*
X91861097Y-43558810D01*
X91860338Y-43637833D01*
X91897002Y-43865461D01*
X91971494Y-44083656D01*
X91974044Y-44088343D01*
X91974045Y-44088345D01*
X92026589Y-44184918D01*
X92081685Y-44286180D01*
X92224424Y-44467244D01*
X92263264Y-44502277D01*
X92391659Y-44618089D01*
X92391665Y-44618094D01*
X92395629Y-44621669D01*
X92400142Y-44624528D01*
X92400144Y-44624529D01*
X92518242Y-44699331D01*
X92565087Y-44752679D01*
X92575654Y-44822885D01*
X92546587Y-44887658D01*
X92516186Y-44913494D01*
X92421196Y-44971135D01*
X92421189Y-44971140D01*
X92416631Y-44973906D01*
X92412601Y-44977403D01*
X92319426Y-45058256D01*
X92242492Y-45125015D01*
X92239109Y-45129141D01*
X92239105Y-45129145D01*
X92166768Y-45217367D01*
X92096304Y-45303305D01*
X92093665Y-45307941D01*
X92093663Y-45307944D01*
X92080209Y-45331579D01*
X91982245Y-45503677D01*
X91903578Y-45720402D01*
X91902629Y-45725651D01*
X91902628Y-45725654D01*
X91880890Y-45845865D01*
X91862551Y-45947283D01*
X91861659Y-46040174D01*
X91861097Y-46098810D01*
X91860338Y-46177833D01*
X91897002Y-46405461D01*
X91971494Y-46623656D01*
X91974044Y-46628343D01*
X91974045Y-46628345D01*
X91998332Y-46672983D01*
X92081685Y-46826180D01*
X92224424Y-47007244D01*
X92277539Y-47055153D01*
X92391659Y-47158089D01*
X92391665Y-47158094D01*
X92395629Y-47161669D01*
X92400142Y-47164528D01*
X92400144Y-47164529D01*
X92518242Y-47239331D01*
X92565087Y-47292679D01*
X92575654Y-47362885D01*
X92546587Y-47427658D01*
X92516186Y-47453494D01*
X92421196Y-47511135D01*
X92421189Y-47511140D01*
X92416631Y-47513906D01*
X92412601Y-47517403D01*
X92319426Y-47598256D01*
X92242492Y-47665015D01*
X92239109Y-47669141D01*
X92239105Y-47669145D01*
X92166768Y-47757367D01*
X92096304Y-47843305D01*
X91982245Y-48043677D01*
X91903578Y-48260402D01*
X91902629Y-48265651D01*
X91902628Y-48265654D01*
X91880890Y-48385865D01*
X91862551Y-48487283D01*
X91862500Y-48492623D01*
X91861097Y-48638810D01*
X91860338Y-48717833D01*
X91897002Y-48945461D01*
X91971494Y-49163656D01*
X92081685Y-49366180D01*
X92224424Y-49547244D01*
X92228389Y-49550820D01*
X92391659Y-49698089D01*
X92391665Y-49698094D01*
X92395629Y-49701669D01*
X92400142Y-49704528D01*
X92400144Y-49704529D01*
X92518242Y-49779331D01*
X92565087Y-49832679D01*
X92575654Y-49902885D01*
X92546587Y-49967658D01*
X92516186Y-49993494D01*
X92421196Y-50051135D01*
X92421189Y-50051140D01*
X92416631Y-50053906D01*
X92412601Y-50057403D01*
X92319426Y-50138256D01*
X92242492Y-50205015D01*
X92239109Y-50209141D01*
X92239105Y-50209145D01*
X92166768Y-50297367D01*
X92096304Y-50383305D01*
X91982245Y-50583677D01*
X91903578Y-50800402D01*
X91902629Y-50805651D01*
X91902628Y-50805654D01*
X91880890Y-50925865D01*
X91862551Y-51027283D01*
X91862500Y-51032623D01*
X91861097Y-51178810D01*
X91860338Y-51257833D01*
X91897002Y-51485461D01*
X91971494Y-51703656D01*
X92081685Y-51906180D01*
X92224424Y-52087244D01*
X92228389Y-52090820D01*
X92391659Y-52238089D01*
X92391665Y-52238094D01*
X92395629Y-52241669D01*
X92400142Y-52244528D01*
X92400144Y-52244529D01*
X92518242Y-52319331D01*
X92565087Y-52372679D01*
X92575654Y-52442885D01*
X92546587Y-52507658D01*
X92516186Y-52533494D01*
X92421196Y-52591135D01*
X92421189Y-52591140D01*
X92416631Y-52593906D01*
X92412601Y-52597403D01*
X92319426Y-52678256D01*
X92242492Y-52745015D01*
X92239109Y-52749141D01*
X92239105Y-52749145D01*
X92166768Y-52837367D01*
X92096304Y-52923305D01*
X91982245Y-53123677D01*
X91903578Y-53340402D01*
X91902629Y-53345651D01*
X91902628Y-53345654D01*
X91880890Y-53465865D01*
X91862551Y-53567283D01*
X91862500Y-53572623D01*
X91861097Y-53718810D01*
X91860338Y-53797833D01*
X91897002Y-54025461D01*
X91971494Y-54243656D01*
X92081685Y-54446180D01*
X92224424Y-54627244D01*
X92228389Y-54630820D01*
X92391659Y-54778089D01*
X92391665Y-54778094D01*
X92395629Y-54781669D01*
X92400142Y-54784528D01*
X92400144Y-54784529D01*
X92518242Y-54859331D01*
X92565087Y-54912679D01*
X92575654Y-54982885D01*
X92546587Y-55047658D01*
X92516186Y-55073494D01*
X92421196Y-55131135D01*
X92421189Y-55131140D01*
X92416631Y-55133906D01*
X92412601Y-55137403D01*
X92319426Y-55218256D01*
X92242492Y-55285015D01*
X92239109Y-55289141D01*
X92239105Y-55289145D01*
X92166768Y-55377367D01*
X92096304Y-55463305D01*
X91982245Y-55663677D01*
X91903578Y-55880402D01*
X91902629Y-55885651D01*
X91902628Y-55885654D01*
X91880890Y-56005865D01*
X91862551Y-56107283D01*
X91862500Y-56112623D01*
X91860706Y-56299538D01*
X91860338Y-56337833D01*
X91897002Y-56565461D01*
X91971494Y-56783656D01*
X92081685Y-56986180D01*
X92224424Y-57167244D01*
X92228389Y-57170820D01*
X92391659Y-57318089D01*
X92391665Y-57318094D01*
X92395629Y-57321669D01*
X92400142Y-57324528D01*
X92400144Y-57324529D01*
X92518242Y-57399331D01*
X92565087Y-57452679D01*
X92575654Y-57522885D01*
X92546587Y-57587658D01*
X92516186Y-57613494D01*
X92421196Y-57671135D01*
X92421189Y-57671140D01*
X92416631Y-57673906D01*
X92412601Y-57677403D01*
X92246557Y-57821488D01*
X92242492Y-57825015D01*
X92239109Y-57829141D01*
X92239105Y-57829145D01*
X92166768Y-57917367D01*
X92096304Y-58003305D01*
X91982245Y-58203677D01*
X91903578Y-58420402D01*
X91902629Y-58425651D01*
X91902628Y-58425654D01*
X91881124Y-58544574D01*
X91862551Y-58647283D01*
X91862500Y-58652623D01*
X91861097Y-58798810D01*
X91860338Y-58877833D01*
X91897002Y-59105461D01*
X91971494Y-59323656D01*
X92081685Y-59526180D01*
X92224424Y-59707244D01*
X92228389Y-59710820D01*
X92391659Y-59858089D01*
X92391665Y-59858094D01*
X92395629Y-59861669D01*
X92400142Y-59864528D01*
X92400144Y-59864529D01*
X92518242Y-59939331D01*
X92565087Y-59992679D01*
X92575654Y-60062885D01*
X92546587Y-60127658D01*
X92516186Y-60153494D01*
X92421196Y-60211135D01*
X92421189Y-60211140D01*
X92416631Y-60213906D01*
X92412601Y-60217403D01*
X92319426Y-60298256D01*
X92242492Y-60365015D01*
X92239109Y-60369141D01*
X92239105Y-60369145D01*
X92166768Y-60457367D01*
X92096304Y-60543305D01*
X91982245Y-60743677D01*
X91903578Y-60960402D01*
X91902629Y-60965651D01*
X91902628Y-60965654D01*
X91880890Y-61085865D01*
X91862551Y-61187283D01*
X91862500Y-61192623D01*
X91861097Y-61338810D01*
X91860338Y-61417833D01*
X91897002Y-61645461D01*
X91971494Y-61863656D01*
X92081685Y-62066180D01*
X92224424Y-62247244D01*
X92237104Y-62258681D01*
X92391659Y-62398089D01*
X92391665Y-62398094D01*
X92395629Y-62401669D01*
X92400142Y-62404528D01*
X92400144Y-62404529D01*
X92518242Y-62479331D01*
X92565087Y-62532679D01*
X92575654Y-62602885D01*
X92546587Y-62667658D01*
X92516186Y-62693494D01*
X92421196Y-62751135D01*
X92421189Y-62751140D01*
X92416631Y-62753906D01*
X92412601Y-62757403D01*
X92318603Y-62838970D01*
X92242492Y-62905015D01*
X92239109Y-62909141D01*
X92239105Y-62909145D01*
X92150093Y-63017704D01*
X92096304Y-63083305D01*
X92093665Y-63087941D01*
X92093663Y-63087944D01*
X92008536Y-63237491D01*
X91982245Y-63283677D01*
X91903578Y-63500402D01*
X91902629Y-63505651D01*
X91902628Y-63505654D01*
X91883651Y-63610600D01*
X91862551Y-63727283D01*
X91861464Y-63840546D01*
X91861180Y-63870160D01*
X91860338Y-63957833D01*
X91897002Y-64185461D01*
X91971494Y-64403656D01*
X92081685Y-64606180D01*
X92224424Y-64787244D01*
X92228389Y-64790820D01*
X92391659Y-64938089D01*
X92391665Y-64938094D01*
X92395629Y-64941669D01*
X92400142Y-64944528D01*
X92400144Y-64944529D01*
X92518712Y-65019629D01*
X92565557Y-65072977D01*
X92576124Y-65143183D01*
X92547057Y-65207957D01*
X92516656Y-65233792D01*
X92421486Y-65291542D01*
X92412896Y-65297806D01*
X92246884Y-65441864D01*
X92239464Y-65449495D01*
X92100100Y-65619460D01*
X92094075Y-65628227D01*
X91985342Y-65819244D01*
X91980877Y-65828908D01*
X91905882Y-66035516D01*
X91903111Y-66045784D01*
X91889008Y-66123774D01*
X91890427Y-66137014D01*
X91905062Y-66141600D01*
X94539079Y-66141600D01*
X94552610Y-66137627D01*
X94553876Y-66128818D01*
X94506954Y-65948033D01*
X94503419Y-65937995D01*
X94413147Y-65737598D01*
X94407967Y-65728292D01*
X94285218Y-65545966D01*
X94278557Y-65537680D01*
X94126830Y-65378630D01*
X94118873Y-65371590D01*
X93942524Y-65240383D01*
X93929981Y-65232605D01*
X93882628Y-65179707D01*
X93871391Y-65109605D01*
X93899838Y-65044557D01*
X93923122Y-65023009D01*
X94103711Y-64893957D01*
X94218756Y-64777905D01*
X94262277Y-64734003D01*
X94262278Y-64734002D01*
X94266030Y-64730217D01*
X94269090Y-64725855D01*
X94395375Y-64545836D01*
X94395376Y-64545834D01*
X94398439Y-64541468D01*
X94497153Y-64333108D01*
X94559349Y-64111094D01*
X94583249Y-63881776D01*
X94583287Y-63877780D01*
X94583347Y-63877583D01*
X94583446Y-63875841D01*
X94583869Y-63875865D01*
X94603933Y-63809853D01*
X94658027Y-63763870D01*
X94728394Y-63754433D01*
X94792692Y-63784537D01*
X94798376Y-63789880D01*
X96865595Y-65857099D01*
X96899621Y-65919411D01*
X96902500Y-65946194D01*
X96902500Y-65991216D01*
X96901986Y-66002120D01*
X96900334Y-66009511D01*
X96900583Y-66017437D01*
X96900583Y-66017438D01*
X96902438Y-66076466D01*
X96902500Y-66080423D01*
X96902500Y-66109178D01*
X96902996Y-66113103D01*
X96902996Y-66113104D01*
X96903039Y-66113443D01*
X96903972Y-66125287D01*
X96905361Y-66169483D01*
X96907573Y-66177095D01*
X96911012Y-66188933D01*
X96915022Y-66208295D01*
X96917560Y-66228388D01*
X96920476Y-66235753D01*
X96920477Y-66235757D01*
X96933837Y-66269501D01*
X96937681Y-66280728D01*
X96950014Y-66323178D01*
X96954052Y-66330006D01*
X96960323Y-66340611D01*
X96969019Y-66358362D01*
X96973558Y-66369826D01*
X96976478Y-66377200D01*
X96981139Y-66383615D01*
X97002465Y-66412967D01*
X97008983Y-66422890D01*
X97031486Y-66460941D01*
X97031855Y-66461359D01*
X97045938Y-66475442D01*
X97058772Y-66490467D01*
X97070554Y-66506683D01*
X97104335Y-66534629D01*
X97113115Y-66542619D01*
X97358609Y-66788113D01*
X97365969Y-66796201D01*
X97370027Y-66802595D01*
X97375804Y-66808020D01*
X97418878Y-66848469D01*
X97421720Y-66851224D01*
X97442034Y-66871538D01*
X97445445Y-66874183D01*
X97454465Y-66881887D01*
X97486699Y-66912157D01*
X97493643Y-66915974D01*
X97493645Y-66915976D01*
X97504453Y-66921918D01*
X97520977Y-66932772D01*
X97530711Y-66940323D01*
X97530713Y-66940324D01*
X97536977Y-66945183D01*
X97577561Y-66962746D01*
X97588190Y-66967953D01*
X97626952Y-66989262D01*
X97646578Y-66994301D01*
X97665271Y-67000702D01*
X97683865Y-67008748D01*
X97724511Y-67015186D01*
X97727531Y-67015664D01*
X97739154Y-67018071D01*
X97781975Y-67029065D01*
X97782531Y-67029100D01*
X97802447Y-67029100D01*
X97822157Y-67030651D01*
X97841945Y-67033785D01*
X97849837Y-67033039D01*
X97885593Y-67029659D01*
X97897451Y-67029100D01*
X109723096Y-67029100D01*
X109791217Y-67049102D01*
X109833773Y-67094880D01*
X109861685Y-67146180D01*
X110004424Y-67327244D01*
X110008389Y-67330820D01*
X110171659Y-67478089D01*
X110171665Y-67478094D01*
X110175629Y-67481669D01*
X110180142Y-67484528D01*
X110180144Y-67484529D01*
X110298242Y-67559331D01*
X110345087Y-67612679D01*
X110355654Y-67682885D01*
X110326587Y-67747658D01*
X110296186Y-67773494D01*
X110201196Y-67831135D01*
X110201191Y-67831139D01*
X110196631Y-67833906D01*
X110192601Y-67837403D01*
X110099426Y-67918256D01*
X110022492Y-67985015D01*
X110019109Y-67989141D01*
X110019105Y-67989145D01*
X109946768Y-68077367D01*
X109876304Y-68163305D01*
X109762245Y-68363677D01*
X109683578Y-68580402D01*
X109682629Y-68585651D01*
X109682628Y-68585654D01*
X109660890Y-68705865D01*
X109642551Y-68807283D01*
X109642500Y-68812623D01*
X109641097Y-68958810D01*
X109640338Y-69037833D01*
X109677002Y-69265461D01*
X109751494Y-69483656D01*
X109861685Y-69686180D01*
X110004424Y-69867244D01*
X110008389Y-69870820D01*
X110171659Y-70018089D01*
X110171665Y-70018094D01*
X110175629Y-70021669D01*
X110180142Y-70024528D01*
X110180144Y-70024529D01*
X110298242Y-70099331D01*
X110345087Y-70152679D01*
X110355654Y-70222885D01*
X110326587Y-70287658D01*
X110296186Y-70313494D01*
X110201196Y-70371135D01*
X110201189Y-70371140D01*
X110196631Y-70373906D01*
X110192601Y-70377403D01*
X110099426Y-70458256D01*
X110022492Y-70525015D01*
X110019109Y-70529141D01*
X110019105Y-70529145D01*
X109946768Y-70617367D01*
X109876304Y-70703305D01*
X109762245Y-70903677D01*
X109683578Y-71120402D01*
X109682629Y-71125651D01*
X109682628Y-71125654D01*
X109660890Y-71245865D01*
X109642551Y-71347283D01*
X109642500Y-71352623D01*
X109641097Y-71498810D01*
X109640338Y-71577833D01*
X109677002Y-71805461D01*
X109751494Y-72023656D01*
X109861685Y-72226180D01*
X110004424Y-72407244D01*
X110008389Y-72410820D01*
X110171659Y-72558089D01*
X110171665Y-72558094D01*
X110175629Y-72561669D01*
X110180142Y-72564528D01*
X110180144Y-72564529D01*
X110298712Y-72639629D01*
X110345557Y-72692977D01*
X110356124Y-72763183D01*
X110327057Y-72827957D01*
X110296656Y-72853792D01*
X110201486Y-72911542D01*
X110192896Y-72917806D01*
X110026884Y-73061864D01*
X110019464Y-73069495D01*
X109880100Y-73239460D01*
X109874075Y-73248227D01*
X109765342Y-73439244D01*
X109760877Y-73448908D01*
X109685882Y-73655516D01*
X109683111Y-73665784D01*
X109669008Y-73743774D01*
X109670427Y-73757014D01*
X109685062Y-73761600D01*
X111128000Y-73761600D01*
X111196121Y-73781602D01*
X111242614Y-73835258D01*
X111254000Y-73887600D01*
X111254000Y-74143600D01*
X111233998Y-74211721D01*
X111180342Y-74258214D01*
X111128000Y-74269600D01*
X109683403Y-74269600D01*
X109670222Y-74273470D01*
X109668255Y-74288023D01*
X109676638Y-74340071D01*
X109679212Y-74350393D01*
X109750230Y-74558410D01*
X109754497Y-74568133D01*
X109859556Y-74761225D01*
X109865402Y-74770091D01*
X110001486Y-74942713D01*
X110008750Y-74950475D01*
X110171967Y-75097694D01*
X110180444Y-75104128D01*
X110298717Y-75179042D01*
X110345562Y-75232390D01*
X110356129Y-75302596D01*
X110327062Y-75367370D01*
X110296662Y-75393205D01*
X110221017Y-75439108D01*
X110196631Y-75453906D01*
X110192601Y-75457403D01*
X110099426Y-75538256D01*
X110022492Y-75605015D01*
X110019109Y-75609141D01*
X110019105Y-75609145D01*
X109946768Y-75697367D01*
X109876304Y-75783305D01*
X109762245Y-75983677D01*
X109683578Y-76200402D01*
X109682629Y-76205651D01*
X109682628Y-76205654D01*
X109660890Y-76325865D01*
X109642551Y-76427283D01*
X109641464Y-76540546D01*
X109640493Y-76641727D01*
X109640338Y-76657833D01*
X109677002Y-76885461D01*
X109751494Y-77103656D01*
X109861685Y-77306180D01*
X110004424Y-77487244D01*
X110008389Y-77490820D01*
X110171659Y-77638089D01*
X110171665Y-77638094D01*
X110175629Y-77641669D01*
X110180142Y-77644528D01*
X110180144Y-77644529D01*
X110298242Y-77719331D01*
X110345087Y-77772679D01*
X110355654Y-77842885D01*
X110326587Y-77907658D01*
X110296186Y-77933494D01*
X110201196Y-77991135D01*
X110201189Y-77991140D01*
X110196631Y-77993906D01*
X110192601Y-77997403D01*
X110099426Y-78078256D01*
X110022492Y-78145015D01*
X110019109Y-78149141D01*
X110019105Y-78149145D01*
X109946768Y-78237367D01*
X109876304Y-78323305D01*
X109762245Y-78523677D01*
X109683578Y-78740402D01*
X109682629Y-78745651D01*
X109682628Y-78745654D01*
X109660890Y-78865865D01*
X109642551Y-78967283D01*
X109642500Y-78972623D01*
X109641097Y-79118810D01*
X109640338Y-79197833D01*
X109677002Y-79425461D01*
X109751494Y-79643656D01*
X109861685Y-79846180D01*
X110004424Y-80027244D01*
X110008389Y-80030820D01*
X110171659Y-80178089D01*
X110171665Y-80178094D01*
X110175629Y-80181669D01*
X110180142Y-80184528D01*
X110180144Y-80184529D01*
X110298242Y-80259331D01*
X110345087Y-80312679D01*
X110355654Y-80382885D01*
X110326587Y-80447658D01*
X110296186Y-80473494D01*
X110201196Y-80531135D01*
X110201189Y-80531140D01*
X110196631Y-80533906D01*
X110192601Y-80537403D01*
X110083707Y-80631896D01*
X110022492Y-80685015D01*
X110019109Y-80689141D01*
X110019105Y-80689145D01*
X109967233Y-80752408D01*
X109876304Y-80863305D01*
X109762245Y-81063677D01*
X109683578Y-81280402D01*
X109682629Y-81285651D01*
X109682628Y-81285654D01*
X109660890Y-81405865D01*
X109642551Y-81507283D01*
X109642163Y-81547683D01*
X109641097Y-81658810D01*
X109640338Y-81737833D01*
X109677002Y-81965461D01*
X109751494Y-82183656D01*
X109861685Y-82386180D01*
X110004424Y-82567244D01*
X110008389Y-82570820D01*
X110171659Y-82718089D01*
X110171665Y-82718094D01*
X110175629Y-82721669D01*
X110180142Y-82724528D01*
X110180144Y-82724529D01*
X110298242Y-82799331D01*
X110345087Y-82852679D01*
X110355654Y-82922885D01*
X110326587Y-82987658D01*
X110296186Y-83013494D01*
X110201196Y-83071135D01*
X110201189Y-83071140D01*
X110196631Y-83073906D01*
X110192601Y-83077403D01*
X110099426Y-83158256D01*
X110022492Y-83225015D01*
X110019109Y-83229141D01*
X110019105Y-83229145D01*
X109946768Y-83317367D01*
X109876304Y-83403305D01*
X109762245Y-83603677D01*
X109683578Y-83820402D01*
X109682629Y-83825651D01*
X109682628Y-83825654D01*
X109660890Y-83945865D01*
X109642551Y-84047283D01*
X109642500Y-84052623D01*
X109641097Y-84198810D01*
X109640338Y-84277833D01*
X109677002Y-84505461D01*
X109751494Y-84723656D01*
X109861685Y-84926180D01*
X110004424Y-85107244D01*
X110008389Y-85110820D01*
X110171659Y-85258089D01*
X110171665Y-85258094D01*
X110175629Y-85261669D01*
X110180142Y-85264528D01*
X110180144Y-85264529D01*
X110298242Y-85339331D01*
X110345087Y-85392679D01*
X110355654Y-85462885D01*
X110326587Y-85527658D01*
X110296186Y-85553494D01*
X110201196Y-85611135D01*
X110201189Y-85611140D01*
X110196631Y-85613906D01*
X110192601Y-85617403D01*
X110099426Y-85698256D01*
X110022492Y-85765015D01*
X110019109Y-85769141D01*
X110019105Y-85769145D01*
X109946768Y-85857367D01*
X109876304Y-85943305D01*
X109762245Y-86143677D01*
X109683578Y-86360402D01*
X109682629Y-86365651D01*
X109682628Y-86365654D01*
X109660890Y-86485865D01*
X109642551Y-86587283D01*
X109642500Y-86592623D01*
X109641097Y-86738810D01*
X109640338Y-86817833D01*
X109677002Y-87045461D01*
X109751494Y-87263656D01*
X109861685Y-87466180D01*
X110004424Y-87647244D01*
X110064034Y-87701011D01*
X110101219Y-87761488D01*
X110099805Y-87832471D01*
X110060240Y-87891421D01*
X110015138Y-87915468D01*
X109945330Y-87935965D01*
X109945328Y-87935966D01*
X109936684Y-87938504D01*
X109929105Y-87943375D01*
X109821309Y-88012651D01*
X109821306Y-88012653D01*
X109813729Y-88017523D01*
X109807828Y-88024333D01*
X109723918Y-88121169D01*
X109723916Y-88121172D01*
X109718016Y-88127981D01*
X109657300Y-88260930D01*
X109656018Y-88269845D01*
X109656018Y-88269846D01*
X109637139Y-88401152D01*
X109637139Y-88401154D01*
X109636500Y-88405600D01*
X109636500Y-90105600D01*
X109641727Y-90178679D01*
X109682904Y-90318916D01*
X109687775Y-90326495D01*
X109757051Y-90434291D01*
X109757053Y-90434294D01*
X109761923Y-90441871D01*
X109768733Y-90447772D01*
X109865569Y-90531682D01*
X109865572Y-90531684D01*
X109872381Y-90537584D01*
X110005330Y-90598300D01*
X110014245Y-90599582D01*
X110014246Y-90599582D01*
X110145552Y-90618461D01*
X110145559Y-90618462D01*
X110150000Y-90619100D01*
X111415511Y-90619100D01*
X111483632Y-90639102D01*
X111530125Y-90692758D01*
X111541511Y-90745100D01*
X111541511Y-93121971D01*
X111521509Y-93190092D01*
X111504606Y-93211066D01*
X96635487Y-108080185D01*
X96627399Y-108087545D01*
X96621005Y-108091603D01*
X96615580Y-108097380D01*
X96575131Y-108140454D01*
X96572376Y-108143296D01*
X96552062Y-108163610D01*
X96549417Y-108167021D01*
X96541713Y-108176041D01*
X96511443Y-108208275D01*
X96507626Y-108215219D01*
X96507624Y-108215221D01*
X96501682Y-108226029D01*
X96490828Y-108242553D01*
X96478417Y-108258553D01*
X96475270Y-108265824D01*
X96475270Y-108265825D01*
X96460859Y-108299127D01*
X96455638Y-108309783D01*
X96434338Y-108348528D01*
X96432366Y-108356211D01*
X96432365Y-108356212D01*
X96429301Y-108368144D01*
X96422897Y-108386848D01*
X96418001Y-108398161D01*
X96417999Y-108398168D01*
X96414852Y-108405440D01*
X96413613Y-108413264D01*
X96413612Y-108413267D01*
X96407935Y-108449111D01*
X96405528Y-108460732D01*
X96396013Y-108497794D01*
X96394535Y-108503551D01*
X96394500Y-108504107D01*
X96394500Y-108524028D01*
X96392949Y-108543738D01*
X96389816Y-108563520D01*
X96390562Y-108571412D01*
X96393941Y-108607158D01*
X96394500Y-108619016D01*
X96394500Y-116757857D01*
X96374498Y-116825978D01*
X96332439Y-116866429D01*
X92430456Y-119164326D01*
X92361607Y-119181658D01*
X92303137Y-119164653D01*
X92126421Y-119061802D01*
X92126414Y-119061799D01*
X92122047Y-119059257D01*
X92117324Y-119057444D01*
X91890400Y-118970336D01*
X91890396Y-118970335D01*
X91885676Y-118968523D01*
X91880726Y-118967489D01*
X91880723Y-118967488D01*
X91642790Y-118917781D01*
X91642786Y-118917781D01*
X91637839Y-118916747D01*
X91384911Y-118905262D01*
X91379890Y-118905843D01*
X91379887Y-118905843D01*
X91276710Y-118917781D01*
X91133401Y-118934362D01*
X91128527Y-118935741D01*
X91128523Y-118935742D01*
X90894648Y-119001922D01*
X90894646Y-119001923D01*
X90889779Y-119003300D01*
X90885204Y-119005434D01*
X90885197Y-119005436D01*
X90764321Y-119061802D01*
X90660313Y-119110302D01*
X90656137Y-119113140D01*
X90656130Y-119113144D01*
X90497283Y-119221097D01*
X90450906Y-119252615D01*
X90266946Y-119426577D01*
X90113166Y-119627714D01*
X89993521Y-119850849D01*
X89911091Y-120090243D01*
X89867996Y-120339736D01*
X89865345Y-120592911D01*
X82042000Y-120592911D01*
X82042000Y-112292911D01*
X89865345Y-112292911D01*
X89903206Y-112543252D01*
X89980604Y-112784320D01*
X89982902Y-112788830D01*
X89982904Y-112788835D01*
X90045042Y-112910787D01*
X90095549Y-113009912D01*
X90245083Y-113214224D01*
X90425360Y-113392001D01*
X90429485Y-113394933D01*
X90429488Y-113394935D01*
X90502799Y-113447034D01*
X90631740Y-113538668D01*
X90858915Y-113650452D01*
X90863759Y-113651933D01*
X91096192Y-113722995D01*
X91096194Y-113722995D01*
X91101040Y-113724477D01*
X91351886Y-113758839D01*
X91422567Y-113757112D01*
X91599937Y-113752777D01*
X91599941Y-113752777D01*
X91604998Y-113752653D01*
X91853866Y-113706079D01*
X92092085Y-113620314D01*
X92313529Y-113497566D01*
X92317507Y-113494436D01*
X92317511Y-113494433D01*
X92508522Y-113344122D01*
X92508523Y-113344121D01*
X92512498Y-113340993D01*
X92683875Y-113154622D01*
X92823250Y-112943248D01*
X92825325Y-112938631D01*
X92924964Y-112716926D01*
X92924966Y-112716920D01*
X92927038Y-112712310D01*
X92992568Y-112467749D01*
X93018154Y-112215858D01*
X93018500Y-112182800D01*
X93006990Y-112039736D01*
X92998601Y-111935469D01*
X92998600Y-111935464D01*
X92998195Y-111930428D01*
X92937801Y-111684548D01*
X92838872Y-111451487D01*
X92703954Y-111237241D01*
X92536518Y-111047322D01*
X92340871Y-110886616D01*
X92122047Y-110759257D01*
X92109473Y-110754430D01*
X92053046Y-110711345D01*
X92028870Y-110644591D01*
X92044622Y-110575364D01*
X92095300Y-110525642D01*
X92154629Y-110510800D01*
X92402743Y-110510800D01*
X92407250Y-110510639D01*
X92471269Y-110506060D01*
X92484491Y-110503674D01*
X92609458Y-110466981D01*
X92625692Y-110459567D01*
X92733360Y-110390374D01*
X92746847Y-110378688D01*
X92830662Y-110281960D01*
X92840307Y-110266952D01*
X92893477Y-110150525D01*
X92898502Y-110133412D01*
X92917361Y-110002246D01*
X92918000Y-109993303D01*
X92918000Y-109354915D01*
X92913525Y-109339676D01*
X92912135Y-109338471D01*
X92904452Y-109336800D01*
X89980115Y-109336800D01*
X89964876Y-109341275D01*
X89963671Y-109342665D01*
X89962000Y-109350348D01*
X89962000Y-109995543D01*
X89962161Y-110000050D01*
X89966740Y-110064069D01*
X89969126Y-110077291D01*
X90005819Y-110202258D01*
X90013233Y-110218492D01*
X90082426Y-110326160D01*
X90094112Y-110339647D01*
X90190840Y-110423462D01*
X90205848Y-110433107D01*
X90322275Y-110486277D01*
X90339388Y-110491302D01*
X90470554Y-110510161D01*
X90479495Y-110510800D01*
X90734247Y-110510800D01*
X90802368Y-110530802D01*
X90848861Y-110584458D01*
X90858965Y-110654732D01*
X90829471Y-110719312D01*
X90787497Y-110750995D01*
X90660313Y-110810302D01*
X90656137Y-110813140D01*
X90656130Y-110813144D01*
X90551761Y-110884074D01*
X90450906Y-110952615D01*
X90266946Y-111126577D01*
X90113166Y-111327714D01*
X89993521Y-111550849D01*
X89911091Y-111790243D01*
X89867996Y-112039736D01*
X89865345Y-112292911D01*
X82042000Y-112292911D01*
X82042000Y-108172295D01*
X89962000Y-108172295D01*
X89962000Y-108810685D01*
X89966475Y-108825924D01*
X89967865Y-108827129D01*
X89975548Y-108828800D01*
X91167885Y-108828800D01*
X91183124Y-108824325D01*
X91184329Y-108822935D01*
X91186000Y-108815252D01*
X91186000Y-107672915D01*
X91184659Y-107668348D01*
X91694000Y-107668348D01*
X91694000Y-108810685D01*
X91698475Y-108825924D01*
X91699865Y-108827129D01*
X91707548Y-108828800D01*
X92899885Y-108828800D01*
X92915124Y-108824325D01*
X92916329Y-108822935D01*
X92918000Y-108815252D01*
X92918000Y-108170057D01*
X92917839Y-108165550D01*
X92913260Y-108101531D01*
X92910874Y-108088309D01*
X92874181Y-107963342D01*
X92866767Y-107947108D01*
X92797574Y-107839440D01*
X92785888Y-107825953D01*
X92689160Y-107742138D01*
X92674152Y-107732493D01*
X92557725Y-107679323D01*
X92540612Y-107674298D01*
X92409446Y-107655439D01*
X92400505Y-107654800D01*
X91712115Y-107654800D01*
X91696876Y-107659275D01*
X91695671Y-107660665D01*
X91694000Y-107668348D01*
X91184659Y-107668348D01*
X91181525Y-107657676D01*
X91180135Y-107656471D01*
X91172452Y-107654800D01*
X90477257Y-107654800D01*
X90472750Y-107654961D01*
X90408731Y-107659540D01*
X90395509Y-107661926D01*
X90270542Y-107698619D01*
X90254308Y-107706033D01*
X90146640Y-107775226D01*
X90133153Y-107786912D01*
X90049338Y-107883640D01*
X90039693Y-107898648D01*
X89986523Y-108015075D01*
X89981498Y-108032188D01*
X89962639Y-108163354D01*
X89962000Y-108172295D01*
X82042000Y-108172295D01*
X82042000Y-95072196D01*
X83624895Y-95072196D01*
X83625744Y-95077742D01*
X83656453Y-95278426D01*
X83657529Y-95285460D01*
X83659346Y-95290766D01*
X83725525Y-95484060D01*
X83727413Y-95489575D01*
X83832338Y-95678088D01*
X83835891Y-95682428D01*
X83835893Y-95682432D01*
X83924374Y-95790534D01*
X83968987Y-95845041D01*
X84133042Y-95985158D01*
X84137887Y-95987989D01*
X84314470Y-96091176D01*
X84314473Y-96091177D01*
X84319317Y-96094008D01*
X84324587Y-96095937D01*
X84324588Y-96095937D01*
X84516659Y-96166225D01*
X84516663Y-96166226D01*
X84521923Y-96168151D01*
X84527439Y-96169114D01*
X84527444Y-96169115D01*
X84728933Y-96204280D01*
X84728934Y-96204280D01*
X84734457Y-96205244D01*
X84740063Y-96205215D01*
X84740067Y-96205215D01*
X84838301Y-96204700D01*
X84950200Y-96204114D01*
X84955718Y-96203091D01*
X84955721Y-96203091D01*
X85156815Y-96165821D01*
X85156816Y-96165821D01*
X85162334Y-96164798D01*
X85167579Y-96162816D01*
X85167583Y-96162815D01*
X85349674Y-96094008D01*
X85364153Y-96088537D01*
X85549277Y-95977742D01*
X85553497Y-95974060D01*
X85553502Y-95974057D01*
X85707626Y-95839606D01*
X85711856Y-95835916D01*
X85724003Y-95820754D01*
X85843244Y-95671918D01*
X85843247Y-95671913D01*
X85846750Y-95667541D01*
X85949695Y-95477939D01*
X86017438Y-95273104D01*
X86018137Y-95268194D01*
X88735390Y-95268194D01*
X88737165Y-95279795D01*
X88739831Y-95290648D01*
X88806050Y-95484060D01*
X88810601Y-95494280D01*
X88910020Y-95672900D01*
X88916306Y-95682150D01*
X89045792Y-95840351D01*
X89053613Y-95848338D01*
X89209062Y-95981103D01*
X89218179Y-95987582D01*
X89394683Y-96090723D01*
X89404801Y-96095484D01*
X89596786Y-96165741D01*
X89607574Y-96168632D01*
X89644155Y-96175016D01*
X89657520Y-96173502D01*
X89662000Y-96159049D01*
X89662000Y-95268115D01*
X89660659Y-95263548D01*
X90170000Y-95263548D01*
X90170000Y-96159583D01*
X90173724Y-96172266D01*
X90189094Y-96174159D01*
X90236686Y-96165338D01*
X90247446Y-96162334D01*
X90438689Y-96090069D01*
X90448749Y-96085206D01*
X90624173Y-95980217D01*
X90633208Y-95973653D01*
X90787263Y-95839262D01*
X90795008Y-95831185D01*
X90922824Y-95671644D01*
X90929010Y-95662334D01*
X91026561Y-95482666D01*
X91030995Y-95472420D01*
X91095191Y-95278312D01*
X91097653Y-95267815D01*
X91095639Y-95253949D01*
X91082154Y-95250000D01*
X90188115Y-95250000D01*
X90172876Y-95254475D01*
X90171671Y-95255865D01*
X90170000Y-95263548D01*
X89660659Y-95263548D01*
X89657525Y-95252876D01*
X89656135Y-95251671D01*
X89648452Y-95250000D01*
X88750721Y-95250000D01*
X88737377Y-95253918D01*
X88735390Y-95268194D01*
X86018137Y-95268194D01*
X86046032Y-95072196D01*
X98356895Y-95072196D01*
X98357744Y-95077742D01*
X98388453Y-95278426D01*
X98389529Y-95285460D01*
X98391346Y-95290766D01*
X98457525Y-95484060D01*
X98459413Y-95489575D01*
X98564338Y-95678088D01*
X98567891Y-95682428D01*
X98567893Y-95682432D01*
X98656374Y-95790534D01*
X98700987Y-95845041D01*
X98865042Y-95985158D01*
X98869887Y-95987989D01*
X99046470Y-96091176D01*
X99046473Y-96091177D01*
X99051317Y-96094008D01*
X99056587Y-96095937D01*
X99056588Y-96095937D01*
X99248659Y-96166225D01*
X99248663Y-96166226D01*
X99253923Y-96168151D01*
X99259439Y-96169114D01*
X99259444Y-96169115D01*
X99460933Y-96204280D01*
X99460934Y-96204280D01*
X99466457Y-96205244D01*
X99472063Y-96205215D01*
X99472067Y-96205215D01*
X99570301Y-96204700D01*
X99682200Y-96204114D01*
X99687718Y-96203091D01*
X99687721Y-96203091D01*
X99888815Y-96165821D01*
X99888816Y-96165821D01*
X99894334Y-96164798D01*
X99899579Y-96162816D01*
X99899583Y-96162815D01*
X100081674Y-96094008D01*
X100096153Y-96088537D01*
X100281277Y-95977742D01*
X100285497Y-95974060D01*
X100285502Y-95974057D01*
X100439626Y-95839606D01*
X100443856Y-95835916D01*
X100456003Y-95820754D01*
X100575244Y-95671918D01*
X100575247Y-95671913D01*
X100578750Y-95667541D01*
X100681695Y-95477939D01*
X100749438Y-95273104D01*
X100750137Y-95268194D01*
X103467390Y-95268194D01*
X103469165Y-95279795D01*
X103471831Y-95290648D01*
X103538050Y-95484060D01*
X103542601Y-95494280D01*
X103642020Y-95672900D01*
X103648306Y-95682150D01*
X103777792Y-95840351D01*
X103785613Y-95848338D01*
X103941062Y-95981103D01*
X103950179Y-95987582D01*
X104126683Y-96090723D01*
X104136801Y-96095484D01*
X104328786Y-96165741D01*
X104339574Y-96168632D01*
X104376155Y-96175016D01*
X104389520Y-96173502D01*
X104394000Y-96159049D01*
X104394000Y-95268115D01*
X104392659Y-95263548D01*
X104902000Y-95263548D01*
X104902000Y-96159583D01*
X104905724Y-96172266D01*
X104921094Y-96174159D01*
X104968686Y-96165338D01*
X104979446Y-96162334D01*
X105170689Y-96090069D01*
X105180749Y-96085206D01*
X105356173Y-95980217D01*
X105365208Y-95973653D01*
X105519263Y-95839262D01*
X105527008Y-95831185D01*
X105654824Y-95671644D01*
X105661010Y-95662334D01*
X105758561Y-95482666D01*
X105762995Y-95472420D01*
X105827191Y-95278312D01*
X105829653Y-95267815D01*
X105827639Y-95253949D01*
X105814154Y-95250000D01*
X104920115Y-95250000D01*
X104904876Y-95254475D01*
X104903671Y-95255865D01*
X104902000Y-95263548D01*
X104392659Y-95263548D01*
X104389525Y-95252876D01*
X104388135Y-95251671D01*
X104380452Y-95250000D01*
X103482721Y-95250000D01*
X103469377Y-95253918D01*
X103467390Y-95268194D01*
X100750137Y-95268194D01*
X100779837Y-95059510D01*
X100781500Y-94996000D01*
X100762321Y-94781108D01*
X100746769Y-94724260D01*
X103470441Y-94724260D01*
X103471587Y-94738316D01*
X103481775Y-94742000D01*
X104375885Y-94742000D01*
X104391124Y-94737525D01*
X104392329Y-94736135D01*
X104394000Y-94728452D01*
X104394000Y-93828264D01*
X104902000Y-93828264D01*
X104902000Y-94723885D01*
X104906475Y-94739124D01*
X104907865Y-94740329D01*
X104915548Y-94742000D01*
X105812991Y-94742000D01*
X105826522Y-94738027D01*
X105827727Y-94729647D01*
X105786403Y-94578593D01*
X105782509Y-94568120D01*
X105694494Y-94383595D01*
X105688808Y-94373980D01*
X105569511Y-94207960D01*
X105562203Y-94199494D01*
X105415394Y-94057225D01*
X105406712Y-94050195D01*
X105237020Y-93936166D01*
X105227231Y-93930786D01*
X105040040Y-93848614D01*
X105029441Y-93845047D01*
X104919615Y-93818680D01*
X104905530Y-93819385D01*
X104902000Y-93828264D01*
X104394000Y-93828264D01*
X104394000Y-93828177D01*
X104390027Y-93814646D01*
X104382579Y-93813575D01*
X104195040Y-93871270D01*
X104184695Y-93875491D01*
X104003025Y-93969258D01*
X103993594Y-93975243D01*
X103831394Y-94099704D01*
X103823180Y-94107257D01*
X103685582Y-94258475D01*
X103678829Y-94267371D01*
X103570188Y-94440562D01*
X103565117Y-94450514D01*
X103488864Y-94640198D01*
X103485633Y-94650898D01*
X103470441Y-94724260D01*
X100746769Y-94724260D01*
X100723773Y-94640198D01*
X100706874Y-94578424D01*
X100706873Y-94578420D01*
X100705392Y-94573008D01*
X100612510Y-94378278D01*
X100529186Y-94262319D01*
X100489890Y-94207632D01*
X100489885Y-94207627D01*
X100486614Y-94203074D01*
X100331680Y-94052933D01*
X100210358Y-93971408D01*
X100157261Y-93935728D01*
X100157255Y-93935725D01*
X100152608Y-93932602D01*
X100007224Y-93868783D01*
X99960199Y-93848140D01*
X99960197Y-93848139D01*
X99955057Y-93845883D01*
X99808376Y-93810668D01*
X99750729Y-93796828D01*
X99750728Y-93796828D01*
X99745272Y-93795518D01*
X99662801Y-93790763D01*
X99535490Y-93783422D01*
X99535487Y-93783422D01*
X99529883Y-93783099D01*
X99315699Y-93809018D01*
X99109490Y-93872456D01*
X99104510Y-93875026D01*
X99104506Y-93875028D01*
X98922757Y-93968836D01*
X98917774Y-93971408D01*
X98746611Y-94102746D01*
X98601411Y-94262319D01*
X98486764Y-94445083D01*
X98406293Y-94645260D01*
X98405156Y-94650751D01*
X98405155Y-94650754D01*
X98377101Y-94786223D01*
X98362542Y-94856524D01*
X98356895Y-95072196D01*
X86046032Y-95072196D01*
X86047837Y-95059510D01*
X86049500Y-94996000D01*
X86030321Y-94781108D01*
X86014769Y-94724260D01*
X88738441Y-94724260D01*
X88739587Y-94738316D01*
X88749775Y-94742000D01*
X89643885Y-94742000D01*
X89659124Y-94737525D01*
X89660329Y-94736135D01*
X89662000Y-94728452D01*
X89662000Y-93828264D01*
X90170000Y-93828264D01*
X90170000Y-94723885D01*
X90174475Y-94739124D01*
X90175865Y-94740329D01*
X90183548Y-94742000D01*
X91080991Y-94742000D01*
X91094522Y-94738027D01*
X91095727Y-94729647D01*
X91054403Y-94578593D01*
X91050509Y-94568120D01*
X90962494Y-94383595D01*
X90956808Y-94373980D01*
X90837511Y-94207960D01*
X90830203Y-94199494D01*
X90683394Y-94057225D01*
X90674712Y-94050195D01*
X90505020Y-93936166D01*
X90495231Y-93930786D01*
X90308040Y-93848614D01*
X90297441Y-93845047D01*
X90187615Y-93818680D01*
X90173530Y-93819385D01*
X90170000Y-93828264D01*
X89662000Y-93828264D01*
X89662000Y-93828177D01*
X89658027Y-93814646D01*
X89650579Y-93813575D01*
X89463040Y-93871270D01*
X89452695Y-93875491D01*
X89271025Y-93969258D01*
X89261594Y-93975243D01*
X89099394Y-94099704D01*
X89091180Y-94107257D01*
X88953582Y-94258475D01*
X88946829Y-94267371D01*
X88838188Y-94440562D01*
X88833117Y-94450514D01*
X88756864Y-94640198D01*
X88753633Y-94650898D01*
X88738441Y-94724260D01*
X86014769Y-94724260D01*
X85991773Y-94640198D01*
X85974874Y-94578424D01*
X85974873Y-94578420D01*
X85973392Y-94573008D01*
X85880510Y-94378278D01*
X85797186Y-94262319D01*
X85757890Y-94207632D01*
X85757885Y-94207627D01*
X85754614Y-94203074D01*
X85599680Y-94052933D01*
X85478358Y-93971408D01*
X85425261Y-93935728D01*
X85425255Y-93935725D01*
X85420608Y-93932602D01*
X85275224Y-93868783D01*
X85228199Y-93848140D01*
X85228197Y-93848139D01*
X85223057Y-93845883D01*
X85076376Y-93810668D01*
X85018729Y-93796828D01*
X85018728Y-93796828D01*
X85013272Y-93795518D01*
X84930801Y-93790763D01*
X84803490Y-93783422D01*
X84803487Y-93783422D01*
X84797883Y-93783099D01*
X84583699Y-93809018D01*
X84377490Y-93872456D01*
X84372510Y-93875026D01*
X84372506Y-93875028D01*
X84190757Y-93968836D01*
X84185774Y-93971408D01*
X84014611Y-94102746D01*
X83869411Y-94262319D01*
X83754764Y-94445083D01*
X83674293Y-94645260D01*
X83673156Y-94650751D01*
X83673155Y-94650754D01*
X83645101Y-94786223D01*
X83630542Y-94856524D01*
X83624895Y-95072196D01*
X82042000Y-95072196D01*
X82042000Y-89523148D01*
X91857000Y-89523148D01*
X91857000Y-90103343D01*
X91857161Y-90107850D01*
X91861740Y-90171869D01*
X91864126Y-90185091D01*
X91900819Y-90310058D01*
X91908233Y-90326292D01*
X91977426Y-90433960D01*
X91989112Y-90447447D01*
X92085840Y-90531262D01*
X92100848Y-90540907D01*
X92217275Y-90594077D01*
X92234388Y-90599102D01*
X92365554Y-90617961D01*
X92374495Y-90618600D01*
X92947885Y-90618600D01*
X92963124Y-90614125D01*
X92964329Y-90612735D01*
X92966000Y-90605052D01*
X92966000Y-89527715D01*
X92964659Y-89523148D01*
X93474000Y-89523148D01*
X93474000Y-90600485D01*
X93478475Y-90615724D01*
X93479865Y-90616929D01*
X93487548Y-90618600D01*
X94067743Y-90618600D01*
X94072250Y-90618439D01*
X94136269Y-90613860D01*
X94149491Y-90611474D01*
X94274458Y-90574781D01*
X94290692Y-90567367D01*
X94398360Y-90498174D01*
X94411847Y-90486488D01*
X94495662Y-90389760D01*
X94505307Y-90374752D01*
X94558477Y-90258325D01*
X94563502Y-90241212D01*
X94582361Y-90110046D01*
X94583000Y-90101103D01*
X94583000Y-89527715D01*
X94578525Y-89512476D01*
X94577135Y-89511271D01*
X94569452Y-89509600D01*
X93492115Y-89509600D01*
X93476876Y-89514075D01*
X93475671Y-89515465D01*
X93474000Y-89523148D01*
X92964659Y-89523148D01*
X92961525Y-89512476D01*
X92960135Y-89511271D01*
X92952452Y-89509600D01*
X91875115Y-89509600D01*
X91859876Y-89514075D01*
X91858671Y-89515465D01*
X91857000Y-89523148D01*
X82042000Y-89523148D01*
X82042000Y-88410095D01*
X91857000Y-88410095D01*
X91857000Y-88983485D01*
X91861475Y-88998724D01*
X91862865Y-88999929D01*
X91870548Y-89001600D01*
X94564885Y-89001600D01*
X94580124Y-88997125D01*
X94581329Y-88995735D01*
X94583000Y-88988052D01*
X94583000Y-88407857D01*
X94582839Y-88403350D01*
X94578260Y-88339331D01*
X94575874Y-88326109D01*
X94539181Y-88201142D01*
X94531767Y-88184908D01*
X94462574Y-88077240D01*
X94450888Y-88063753D01*
X94354160Y-87979938D01*
X94339152Y-87970293D01*
X94222721Y-87917121D01*
X94208009Y-87912801D01*
X94148284Y-87874416D01*
X94118792Y-87809835D01*
X94128898Y-87739561D01*
X94154024Y-87703204D01*
X94266030Y-87590217D01*
X94353043Y-87466180D01*
X94395375Y-87405836D01*
X94395376Y-87405834D01*
X94398439Y-87401468D01*
X94497153Y-87193108D01*
X94559349Y-86971094D01*
X94583249Y-86741776D01*
X94583500Y-86715600D01*
X94583250Y-86712652D01*
X94564458Y-86491176D01*
X94564457Y-86491172D01*
X94564007Y-86485865D01*
X94506084Y-86262698D01*
X94454731Y-86148698D01*
X94413578Y-86057343D01*
X94413577Y-86057341D01*
X94411388Y-86052482D01*
X94282627Y-85861226D01*
X94123482Y-85694399D01*
X93938504Y-85556771D01*
X93933743Y-85554351D01*
X93930425Y-85552293D01*
X93883071Y-85499396D01*
X93871832Y-85429295D01*
X93900277Y-85364245D01*
X93923564Y-85342693D01*
X93932304Y-85336447D01*
X94103711Y-85213957D01*
X94266030Y-85050217D01*
X94353043Y-84926180D01*
X94395375Y-84865836D01*
X94395376Y-84865834D01*
X94398439Y-84861468D01*
X94497153Y-84653108D01*
X94559349Y-84431094D01*
X94583249Y-84201776D01*
X94583500Y-84175600D01*
X94583250Y-84172652D01*
X94564458Y-83951176D01*
X94564457Y-83951172D01*
X94564007Y-83945865D01*
X94506084Y-83722698D01*
X94454731Y-83608698D01*
X94413578Y-83517343D01*
X94413577Y-83517341D01*
X94411388Y-83512482D01*
X94282627Y-83321226D01*
X94123482Y-83154399D01*
X93938504Y-83016771D01*
X93933743Y-83014351D01*
X93930425Y-83012293D01*
X93883071Y-82959396D01*
X93871832Y-82889295D01*
X93900277Y-82824245D01*
X93923564Y-82802693D01*
X94017830Y-82735329D01*
X94099742Y-82676793D01*
X98813636Y-82676793D01*
X98819708Y-82684905D01*
X98951034Y-82768086D01*
X98960480Y-82773003D01*
X99171128Y-82860904D01*
X99181256Y-82864155D01*
X99403701Y-82915306D01*
X99414240Y-82916806D01*
X99642119Y-82929746D01*
X99652762Y-82929449D01*
X99879563Y-82903809D01*
X99889998Y-82901725D01*
X100109256Y-82838231D01*
X100119173Y-82834424D01*
X100324598Y-82734896D01*
X100333736Y-82729470D01*
X100393022Y-82687105D01*
X100401425Y-82676382D01*
X100394446Y-82663257D01*
X99620811Y-81889621D01*
X99606868Y-81882008D01*
X99605034Y-81882139D01*
X99598420Y-81886390D01*
X98820393Y-82664418D01*
X98813636Y-82676793D01*
X94099742Y-82676793D01*
X94103711Y-82673957D01*
X94266030Y-82510217D01*
X94353043Y-82386180D01*
X94395375Y-82325836D01*
X94395376Y-82325834D01*
X94398439Y-82321468D01*
X94497153Y-82113108D01*
X94559349Y-81891094D01*
X94562123Y-81864483D01*
X94582941Y-81664727D01*
X94583249Y-81661776D01*
X94583500Y-81635600D01*
X94583250Y-81632652D01*
X94582024Y-81618203D01*
X98199028Y-81618203D01*
X98199826Y-81628816D01*
X98236124Y-81854174D01*
X98238695Y-81864483D01*
X98312445Y-82080503D01*
X98316719Y-82090239D01*
X98425809Y-82290740D01*
X98431664Y-82299620D01*
X98435923Y-82305022D01*
X98447849Y-82313493D01*
X98459382Y-82307007D01*
X99235979Y-81530411D01*
X99242356Y-81518732D01*
X99972408Y-81518732D01*
X99972539Y-81520566D01*
X99976790Y-81527180D01*
X100754057Y-82304446D01*
X100765845Y-82310883D01*
X100775260Y-82303605D01*
X100841389Y-82277771D01*
X100910988Y-82291790D01*
X100951266Y-82325290D01*
X101075916Y-82483407D01*
X101253399Y-82643495D01*
X101257912Y-82646354D01*
X101257914Y-82646355D01*
X101322250Y-82687105D01*
X101455318Y-82771390D01*
X101543074Y-82808009D01*
X101669835Y-82860904D01*
X101675900Y-82863435D01*
X101788361Y-82889295D01*
X101903629Y-82915801D01*
X101903633Y-82915802D01*
X101908836Y-82916998D01*
X101914169Y-82917301D01*
X101914170Y-82917301D01*
X102012505Y-82922885D01*
X102147467Y-82930549D01*
X102152774Y-82929949D01*
X102152776Y-82929949D01*
X102309084Y-82912278D01*
X102384970Y-82903699D01*
X102390085Y-82902218D01*
X102390089Y-82902217D01*
X102609430Y-82838700D01*
X102609435Y-82838698D01*
X102614553Y-82837216D01*
X102829652Y-82733001D01*
X103024117Y-82594034D01*
X103192388Y-82424289D01*
X103253775Y-82336782D01*
X103309271Y-82292502D01*
X103379897Y-82285255D01*
X103443229Y-82317341D01*
X103455875Y-82331137D01*
X103499268Y-82386180D01*
X103575916Y-82483407D01*
X103753399Y-82643495D01*
X103757912Y-82646354D01*
X103757914Y-82646355D01*
X103822250Y-82687105D01*
X103955318Y-82771390D01*
X104043074Y-82808009D01*
X104169835Y-82860904D01*
X104175900Y-82863435D01*
X104288361Y-82889295D01*
X104403629Y-82915801D01*
X104403633Y-82915802D01*
X104408836Y-82916998D01*
X104414169Y-82917301D01*
X104414170Y-82917301D01*
X104512505Y-82922885D01*
X104647467Y-82930549D01*
X104652774Y-82929949D01*
X104652776Y-82929949D01*
X104809084Y-82912278D01*
X104884970Y-82903699D01*
X104890085Y-82902218D01*
X104890089Y-82902217D01*
X105109430Y-82838700D01*
X105109435Y-82838698D01*
X105114553Y-82837216D01*
X105329652Y-82733001D01*
X105524117Y-82594034D01*
X105692388Y-82424289D01*
X105786074Y-82290740D01*
X105826588Y-82232987D01*
X105826589Y-82232985D01*
X105829652Y-82228619D01*
X105931986Y-82012618D01*
X105996463Y-81782463D01*
X106013023Y-81623582D01*
X106020933Y-81547683D01*
X106020933Y-81547680D01*
X106021240Y-81544736D01*
X106021500Y-81517600D01*
X106001292Y-81279440D01*
X105968931Y-81154759D01*
X105942586Y-81053255D01*
X105942584Y-81053250D01*
X105941245Y-81048090D01*
X105860095Y-80867944D01*
X105845267Y-80835026D01*
X105845266Y-80835023D01*
X105843077Y-80830165D01*
X105709594Y-80631896D01*
X105689867Y-80611216D01*
X105611105Y-80528653D01*
X105544613Y-80458951D01*
X105352852Y-80316277D01*
X105348101Y-80313861D01*
X105348097Y-80313859D01*
X105144549Y-80210370D01*
X105144548Y-80210370D01*
X105139793Y-80207952D01*
X104911528Y-80137074D01*
X104888011Y-80133957D01*
X104679868Y-80106369D01*
X104679865Y-80106369D01*
X104674585Y-80105669D01*
X104669256Y-80105869D01*
X104669255Y-80105869D01*
X104572684Y-80109495D01*
X104435738Y-80114636D01*
X104361709Y-80130169D01*
X104207043Y-80162621D01*
X104207040Y-80162622D01*
X104201816Y-80163718D01*
X103979508Y-80251511D01*
X103974944Y-80254280D01*
X103974945Y-80254280D01*
X103779732Y-80372738D01*
X103779729Y-80372740D01*
X103775171Y-80375506D01*
X103594647Y-80532157D01*
X103591264Y-80536283D01*
X103591259Y-80536288D01*
X103453709Y-80704044D01*
X103395050Y-80744038D01*
X103324079Y-80745970D01*
X103263331Y-80709226D01*
X103251755Y-80694520D01*
X103245356Y-80685015D01*
X103209594Y-80631896D01*
X103189867Y-80611216D01*
X103111105Y-80528653D01*
X103044613Y-80458951D01*
X102852852Y-80316277D01*
X102848101Y-80313861D01*
X102848097Y-80313859D01*
X102644549Y-80210370D01*
X102644548Y-80210370D01*
X102639793Y-80207952D01*
X102411528Y-80137074D01*
X102388011Y-80133957D01*
X102179868Y-80106369D01*
X102179865Y-80106369D01*
X102174585Y-80105669D01*
X102169256Y-80105869D01*
X102169255Y-80105869D01*
X102072684Y-80109495D01*
X101935738Y-80114636D01*
X101861709Y-80130169D01*
X101707043Y-80162621D01*
X101707040Y-80162622D01*
X101701816Y-80163718D01*
X101479508Y-80251511D01*
X101474944Y-80254280D01*
X101474945Y-80254280D01*
X101279732Y-80372738D01*
X101279729Y-80372740D01*
X101275171Y-80375506D01*
X101094647Y-80532157D01*
X101091264Y-80536283D01*
X101091259Y-80536288D01*
X100948430Y-80710482D01*
X100889771Y-80750476D01*
X100818800Y-80752408D01*
X100770536Y-80727556D01*
X100767012Y-80724632D01*
X100752954Y-80731857D01*
X99980021Y-81504789D01*
X99972408Y-81518732D01*
X99242356Y-81518732D01*
X99243592Y-81516468D01*
X99243461Y-81514634D01*
X99239210Y-81508020D01*
X98458547Y-80727358D01*
X98445366Y-80720160D01*
X98439462Y-80724379D01*
X98327951Y-80920274D01*
X98323488Y-80929934D01*
X98245608Y-81144491D01*
X98242837Y-81154759D01*
X98202221Y-81379371D01*
X98201220Y-81389964D01*
X98199028Y-81618203D01*
X94582024Y-81618203D01*
X94564458Y-81411176D01*
X94564457Y-81411172D01*
X94564007Y-81405865D01*
X94557131Y-81379371D01*
X94507426Y-81187869D01*
X94506084Y-81182698D01*
X94493499Y-81154759D01*
X94413578Y-80977343D01*
X94413577Y-80977341D01*
X94411388Y-80972482D01*
X94282627Y-80781226D01*
X94248995Y-80745970D01*
X94127161Y-80618256D01*
X94123482Y-80614399D01*
X93938504Y-80476771D01*
X93933743Y-80474351D01*
X93930425Y-80472293D01*
X93883071Y-80419396D01*
X93873232Y-80358026D01*
X98812599Y-80358026D01*
X98816279Y-80366668D01*
X99595189Y-81145579D01*
X99609132Y-81153192D01*
X99610966Y-81153061D01*
X99617580Y-81148810D01*
X100395456Y-80370933D01*
X100402183Y-80358614D01*
X100393653Y-80347254D01*
X100356867Y-80319885D01*
X100347837Y-80314286D01*
X100144361Y-80210833D01*
X100134510Y-80206833D01*
X99916514Y-80139144D01*
X99906133Y-80136861D01*
X99679846Y-80106869D01*
X99669230Y-80106369D01*
X99441130Y-80114932D01*
X99430581Y-80116227D01*
X99207187Y-80163100D01*
X99196990Y-80166160D01*
X98984699Y-80249997D01*
X98975167Y-80254728D01*
X98822106Y-80347608D01*
X98812599Y-80358026D01*
X93873232Y-80358026D01*
X93871832Y-80349295D01*
X93900277Y-80284245D01*
X93923564Y-80262693D01*
X93935337Y-80254280D01*
X94103711Y-80133957D01*
X94266030Y-79970217D01*
X94353043Y-79846180D01*
X94395375Y-79785836D01*
X94395376Y-79785834D01*
X94398439Y-79781468D01*
X94497153Y-79573108D01*
X94559349Y-79351094D01*
X94583249Y-79121776D01*
X94583500Y-79095600D01*
X94583250Y-79092652D01*
X94564458Y-78871176D01*
X94564457Y-78871172D01*
X94564007Y-78865865D01*
X94506084Y-78642698D01*
X94454731Y-78528698D01*
X94413578Y-78437343D01*
X94413577Y-78437341D01*
X94411388Y-78432482D01*
X94282627Y-78241226D01*
X94123482Y-78074399D01*
X93938504Y-77936771D01*
X93933743Y-77934351D01*
X93930425Y-77932293D01*
X93883071Y-77879396D01*
X93871832Y-77809295D01*
X93900277Y-77744245D01*
X93923564Y-77722693D01*
X93932304Y-77716447D01*
X94103711Y-77593957D01*
X94266030Y-77430217D01*
X94353043Y-77306180D01*
X94395375Y-77245836D01*
X94395376Y-77245834D01*
X94398439Y-77241468D01*
X94497153Y-77033108D01*
X94559349Y-76811094D01*
X94583249Y-76581776D01*
X94583500Y-76555600D01*
X94575101Y-76456613D01*
X94564458Y-76331176D01*
X94564457Y-76331172D01*
X94564007Y-76325865D01*
X94506084Y-76102698D01*
X94457569Y-75994998D01*
X94413578Y-75897343D01*
X94413577Y-75897341D01*
X94411388Y-75892482D01*
X94282627Y-75701226D01*
X94123482Y-75534399D01*
X93938504Y-75396771D01*
X93933743Y-75394351D01*
X93930425Y-75392293D01*
X93883071Y-75339396D01*
X93871832Y-75269295D01*
X93900277Y-75204245D01*
X93923564Y-75182693D01*
X93985012Y-75138781D01*
X94103711Y-75053957D01*
X94266030Y-74890217D01*
X94350103Y-74770371D01*
X94395375Y-74705836D01*
X94395376Y-74705834D01*
X94398439Y-74701468D01*
X94485550Y-74517600D01*
X95194500Y-74517600D01*
X95214320Y-74832625D01*
X95273466Y-75142682D01*
X95371007Y-75442881D01*
X95372694Y-75446467D01*
X95372696Y-75446471D01*
X95503715Y-75724902D01*
X95503719Y-75724909D01*
X95505403Y-75728488D01*
X95674536Y-75994998D01*
X95875737Y-76238209D01*
X96105835Y-76454285D01*
X96361199Y-76639818D01*
X96364668Y-76641725D01*
X96364671Y-76641727D01*
X96384253Y-76652492D01*
X96637804Y-76791883D01*
X96931286Y-76908081D01*
X97237017Y-76986579D01*
X97550176Y-77026140D01*
X97865824Y-77026140D01*
X98178983Y-76986579D01*
X98484714Y-76908081D01*
X98778196Y-76791883D01*
X99031748Y-76652492D01*
X99051329Y-76641727D01*
X99051332Y-76641725D01*
X99054801Y-76639818D01*
X99310165Y-76454285D01*
X99540263Y-76238209D01*
X99741464Y-75994998D01*
X99910597Y-75728488D01*
X99912281Y-75724909D01*
X99912285Y-75724902D01*
X100043304Y-75446471D01*
X100043306Y-75446467D01*
X100044993Y-75442881D01*
X100142534Y-75142682D01*
X100201680Y-74832625D01*
X100221500Y-74517600D01*
X103994500Y-74517600D01*
X104014320Y-74832625D01*
X104073466Y-75142682D01*
X104171007Y-75442881D01*
X104172694Y-75446467D01*
X104172696Y-75446471D01*
X104303715Y-75724902D01*
X104303719Y-75724909D01*
X104305403Y-75728488D01*
X104474536Y-75994998D01*
X104675737Y-76238209D01*
X104905835Y-76454285D01*
X105161199Y-76639818D01*
X105164668Y-76641725D01*
X105164671Y-76641727D01*
X105184253Y-76652492D01*
X105437804Y-76791883D01*
X105731286Y-76908081D01*
X106037017Y-76986579D01*
X106350176Y-77026140D01*
X106665824Y-77026140D01*
X106978983Y-76986579D01*
X107284714Y-76908081D01*
X107578196Y-76791883D01*
X107831748Y-76652492D01*
X107851329Y-76641727D01*
X107851332Y-76641725D01*
X107854801Y-76639818D01*
X108110165Y-76454285D01*
X108340263Y-76238209D01*
X108541464Y-75994998D01*
X108710597Y-75728488D01*
X108712281Y-75724909D01*
X108712285Y-75724902D01*
X108843304Y-75446471D01*
X108843306Y-75446467D01*
X108844993Y-75442881D01*
X108942534Y-75142682D01*
X109001680Y-74832625D01*
X109021500Y-74517600D01*
X109001680Y-74202575D01*
X108942534Y-73892518D01*
X108844993Y-73592319D01*
X108833488Y-73567869D01*
X108712285Y-73310298D01*
X108712281Y-73310291D01*
X108710597Y-73306712D01*
X108541464Y-73040202D01*
X108340263Y-72796991D01*
X108110165Y-72580915D01*
X107854801Y-72395382D01*
X107779533Y-72354003D01*
X107581658Y-72245220D01*
X107581655Y-72245219D01*
X107578196Y-72243317D01*
X107284714Y-72127119D01*
X106978983Y-72048621D01*
X106665824Y-72009060D01*
X106350176Y-72009060D01*
X106037017Y-72048621D01*
X105731286Y-72127119D01*
X105437804Y-72243317D01*
X105434345Y-72245219D01*
X105434342Y-72245220D01*
X105236467Y-72354003D01*
X105161199Y-72395382D01*
X104905835Y-72580915D01*
X104675737Y-72796991D01*
X104474536Y-73040202D01*
X104305403Y-73306712D01*
X104303719Y-73310291D01*
X104303715Y-73310298D01*
X104182512Y-73567869D01*
X104171007Y-73592319D01*
X104073466Y-73892518D01*
X104014320Y-74202575D01*
X103994500Y-74517600D01*
X100221500Y-74517600D01*
X100201680Y-74202575D01*
X100142534Y-73892518D01*
X100044993Y-73592319D01*
X100033488Y-73567869D01*
X99912285Y-73310298D01*
X99912281Y-73310291D01*
X99910597Y-73306712D01*
X99741464Y-73040202D01*
X99540263Y-72796991D01*
X99310165Y-72580915D01*
X99054801Y-72395382D01*
X98979533Y-72354003D01*
X98781658Y-72245220D01*
X98781655Y-72245219D01*
X98778196Y-72243317D01*
X98484714Y-72127119D01*
X98178983Y-72048621D01*
X97865824Y-72009060D01*
X97550176Y-72009060D01*
X97237017Y-72048621D01*
X96931286Y-72127119D01*
X96637804Y-72243317D01*
X96634345Y-72245219D01*
X96634342Y-72245220D01*
X96436467Y-72354003D01*
X96361199Y-72395382D01*
X96105835Y-72580915D01*
X95875737Y-72796991D01*
X95674536Y-73040202D01*
X95505403Y-73306712D01*
X95503719Y-73310291D01*
X95503715Y-73310298D01*
X95382512Y-73567869D01*
X95371007Y-73592319D01*
X95273466Y-73892518D01*
X95214320Y-74202575D01*
X95194500Y-74517600D01*
X94485550Y-74517600D01*
X94497153Y-74493108D01*
X94559349Y-74271094D01*
X94560692Y-74258214D01*
X94582941Y-74044727D01*
X94583249Y-74041776D01*
X94583500Y-74015600D01*
X94583250Y-74012652D01*
X94564458Y-73791176D01*
X94564457Y-73791172D01*
X94564007Y-73785865D01*
X94506084Y-73562698D01*
X94454731Y-73448698D01*
X94413578Y-73357343D01*
X94413577Y-73357341D01*
X94411388Y-73352482D01*
X94282627Y-73161226D01*
X94123482Y-72994399D01*
X93938504Y-72856771D01*
X93933743Y-72854351D01*
X93930425Y-72852293D01*
X93883071Y-72799396D01*
X93871832Y-72729295D01*
X93900277Y-72664245D01*
X93923564Y-72642693D01*
X93932304Y-72636447D01*
X94103711Y-72513957D01*
X94266030Y-72350217D01*
X94353043Y-72226180D01*
X94395375Y-72165836D01*
X94395376Y-72165834D01*
X94398439Y-72161468D01*
X94497153Y-71953108D01*
X94559349Y-71731094D01*
X94583249Y-71501776D01*
X94583500Y-71475600D01*
X94583250Y-71472652D01*
X94564458Y-71251176D01*
X94564457Y-71251172D01*
X94564007Y-71245865D01*
X94506084Y-71022698D01*
X94454731Y-70908698D01*
X94413578Y-70817343D01*
X94413577Y-70817341D01*
X94411388Y-70812482D01*
X94282627Y-70621226D01*
X94123482Y-70454399D01*
X93938504Y-70316771D01*
X93933743Y-70314351D01*
X93930425Y-70312293D01*
X93883071Y-70259396D01*
X93871832Y-70189295D01*
X93900277Y-70124245D01*
X93923564Y-70102693D01*
X93932304Y-70096447D01*
X94103711Y-69973957D01*
X94266030Y-69810217D01*
X94350103Y-69690371D01*
X94395375Y-69625836D01*
X94395376Y-69625834D01*
X94398439Y-69621468D01*
X94497153Y-69413108D01*
X94559349Y-69191094D01*
X94583249Y-68961776D01*
X94583500Y-68935600D01*
X94583250Y-68932652D01*
X94564458Y-68711176D01*
X94564457Y-68711172D01*
X94564007Y-68705865D01*
X94506084Y-68482698D01*
X94454731Y-68368698D01*
X94413578Y-68277343D01*
X94413577Y-68277341D01*
X94411388Y-68272482D01*
X94282627Y-68081226D01*
X94123482Y-67914399D01*
X93938504Y-67776771D01*
X93933742Y-67774350D01*
X93929967Y-67772009D01*
X93882613Y-67719112D01*
X93871374Y-67649010D01*
X93899819Y-67583961D01*
X93923107Y-67562409D01*
X94099034Y-67436689D01*
X94107149Y-67429782D01*
X94261893Y-67273682D01*
X94268706Y-67265533D01*
X94394940Y-67085588D01*
X94400295Y-67076387D01*
X94494399Y-66877756D01*
X94498123Y-66867797D01*
X94555968Y-66661318D01*
X94554430Y-66652951D01*
X94542137Y-66649600D01*
X91903403Y-66649600D01*
X91890222Y-66653470D01*
X91888255Y-66668023D01*
X91896638Y-66720071D01*
X91899212Y-66730393D01*
X91970230Y-66938410D01*
X91974497Y-66948133D01*
X92079556Y-67141225D01*
X92085402Y-67150091D01*
X92221486Y-67322713D01*
X92228750Y-67330475D01*
X92391967Y-67477694D01*
X92400444Y-67484128D01*
X92518717Y-67559042D01*
X92565562Y-67612390D01*
X92576129Y-67682596D01*
X92547062Y-67747370D01*
X92516662Y-67773205D01*
X92434057Y-67823331D01*
X92416631Y-67833906D01*
X92412601Y-67837403D01*
X92319426Y-67918256D01*
X92242492Y-67985015D01*
X92239109Y-67989141D01*
X92239105Y-67989145D01*
X92166768Y-68077367D01*
X92096304Y-68163305D01*
X91982245Y-68363677D01*
X91903578Y-68580402D01*
X91902629Y-68585651D01*
X91902628Y-68585654D01*
X91880890Y-68705865D01*
X91862551Y-68807283D01*
X91862500Y-68812623D01*
X91861097Y-68958810D01*
X91860338Y-69037833D01*
X91897002Y-69265461D01*
X91971494Y-69483656D01*
X92081685Y-69686180D01*
X92224424Y-69867244D01*
X92228389Y-69870820D01*
X92391659Y-70018089D01*
X92391665Y-70018094D01*
X92395629Y-70021669D01*
X92400142Y-70024528D01*
X92400144Y-70024529D01*
X92518242Y-70099331D01*
X92565087Y-70152679D01*
X92575654Y-70222885D01*
X92546587Y-70287658D01*
X92516186Y-70313494D01*
X92421196Y-70371135D01*
X92421189Y-70371140D01*
X92416631Y-70373906D01*
X92412601Y-70377403D01*
X92319426Y-70458256D01*
X92242492Y-70525015D01*
X92239109Y-70529141D01*
X92239105Y-70529145D01*
X92166768Y-70617367D01*
X92096304Y-70703305D01*
X91982245Y-70903677D01*
X91903578Y-71120402D01*
X91902629Y-71125651D01*
X91902628Y-71125654D01*
X91880890Y-71245865D01*
X91862551Y-71347283D01*
X91862500Y-71352623D01*
X91861097Y-71498810D01*
X91860338Y-71577833D01*
X91897002Y-71805461D01*
X91971494Y-72023656D01*
X92081685Y-72226180D01*
X92224424Y-72407244D01*
X92228389Y-72410820D01*
X92391659Y-72558089D01*
X92391665Y-72558094D01*
X92395629Y-72561669D01*
X92400142Y-72564528D01*
X92400144Y-72564529D01*
X92518242Y-72639331D01*
X92565087Y-72692679D01*
X92575654Y-72762885D01*
X92546587Y-72827658D01*
X92516186Y-72853494D01*
X92421196Y-72911135D01*
X92421189Y-72911140D01*
X92416631Y-72913906D01*
X92412601Y-72917403D01*
X92271087Y-73040202D01*
X92242492Y-73065015D01*
X92239109Y-73069141D01*
X92239105Y-73069145D01*
X92166768Y-73157367D01*
X92096304Y-73243305D01*
X92093665Y-73247941D01*
X92093663Y-73247944D01*
X92060210Y-73306712D01*
X91982245Y-73443677D01*
X91903578Y-73660402D01*
X91902629Y-73665651D01*
X91902628Y-73665654D01*
X91881661Y-73781602D01*
X91862551Y-73887283D01*
X91861464Y-74000546D01*
X91861097Y-74038810D01*
X91860338Y-74117833D01*
X91897002Y-74345461D01*
X91971494Y-74563656D01*
X92081685Y-74766180D01*
X92224424Y-74947244D01*
X92228389Y-74950820D01*
X92391659Y-75098089D01*
X92391665Y-75098094D01*
X92395629Y-75101669D01*
X92400142Y-75104528D01*
X92400144Y-75104529D01*
X92518242Y-75179331D01*
X92565087Y-75232679D01*
X92575654Y-75302885D01*
X92546587Y-75367658D01*
X92516186Y-75393494D01*
X92421196Y-75451135D01*
X92421191Y-75451139D01*
X92416631Y-75453906D01*
X92412601Y-75457403D01*
X92319426Y-75538256D01*
X92242492Y-75605015D01*
X92239109Y-75609141D01*
X92239105Y-75609145D01*
X92166768Y-75697367D01*
X92096304Y-75783305D01*
X91982245Y-75983677D01*
X91903578Y-76200402D01*
X91902629Y-76205651D01*
X91902628Y-76205654D01*
X91880890Y-76325865D01*
X91862551Y-76427283D01*
X91861464Y-76540546D01*
X91860493Y-76641727D01*
X91860338Y-76657833D01*
X91897002Y-76885461D01*
X91971494Y-77103656D01*
X92081685Y-77306180D01*
X92224424Y-77487244D01*
X92228389Y-77490820D01*
X92391659Y-77638089D01*
X92391665Y-77638094D01*
X92395629Y-77641669D01*
X92400142Y-77644528D01*
X92400144Y-77644529D01*
X92518242Y-77719331D01*
X92565087Y-77772679D01*
X92575654Y-77842885D01*
X92546587Y-77907658D01*
X92516186Y-77933494D01*
X92421196Y-77991135D01*
X92421189Y-77991140D01*
X92416631Y-77993906D01*
X92412601Y-77997403D01*
X92319426Y-78078256D01*
X92242492Y-78145015D01*
X92239109Y-78149141D01*
X92239105Y-78149145D01*
X92166768Y-78237367D01*
X92096304Y-78323305D01*
X91982245Y-78523677D01*
X91903578Y-78740402D01*
X91902629Y-78745651D01*
X91902628Y-78745654D01*
X91880890Y-78865865D01*
X91862551Y-78967283D01*
X91862500Y-78972623D01*
X91861097Y-79118810D01*
X91860338Y-79197833D01*
X91897002Y-79425461D01*
X91971494Y-79643656D01*
X92081685Y-79846180D01*
X92224424Y-80027244D01*
X92228389Y-80030820D01*
X92391659Y-80178089D01*
X92391665Y-80178094D01*
X92395629Y-80181669D01*
X92400142Y-80184528D01*
X92400144Y-80184529D01*
X92518242Y-80259331D01*
X92565087Y-80312679D01*
X92575654Y-80382885D01*
X92546587Y-80447658D01*
X92516186Y-80473494D01*
X92421196Y-80531135D01*
X92421189Y-80531140D01*
X92416631Y-80533906D01*
X92412601Y-80537403D01*
X92303707Y-80631896D01*
X92242492Y-80685015D01*
X92239109Y-80689141D01*
X92239105Y-80689145D01*
X92187233Y-80752408D01*
X92096304Y-80863305D01*
X91982245Y-81063677D01*
X91903578Y-81280402D01*
X91902629Y-81285651D01*
X91902628Y-81285654D01*
X91880890Y-81405865D01*
X91862551Y-81507283D01*
X91862163Y-81547683D01*
X91861097Y-81658810D01*
X91860338Y-81737833D01*
X91897002Y-81965461D01*
X91971494Y-82183656D01*
X92081685Y-82386180D01*
X92224424Y-82567244D01*
X92228389Y-82570820D01*
X92391659Y-82718089D01*
X92391665Y-82718094D01*
X92395629Y-82721669D01*
X92400142Y-82724528D01*
X92400144Y-82724529D01*
X92518242Y-82799331D01*
X92565087Y-82852679D01*
X92575654Y-82922885D01*
X92546587Y-82987658D01*
X92516186Y-83013494D01*
X92421196Y-83071135D01*
X92421189Y-83071140D01*
X92416631Y-83073906D01*
X92412601Y-83077403D01*
X92319426Y-83158256D01*
X92242492Y-83225015D01*
X92239109Y-83229141D01*
X92239105Y-83229145D01*
X92166768Y-83317367D01*
X92096304Y-83403305D01*
X91982245Y-83603677D01*
X91903578Y-83820402D01*
X91902629Y-83825651D01*
X91902628Y-83825654D01*
X91880890Y-83945865D01*
X91862551Y-84047283D01*
X91862500Y-84052623D01*
X91861097Y-84198810D01*
X91860338Y-84277833D01*
X91897002Y-84505461D01*
X91971494Y-84723656D01*
X92081685Y-84926180D01*
X92224424Y-85107244D01*
X92228389Y-85110820D01*
X92391659Y-85258089D01*
X92391665Y-85258094D01*
X92395629Y-85261669D01*
X92400142Y-85264528D01*
X92400144Y-85264529D01*
X92518242Y-85339331D01*
X92565087Y-85392679D01*
X92575654Y-85462885D01*
X92546587Y-85527658D01*
X92516186Y-85553494D01*
X92421196Y-85611135D01*
X92421189Y-85611140D01*
X92416631Y-85613906D01*
X92412601Y-85617403D01*
X92319426Y-85698256D01*
X92242492Y-85765015D01*
X92239109Y-85769141D01*
X92239105Y-85769145D01*
X92166768Y-85857367D01*
X92096304Y-85943305D01*
X91982245Y-86143677D01*
X91903578Y-86360402D01*
X91902629Y-86365651D01*
X91902628Y-86365654D01*
X91880890Y-86485865D01*
X91862551Y-86587283D01*
X91862500Y-86592623D01*
X91861097Y-86738810D01*
X91860338Y-86817833D01*
X91897002Y-87045461D01*
X91971494Y-87263656D01*
X92081685Y-87466180D01*
X92224424Y-87647244D01*
X92284466Y-87701401D01*
X92321651Y-87761877D01*
X92320237Y-87832859D01*
X92280672Y-87891809D01*
X92235570Y-87915857D01*
X92165542Y-87936419D01*
X92149308Y-87943833D01*
X92041640Y-88013026D01*
X92028153Y-88024712D01*
X91944338Y-88121440D01*
X91934693Y-88136448D01*
X91881523Y-88252875D01*
X91876498Y-88269988D01*
X91857639Y-88401154D01*
X91857000Y-88410095D01*
X82042000Y-88410095D01*
X82042000Y-22559868D01*
X86920616Y-22559868D01*
X86937166Y-22846892D01*
X86937991Y-22851097D01*
X86937992Y-22851105D01*
X86949223Y-22908348D01*
X86992516Y-23129014D01*
X87085642Y-23401014D01*
X87214822Y-23657859D01*
X87377664Y-23894796D01*
X87571155Y-24107440D01*
X87791716Y-24291857D01*
X87795357Y-24294141D01*
X88031624Y-24442352D01*
X88031628Y-24442354D01*
X88035264Y-24444635D01*
X88297293Y-24562945D01*
X88301412Y-24564165D01*
X88568841Y-24643382D01*
X88568846Y-24643383D01*
X88572954Y-24644600D01*
X88577188Y-24645248D01*
X88577193Y-24645249D01*
X88830037Y-24683940D01*
X88857147Y-24688088D01*
X89003498Y-24690387D01*
X89140321Y-24692537D01*
X89140327Y-24692537D01*
X89144612Y-24692604D01*
X89148864Y-24692089D01*
X89148872Y-24692089D01*
X89370529Y-24665265D01*
X89430030Y-24658064D01*
X89434179Y-24656976D01*
X89434182Y-24656975D01*
X89703970Y-24586198D01*
X89708121Y-24585109D01*
X89973736Y-24475087D01*
X90022827Y-24446401D01*
X90218255Y-24332202D01*
X90218257Y-24332200D01*
X90221963Y-24330035D01*
X90448208Y-24152637D01*
X90648283Y-23946175D01*
X90650816Y-23942727D01*
X90650820Y-23942722D01*
X90815949Y-23717925D01*
X90818487Y-23714470D01*
X90849224Y-23657859D01*
X90953621Y-23465585D01*
X90953622Y-23465583D01*
X90955671Y-23461809D01*
X91057295Y-23192869D01*
X91121479Y-22912624D01*
X91126970Y-22851105D01*
X91146816Y-22628728D01*
X91146816Y-22628726D01*
X91147036Y-22626262D01*
X91147500Y-22582000D01*
X91145991Y-22559868D01*
X112220616Y-22559868D01*
X112237166Y-22846892D01*
X112237991Y-22851097D01*
X112237992Y-22851105D01*
X112249223Y-22908348D01*
X112292516Y-23129014D01*
X112385642Y-23401014D01*
X112514822Y-23657859D01*
X112677664Y-23894796D01*
X112871155Y-24107440D01*
X113091716Y-24291857D01*
X113095357Y-24294141D01*
X113331624Y-24442352D01*
X113331628Y-24442354D01*
X113335264Y-24444635D01*
X113597293Y-24562945D01*
X113601412Y-24564165D01*
X113868841Y-24643382D01*
X113868846Y-24643383D01*
X113872954Y-24644600D01*
X113877188Y-24645248D01*
X113877193Y-24645249D01*
X114130037Y-24683940D01*
X114157147Y-24688088D01*
X114303498Y-24690387D01*
X114440321Y-24692537D01*
X114440327Y-24692537D01*
X114444612Y-24692604D01*
X114448864Y-24692089D01*
X114448872Y-24692089D01*
X114670529Y-24665265D01*
X114730030Y-24658064D01*
X114734179Y-24656976D01*
X114734182Y-24656975D01*
X115003970Y-24586198D01*
X115008121Y-24585109D01*
X115273736Y-24475087D01*
X115322827Y-24446401D01*
X115518255Y-24332202D01*
X115518257Y-24332200D01*
X115521963Y-24330035D01*
X115748208Y-24152637D01*
X115948283Y-23946175D01*
X115950816Y-23942727D01*
X115950820Y-23942722D01*
X116115949Y-23717925D01*
X116118487Y-23714470D01*
X116149224Y-23657859D01*
X116253621Y-23465585D01*
X116253622Y-23465583D01*
X116255671Y-23461809D01*
X116357295Y-23192869D01*
X116421479Y-22912624D01*
X116426970Y-22851105D01*
X116446816Y-22628728D01*
X116446816Y-22628726D01*
X116447036Y-22626262D01*
X116447500Y-22582000D01*
X116427946Y-22295165D01*
X116423409Y-22273254D01*
X116370513Y-22017835D01*
X116369644Y-22013638D01*
X116273674Y-21742628D01*
X116141812Y-21487150D01*
X115976498Y-21251931D01*
X115973573Y-21248783D01*
X115783711Y-21044468D01*
X115783708Y-21044466D01*
X115780790Y-21041325D01*
X115777474Y-21038611D01*
X115777471Y-21038608D01*
X115561629Y-20861942D01*
X115561622Y-20861937D01*
X115558311Y-20859227D01*
X115313176Y-20709009D01*
X115309240Y-20707281D01*
X115053851Y-20595172D01*
X115053847Y-20595171D01*
X115049923Y-20593448D01*
X114773421Y-20514685D01*
X114562794Y-20484708D01*
X114493041Y-20474781D01*
X114493039Y-20474781D01*
X114488789Y-20474176D01*
X114337976Y-20473387D01*
X114205579Y-20472693D01*
X114205573Y-20472693D01*
X114201292Y-20472671D01*
X114197048Y-20473230D01*
X114197044Y-20473230D01*
X114071864Y-20489710D01*
X113916251Y-20510197D01*
X113912111Y-20511330D01*
X113912109Y-20511330D01*
X113895547Y-20515861D01*
X113638940Y-20586061D01*
X113617580Y-20595172D01*
X113378433Y-20697176D01*
X113378426Y-20697180D01*
X113374491Y-20698858D01*
X113370810Y-20701061D01*
X113131479Y-20844297D01*
X113131475Y-20844300D01*
X113127797Y-20846501D01*
X113124454Y-20849179D01*
X113124450Y-20849182D01*
X113014922Y-20936931D01*
X112903423Y-21026259D01*
X112900479Y-21029361D01*
X112900475Y-21029365D01*
X112886143Y-21044468D01*
X112705520Y-21234804D01*
X112537752Y-21468279D01*
X112403222Y-21722362D01*
X112304419Y-21992352D01*
X112243173Y-22273254D01*
X112220616Y-22559868D01*
X91145991Y-22559868D01*
X91127946Y-22295165D01*
X91123409Y-22273254D01*
X91070513Y-22017835D01*
X91069644Y-22013638D01*
X90973674Y-21742628D01*
X90841812Y-21487150D01*
X90676498Y-21251931D01*
X90673573Y-21248783D01*
X90483711Y-21044468D01*
X90483708Y-21044466D01*
X90480790Y-21041325D01*
X90477474Y-21038611D01*
X90477471Y-21038608D01*
X90261629Y-20861942D01*
X90261622Y-20861937D01*
X90258311Y-20859227D01*
X90013176Y-20709009D01*
X90009240Y-20707281D01*
X89753851Y-20595172D01*
X89753847Y-20595171D01*
X89749923Y-20593448D01*
X89473421Y-20514685D01*
X89262794Y-20484708D01*
X89193041Y-20474781D01*
X89193039Y-20474781D01*
X89188789Y-20474176D01*
X89037976Y-20473387D01*
X88905579Y-20472693D01*
X88905573Y-20472693D01*
X88901292Y-20472671D01*
X88897048Y-20473230D01*
X88897044Y-20473230D01*
X88771864Y-20489710D01*
X88616251Y-20510197D01*
X88612111Y-20511330D01*
X88612109Y-20511330D01*
X88595547Y-20515861D01*
X88338940Y-20586061D01*
X88317580Y-20595172D01*
X88078433Y-20697176D01*
X88078426Y-20697180D01*
X88074491Y-20698858D01*
X88070810Y-20701061D01*
X87831479Y-20844297D01*
X87831475Y-20844300D01*
X87827797Y-20846501D01*
X87824454Y-20849179D01*
X87824450Y-20849182D01*
X87714922Y-20936931D01*
X87603423Y-21026259D01*
X87600479Y-21029361D01*
X87600475Y-21029365D01*
X87586143Y-21044468D01*
X87405520Y-21234804D01*
X87237752Y-21468279D01*
X87103222Y-21722362D01*
X87004419Y-21992352D01*
X86943173Y-22273254D01*
X86920616Y-22559868D01*
X82042000Y-22559868D01*
X82042000Y-20216000D01*
X82062002Y-20147879D01*
X82115658Y-20101386D01*
X82168000Y-20090000D01*
X121200000Y-20090000D01*
X121268121Y-20110002D01*
G37*
%TD.AperFunction*%
%TD*%
M02*
